<ttFont>
    <TTGlyph name="A" xMin="55" yMin="-362" xMax="1124" yMax="1374">
      <contour>
        <pt x="1059" y="1075" on="1"/>
        <pt x="1059" y="1052" on="0"/>
        <pt x="1043" y="989" on="0"/>
        <pt x="1012" y="930" on="0"/>
        <pt x="966" y="889" on="0"/>
        <pt x="936" y="889" on="1"/>
        <pt x="920" y="889" on="0"/>
        <pt x="911" y="911" on="0"/>
        <pt x="911" y="924" on="1"/>
        <pt x="911" y="966" on="0"/>
        <pt x="925" y="1048" on="0"/>
        <pt x="925" y="1092" on="1"/>
        <pt x="925" y="1135" on="0"/>
        <pt x="911" y="1218" on="0"/>
        <pt x="874" y="1282" on="0"/>
        <pt x="807" y="1321" on="0"/>
        <pt x="755" y="1321" on="1"/>
        <pt x="680" y="1321" on="0"/>
        <pt x="553" y="1251" on="0"/>
        <pt x="448" y="1131" on="0"/>
        <pt x="363" y="972" on="0"/>
        <pt x="297" y="794" on="0"/>
        <pt x="250" y="608" on="0"/>
        <pt x="219" y="434" on="0"/>
        <pt x="205" y="283" on="0"/>
        <pt x="205" y="229" on="1"/>
        <pt x="205" y="181" on="0"/>
        <pt x="214" y="73" on="0"/>
        <pt x="237" y="-32" on="0"/>
        <pt x="275" y="-128" on="0"/>
        <pt x="333" y="-201" on="0"/>
        <pt x="414" y="-244" on="0"/>
        <pt x="468" y="-244" on="1"/>
        <pt x="547" y="-244" on="0"/>
        <pt x="669" y="-182" on="0"/>
        <pt x="764" y="-78" on="0"/>
        <pt x="833" y="57" on="0"/>
        <pt x="859" y="129" on="1"/>
        <pt x="854" y="164" on="0"/>
        <pt x="848" y="235" on="0"/>
        <pt x="848" y="270" on="1"/>
        <pt x="848" y="294" on="0"/>
        <pt x="852" y="365" on="0"/>
        <pt x="862" y="446" on="0"/>
        <pt x="880" y="529" on="0"/>
        <pt x="906" y="604" on="0"/>
        <pt x="942" y="661" on="0"/>
        <pt x="966" y="676" on="1"/>
        <pt x="982" y="685" on="0"/>
        <pt x="1015" y="700" on="0"/>
        <pt x="1034" y="700" on="1"/>
        <pt x="1048" y="700" on="0"/>
        <pt x="1065" y="688" on="0"/>
        <pt x="1065" y="674" on="1"/>
        <pt x="1065" y="665" on="0"/>
        <pt x="1060" y="648" on="0"/>
        <pt x="1056" y="639" on="1"/>
        <pt x="1019" y="543" on="0"/>
        <pt x="985" y="341" on="0"/>
        <pt x="985" y="238" on="1"/>
        <pt x="985" y="202" on="0"/>
        <pt x="994" y="100" on="0"/>
        <pt x="1010" y="-14" on="0"/>
        <pt x="1034" y="-134" on="0"/>
        <pt x="1065" y="-242" on="0"/>
        <pt x="1102" y="-330" on="0"/>
        <pt x="1124" y="-356" on="1"/>
        <pt x="1106" y="-362" on="1"/>
        <pt x="1018" y="-273" on="0"/>
        <pt x="899" y="-50" on="0"/>
        <pt x="871" y="72" on="1"/>
        <pt x="824" y="-39" on="0"/>
        <pt x="757" y="-131" on="1"/>
        <pt x="727" y="-170" on="0"/>
        <pt x="653" y="-235" on="0"/>
        <pt x="569" y="-283" on="0"/>
        <pt x="476" y="-309" on="0"/>
        <pt x="425" y="-309" on="1"/>
        <pt x="351" y="-309" on="0"/>
        <pt x="238" y="-257" on="0"/>
        <pt x="156" y="-171" on="0"/>
        <pt x="101" y="-59" on="0"/>
        <pt x="69" y="62" on="0"/>
        <pt x="55" y="184" on="0"/>
        <pt x="55" y="236" on="1"/>
        <pt x="55" y="352" on="0"/>
        <pt x="98" y="610" on="0"/>
        <pt x="180" y="863" on="0"/>
        <pt x="301" y="1094" on="0"/>
        <pt x="457" y="1270" on="0"/>
        <pt x="647" y="1374" on="0"/>
        <pt x="757" y="1374" on="1"/>
        <pt x="824" y="1374" on="0"/>
        <pt x="935" y="1331" on="0"/>
        <pt x="1015" y="1252" on="0"/>
        <pt x="1059" y="1142" on="0"/>
      </contour>
    </TTGlyph>
    <TTGlyph name="AE" xMin="33" yMin="-375" xMax="2027" yMax="1380">
      <contour>
        <pt x="986" y="-362" on="1"/>
        <pt x="919" y="-277" on="0"/>
        <pt x="837" y="-98" on="0"/>
        <pt x="815" y="-1" on="1"/>
        <pt x="791" y="-60" on="0"/>
        <pt x="721" y="-171" on="0"/>
        <pt x="626" y="-257" on="0"/>
        <pt x="503" y="-309" on="0"/>
        <pt x="425" y="-309" on="1"/>
        <pt x="351" y="-309" on="0"/>
        <pt x="235" y="-263" on="0"/>
        <pt x="148" y="-185" on="0"/>
        <pt x="87" y="-83" on="0"/>
        <pt x="50" y="29" on="0"/>
        <pt x="33" y="145" on="0"/>
        <pt x="33" y="197" on="1"/>
        <pt x="33" y="317" on="0"/>
        <pt x="89" y="584" on="0"/>
        <pt x="192" y="846" on="0"/>
        <pt x="337" y="1084" on="0"/>
        <pt x="513" y="1266" on="0"/>
        <pt x="717" y="1374" on="0"/>
        <pt x="827" y="1374" on="1"/>
        <pt x="892" y="1374" on="0"/>
        <pt x="1000" y="1333" on="0"/>
        <pt x="1080" y="1259" on="0"/>
        <pt x="1126" y="1154" on="0"/>
        <pt x="1129" y="1091" on="1"/>
        <pt x="1183" y="1154" on="0"/>
        <pt x="1318" y="1260" on="0"/>
        <pt x="1469" y="1337" on="0"/>
        <pt x="1629" y="1380" on="0"/>
        <pt x="1709" y="1380" on="1"/>
        <pt x="1773" y="1380" on="0"/>
        <pt x="1889" y="1353" on="0"/>
        <pt x="1976" y="1292" on="0"/>
        <pt x="2027" y="1192" on="0"/>
        <pt x="2027" y="1120" on="1"/>
        <pt x="2027" y="1048" on="0"/>
        <pt x="1980" y="935" on="0"/>
        <pt x="1900" y="847" on="0"/>
        <pt x="1793" y="783" on="0"/>
        <pt x="1673" y="739" on="0"/>
        <pt x="1546" y="714" on="0"/>
        <pt x="1486" y="709" on="1"/>
        <pt x="1486" y="727" on="1"/>
        <pt x="1552" y="750" on="0"/>
        <pt x="1693" y="826" on="0"/>
        <pt x="1808" y="929" on="0"/>
        <pt x="1883" y="1060" on="0"/>
        <pt x="1883" y="1139" on="1"/>
        <pt x="1883" y="1225" on="0"/>
        <pt x="1789" y="1327" on="0"/>
        <pt x="1701" y="1327" on="1"/>
        <pt x="1632" y="1327" on="0"/>
        <pt x="1496" y="1284" on="0"/>
        <pt x="1372" y="1207" on="0"/>
        <pt x="1265" y="1103" on="0"/>
        <pt x="1187" y="980" on="0"/>
        <pt x="1142" y="845" on="0"/>
        <pt x="1142" y="776" on="1"/>
        <pt x="1142" y="701" on="0"/>
        <pt x="1204" y="575" on="0"/>
        <pt x="1304" y="477" on="0"/>
        <pt x="1432" y="410" on="0"/>
        <pt x="1498" y="393" on="1"/>
        <pt x="1498" y="375" on="1"/>
        <pt x="1467" y="362" on="0"/>
        <pt x="1394" y="318" on="0"/>
        <pt x="1321" y="260" on="0"/>
        <pt x="1254" y="188" on="0"/>
        <pt x="1202" y="108" on="0"/>
        <pt x="1171" y="21" on="0"/>
        <pt x="1171" y="-24" on="1"/>
        <pt x="1171" y="-140" on="0"/>
        <pt x="1286" y="-260" on="0"/>
        <pt x="1402" y="-260" on="1"/>
        <pt x="1467" y="-260" on="0"/>
        <pt x="1586" y="-225" on="0"/>
        <pt x="1689" y="-160" on="0"/>
        <pt x="1775" y="-68" on="0"/>
        <pt x="1807" y="-12" on="1"/>
        <pt x="1820" y="-18" on="1"/>
        <pt x="1793" y="-90" on="0"/>
        <pt x="1691" y="-220" on="0"/>
        <pt x="1557" y="-318" on="0"/>
        <pt x="1398" y="-375" on="0"/>
        <pt x="1314" y="-375" on="1"/>
        <pt x="1249" y="-375" on="0"/>
        <pt x="1139" y="-337" on="0"/>
        <pt x="1059" y="-263" on="0"/>
        <pt x="1013" y="-154" on="0"/>
        <pt x="1013" y="-82" on="1"/>
        <pt x="1013" y="61" on="0"/>
        <pt x="1183" y="278" on="0"/>
        <pt x="1351" y="350" on="1"/>
        <pt x="1281" y="350" on="0"/>
        <pt x="1162" y="388" on="0"/>
        <pt x="1068" y="458" on="0"/>
        <pt x="1003" y="557" on="0"/>
        <pt x="988" y="619" on="1"/>
        <pt x="971" y="575" on="0"/>
        <pt x="945" y="492" on="0"/>
        <pt x="925" y="393" on="0"/>
        <pt x="915" y="270" on="0"/>
        <pt x="915" y="187" on="1"/>
        <pt x="915" y="133" on="0"/>
        <pt x="923" y="-10" on="0"/>
        <pt x="943" y="-160" on="0"/>
        <pt x="978" y="-303" on="0"/>
        <pt x="1004" y="-356" on="1"/>
      </contour>
      <contour>
        <pt x="976" y="725" on="1"/>
        <pt x="976" y="767" on="0"/>
        <pt x="992" y="848" on="0"/>
        <pt x="1007" y="889" on="1"/>
        <pt x="990" y="889" on="0"/>
        <pt x="981" y="911" on="0"/>
        <pt x="981" y="924" on="1"/>
        <pt x="981" y="966" on="0"/>
        <pt x="995" y="1048" on="0"/>
        <pt x="995" y="1092" on="1"/>
        <pt x="995" y="1135" on="0"/>
        <pt x="981" y="1218" on="0"/>
        <pt x="944" y="1282" on="0"/>
        <pt x="877" y="1321" on="0"/>
        <pt x="825" y="1321" on="1"/>
        <pt x="750" y="1321" on="0"/>
        <pt x="617" y="1251" on="0"/>
        <pt x="502" y="1131" on="0"/>
        <pt x="404" y="972" on="0"/>
        <pt x="326" y="794" on="0"/>
        <pt x="266" y="608" on="0"/>
        <pt x="225" y="434" on="0"/>
        <pt x="205" y="283" on="0"/>
        <pt x="205" y="229" on="1"/>
        <pt x="205" y="181" on="0"/>
        <pt x="214" y="73" on="0"/>
        <pt x="237" y="-32" on="0"/>
        <pt x="275" y="-128" on="0"/>
        <pt x="333" y="-201" on="0"/>
        <pt x="414" y="-244" on="0"/>
        <pt x="468" y="-244" on="1"/>
        <pt x="532" y="-244" on="0"/>
        <pt x="634" y="-192" on="0"/>
        <pt x="716" y="-104" on="0"/>
        <pt x="778" y="13" on="0"/>
        <pt x="801" y="78" on="1"/>
        <pt x="794" y="125" on="0"/>
        <pt x="788" y="220" on="0"/>
        <pt x="788" y="270" on="1"/>
        <pt x="788" y="294" on="0"/>
        <pt x="792" y="365" on="0"/>
        <pt x="802" y="446" on="0"/>
        <pt x="820" y="529" on="0"/>
        <pt x="846" y="604" on="0"/>
        <pt x="882" y="661" on="0"/>
        <pt x="906" y="676" on="1"/>
        <pt x="922" y="685" on="0"/>
        <pt x="956" y="700" on="0"/>
        <pt x="977" y="700" on="1"/>
        <pt x="976" y="706" on="0"/>
        <pt x="976" y="718" on="0"/>
      </contour>
    </TTGlyph>
    <TTGlyph name="AEacute" xMin="33" yMin="-375" xMax="2027" yMax="1770">
      <component glyphName="AE" x="0" y="0" flags="0x204"/>
      <component glyphName="acute" x="1046" y="796" flags="0x4"/>
    </TTGlyph>
    <TTGlyph name="Aacute" xMin="55" yMin="-362" xMax="1124" yMax="1770">
      <component glyphName="A" x="0" y="0" flags="0x204"/>
      <component glyphName="acute" x="548" y="796" flags="0x4"/>
    </TTGlyph>
    <TTGlyph name="Abreve" xMin="55" yMin="-362" xMax="1124" yMax="1695">
      <component glyphName="A" x="0" y="0" flags="0x204"/>
      <component glyphName="breve" x="510" y="796" flags="0x4"/>
    </TTGlyph>
    <TTGlyph name="Acircumflex" xMin="55" yMin="-362" xMax="1124" yMax="1760">
      <component glyphName="A" x="0" y="0" flags="0x204"/>
      <component glyphName="circumflex" x="511" y="796" flags="0x4"/>
    </TTGlyph>
    <TTGlyph name="Adieresis" xMin="55" yMin="-362" xMax="1124" yMax="1670">
      <component glyphName="A" x="0" y="0" flags="0x204"/>
      <component glyphName="dieresis" x="511" y="796" flags="0x4"/>
    </TTGlyph>
    <TTGlyph name="Agrave" xMin="55" yMin="-362" xMax="1124" yMax="1770">
      <component glyphName="A" x="0" y="0" flags="0x204"/>
      <component glyphName="grave" x="464" y="796" flags="0x4"/>
    </TTGlyph>
    <TTGlyph name="Amacron" xMin="55" yMin="-362" xMax="1124" yMax="1627">
      <component glyphName="A" x="0" y="0" flags="0x204"/>
      <component glyphName="macron" x="511" y="796" flags="0x4"/>
    </TTGlyph>
    <TTGlyph name="Aogonek" xMin="55" yMin="-626" xMax="1185" yMax="1374">
      <contour>
        <pt x="1092" y="-313" on="1"/>
        <pt x="1058" y="-331" on="0"/>
        <pt x="1017" y="-376" on="0"/>
        <pt x="994" y="-421" on="0"/>
        <pt x="987" y="-460" on="0"/>
        <pt x="987" y="-472" on="1"/>
        <pt x="987" y="-488" on="0"/>
        <pt x="997" y="-518" on="0"/>
        <pt x="1017" y="-542" on="0"/>
        <pt x="1048" y="-557" on="0"/>
        <pt x="1069" y="-557" on="1"/>
        <pt x="1089" y="-557" on="0"/>
        <pt x="1139" y="-537" on="0"/>
        <pt x="1171" y="-508" on="1"/>
        <pt x="1185" y="-519" on="1"/>
        <pt x="1175" y="-539" on="0"/>
        <pt x="1144" y="-577" on="0"/>
        <pt x="1104" y="-607" on="0"/>
        <pt x="1056" y="-626" on="0"/>
        <pt x="1029" y="-626" on="1"/>
        <pt x="1006" y="-626" on="0"/>
        <pt x="959" y="-612" on="0"/>
        <pt x="920" y="-583" on="0"/>
        <pt x="895" y="-539" on="0"/>
        <pt x="895" y="-509" on="1"/>
        <pt x="895" y="-477" on="0"/>
        <pt x="922" y="-419" on="0"/>
        <pt x="967" y="-368" on="0"/>
        <pt x="1024" y="-324" on="0"/>
        <pt x="1055" y="-306" on="1"/>
        <pt x="988" y="-224" on="0"/>
        <pt x="895" y="-31" on="0"/>
        <pt x="871" y="72" on="1"/>
        <pt x="824" y="-39" on="0"/>
        <pt x="757" y="-131" on="1"/>
        <pt x="727" y="-170" on="0"/>
        <pt x="653" y="-235" on="0"/>
        <pt x="569" y="-283" on="0"/>
        <pt x="476" y="-309" on="0"/>
        <pt x="425" y="-309" on="1"/>
        <pt x="351" y="-309" on="0"/>
        <pt x="238" y="-257" on="0"/>
        <pt x="156" y="-171" on="0"/>
        <pt x="101" y="-59" on="0"/>
        <pt x="69" y="62" on="0"/>
        <pt x="55" y="184" on="0"/>
        <pt x="55" y="236" on="1"/>
        <pt x="55" y="352" on="0"/>
        <pt x="98" y="610" on="0"/>
        <pt x="180" y="863" on="0"/>
        <pt x="301" y="1094" on="0"/>
        <pt x="457" y="1270" on="0"/>
        <pt x="647" y="1374" on="0"/>
        <pt x="757" y="1374" on="1"/>
        <pt x="824" y="1374" on="0"/>
        <pt x="935" y="1331" on="0"/>
        <pt x="1015" y="1252" on="0"/>
        <pt x="1059" y="1142" on="0"/>
        <pt x="1059" y="1075" on="1"/>
        <pt x="1059" y="1052" on="0"/>
        <pt x="1043" y="989" on="0"/>
        <pt x="1012" y="930" on="0"/>
        <pt x="966" y="889" on="0"/>
        <pt x="936" y="889" on="1"/>
        <pt x="920" y="889" on="0"/>
        <pt x="911" y="911" on="0"/>
        <pt x="911" y="924" on="1"/>
        <pt x="911" y="966" on="0"/>
        <pt x="925" y="1048" on="0"/>
        <pt x="925" y="1092" on="1"/>
        <pt x="925" y="1135" on="0"/>
        <pt x="911" y="1218" on="0"/>
        <pt x="874" y="1282" on="0"/>
        <pt x="807" y="1321" on="0"/>
        <pt x="755" y="1321" on="1"/>
        <pt x="680" y="1321" on="0"/>
        <pt x="553" y="1251" on="0"/>
        <pt x="448" y="1131" on="0"/>
        <pt x="363" y="972" on="0"/>
        <pt x="297" y="794" on="0"/>
        <pt x="250" y="608" on="0"/>
        <pt x="219" y="434" on="0"/>
        <pt x="205" y="283" on="0"/>
        <pt x="205" y="229" on="1"/>
        <pt x="205" y="181" on="0"/>
        <pt x="214" y="73" on="0"/>
        <pt x="237" y="-32" on="0"/>
        <pt x="275" y="-128" on="0"/>
        <pt x="333" y="-201" on="0"/>
        <pt x="414" y="-244" on="0"/>
        <pt x="468" y="-244" on="1"/>
        <pt x="547" y="-244" on="0"/>
        <pt x="669" y="-182" on="0"/>
        <pt x="764" y="-78" on="0"/>
        <pt x="833" y="57" on="0"/>
        <pt x="859" y="129" on="1"/>
        <pt x="854" y="164" on="0"/>
        <pt x="848" y="235" on="0"/>
        <pt x="848" y="270" on="1"/>
        <pt x="848" y="294" on="0"/>
        <pt x="852" y="365" on="0"/>
        <pt x="862" y="446" on="0"/>
        <pt x="880" y="529" on="0"/>
        <pt x="906" y="604" on="0"/>
        <pt x="942" y="661" on="0"/>
        <pt x="966" y="676" on="1"/>
        <pt x="982" y="685" on="0"/>
        <pt x="1015" y="700" on="0"/>
        <pt x="1034" y="700" on="1"/>
        <pt x="1048" y="700" on="0"/>
        <pt x="1065" y="688" on="0"/>
        <pt x="1065" y="674" on="1"/>
        <pt x="1065" y="665" on="0"/>
        <pt x="1060" y="648" on="0"/>
        <pt x="1056" y="639" on="1"/>
        <pt x="1019" y="543" on="0"/>
        <pt x="985" y="341" on="0"/>
        <pt x="985" y="238" on="1"/>
        <pt x="985" y="190" on="0"/>
        <pt x="999" y="44" on="0"/>
        <pt x="1026" y="-113" on="0"/>
        <pt x="1066" y="-262" on="0"/>
      </contour>
    </TTGlyph>
    <TTGlyph name="Aring" xMin="55" yMin="-362" xMax="1124" yMax="1738">
      <contour>
        <pt x="1059" y="1075" on="1"/>
        <pt x="1059" y="1052" on="0"/>
        <pt x="1043" y="989" on="0"/>
        <pt x="1012" y="930" on="0"/>
        <pt x="966" y="889" on="0"/>
        <pt x="936" y="889" on="1"/>
        <pt x="920" y="889" on="0"/>
        <pt x="911" y="911" on="0"/>
        <pt x="911" y="924" on="1"/>
        <pt x="911" y="966" on="0"/>
        <pt x="925" y="1048" on="0"/>
        <pt x="925" y="1092" on="1"/>
        <pt x="925" y="1135" on="0"/>
        <pt x="911" y="1218" on="0"/>
        <pt x="874" y="1282" on="0"/>
        <pt x="807" y="1321" on="0"/>
        <pt x="755" y="1321" on="1"/>
        <pt x="680" y="1321" on="0"/>
        <pt x="553" y="1251" on="0"/>
        <pt x="448" y="1131" on="0"/>
        <pt x="363" y="972" on="0"/>
        <pt x="297" y="794" on="0"/>
        <pt x="250" y="608" on="0"/>
        <pt x="219" y="434" on="0"/>
        <pt x="205" y="283" on="0"/>
        <pt x="205" y="229" on="1"/>
        <pt x="205" y="181" on="0"/>
        <pt x="214" y="73" on="0"/>
        <pt x="237" y="-32" on="0"/>
        <pt x="275" y="-128" on="0"/>
        <pt x="333" y="-201" on="0"/>
        <pt x="414" y="-244" on="0"/>
        <pt x="468" y="-244" on="1"/>
        <pt x="547" y="-244" on="0"/>
        <pt x="669" y="-182" on="0"/>
        <pt x="764" y="-78" on="0"/>
        <pt x="833" y="57" on="0"/>
        <pt x="859" y="129" on="1"/>
        <pt x="854" y="164" on="0"/>
        <pt x="848" y="235" on="0"/>
        <pt x="848" y="270" on="1"/>
        <pt x="848" y="294" on="0"/>
        <pt x="852" y="365" on="0"/>
        <pt x="862" y="446" on="0"/>
        <pt x="880" y="529" on="0"/>
        <pt x="906" y="604" on="0"/>
        <pt x="942" y="661" on="0"/>
        <pt x="966" y="676" on="1"/>
        <pt x="982" y="685" on="0"/>
        <pt x="1015" y="700" on="0"/>
        <pt x="1034" y="700" on="1"/>
        <pt x="1048" y="700" on="0"/>
        <pt x="1065" y="688" on="0"/>
        <pt x="1065" y="674" on="1"/>
        <pt x="1065" y="665" on="0"/>
        <pt x="1060" y="648" on="0"/>
        <pt x="1056" y="639" on="1"/>
        <pt x="1019" y="543" on="0"/>
        <pt x="985" y="341" on="0"/>
        <pt x="985" y="238" on="1"/>
        <pt x="985" y="202" on="0"/>
        <pt x="994" y="100" on="0"/>
        <pt x="1010" y="-14" on="0"/>
        <pt x="1034" y="-134" on="0"/>
        <pt x="1065" y="-242" on="0"/>
        <pt x="1102" y="-330" on="0"/>
        <pt x="1124" y="-356" on="1"/>
        <pt x="1106" y="-362" on="1"/>
        <pt x="1018" y="-273" on="0"/>
        <pt x="899" y="-50" on="0"/>
        <pt x="871" y="72" on="1"/>
        <pt x="824" y="-39" on="0"/>
        <pt x="757" y="-131" on="1"/>
        <pt x="727" y="-170" on="0"/>
        <pt x="653" y="-235" on="0"/>
        <pt x="569" y="-283" on="0"/>
        <pt x="476" y="-309" on="0"/>
        <pt x="425" y="-309" on="1"/>
        <pt x="351" y="-309" on="0"/>
        <pt x="238" y="-257" on="0"/>
        <pt x="156" y="-171" on="0"/>
        <pt x="101" y="-59" on="0"/>
        <pt x="69" y="62" on="0"/>
        <pt x="55" y="184" on="0"/>
        <pt x="55" y="236" on="1"/>
        <pt x="55" y="352" on="0"/>
        <pt x="98" y="610" on="0"/>
        <pt x="180" y="863" on="0"/>
        <pt x="301" y="1094" on="0"/>
        <pt x="457" y="1270" on="0"/>
        <pt x="647" y="1374" on="0"/>
        <pt x="757" y="1374" on="1"/>
        <pt x="824" y="1374" on="0"/>
        <pt x="935" y="1331" on="0"/>
        <pt x="1015" y="1252" on="0"/>
        <pt x="1059" y="1142" on="0"/>
      </contour>
      <contour>
        <pt x="608" y="1584" on="1"/>
        <pt x="608" y="1616" on="0"/>
        <pt x="632" y="1672" on="0"/>
        <pt x="674" y="1714" on="0"/>
        <pt x="730" y="1738" on="0"/>
        <pt x="762" y="1738" on="1"/>
        <pt x="794" y="1738" on="0"/>
        <pt x="850" y="1714" on="0"/>
        <pt x="892" y="1672" on="0"/>
        <pt x="916" y="1616" on="0"/>
        <pt x="916" y="1584" on="1"/>
        <pt x="916" y="1552" on="0"/>
        <pt x="892" y="1496" on="0"/>
        <pt x="850" y="1454" on="0"/>
        <pt x="794" y="1430" on="0"/>
        <pt x="762" y="1430" on="1"/>
        <pt x="730" y="1430" on="0"/>
        <pt x="674" y="1454" on="0"/>
        <pt x="632" y="1496" on="0"/>
        <pt x="608" y="1552" on="0"/>
      </contour>
      <contour>
        <pt x="689" y="1584" on="1"/>
        <pt x="689" y="1554" on="0"/>
        <pt x="732" y="1511" on="0"/>
        <pt x="762" y="1511" on="1"/>
        <pt x="792" y="1511" on="0"/>
        <pt x="835" y="1554" on="0"/>
        <pt x="835" y="1584" on="1"/>
        <pt x="835" y="1614" on="0"/>
        <pt x="792" y="1657" on="0"/>
        <pt x="762" y="1657" on="1"/>
        <pt x="732" y="1657" on="0"/>
        <pt x="689" y="1614" on="0"/>
      </contour>
    </TTGlyph>
    <TTGlyph name="Atilde" xMin="55" yMin="-362" xMax="1124" yMax="1673">
      <component glyphName="A" x="0" y="0" flags="0x204"/>
      <component glyphName="tilde" x="511" y="796" flags="0x4"/>
    </TTGlyph>
    <TTGlyph name="B" xMin="20" yMin="-352" xMax="1124" yMax="1384">
      <contour>
        <pt x="493" y="1133" on="1"/>
        <pt x="493" y="1123" on="0"/>
        <pt x="488" y="1108" on="0"/>
        <pt x="485" y="1100" on="1"/>
        <pt x="468" y="1060" on="0"/>
        <pt x="431" y="983" on="0"/>
        <pt x="419" y="940" on="1"/>
        <pt x="388" y="827" on="0"/>
        <pt x="351" y="584" on="0"/>
        <pt x="343" y="456" on="1"/>
        <pt x="424" y="454" on="0"/>
        <pt x="602" y="418" on="0"/>
        <pt x="686" y="383" on="1"/>
        <pt x="749" y="421" on="0"/>
        <pt x="854" y="521" on="0"/>
        <pt x="929" y="643" on="0"/>
        <pt x="970" y="783" on="0"/>
        <pt x="968" y="860" on="1"/>
        <pt x="968" y="975" on="0"/>
        <pt x="889" y="1157" on="0"/>
        <pt x="758" y="1283" on="0"/>
        <pt x="590" y="1350" on="0"/>
        <pt x="501" y="1350" on="1"/>
        <pt x="439" y="1350" on="0"/>
        <pt x="305" y="1304" on="0"/>
        <pt x="195" y="1222" on="0"/>
        <pt x="124" y="1106" on="0"/>
        <pt x="124" y="1036" on="1"/>
        <pt x="124" y="1009" on="0"/>
        <pt x="137" y="965" on="0"/>
        <pt x="152" y="929" on="0"/>
        <pt x="165" y="898" on="0"/>
        <pt x="165" y="883" on="1"/>
        <pt x="165" y="854" on="0"/>
        <pt x="126" y="815" on="0"/>
        <pt x="98" y="815" on="1"/>
        <pt x="72" y="815" on="0"/>
        <pt x="42" y="843" on="0"/>
        <pt x="25" y="885" on="0"/>
        <pt x="20" y="932" on="0"/>
        <pt x="20" y="950" on="1"/>
        <pt x="20" y="1038" on="0"/>
        <pt x="103" y="1181" on="0"/>
        <pt x="170" y="1237" on="1"/>
        <pt x="212" y="1273" on="0"/>
        <pt x="297" y="1328" on="0"/>
        <pt x="387" y="1365" on="0"/>
        <pt x="486" y="1384" on="0"/>
        <pt x="542" y="1384" on="1"/>
        <pt x="677" y="1384" on="0"/>
        <pt x="893" y="1305" on="0"/>
        <pt x="1043" y="1168" on="0"/>
        <pt x="1124" y="986" on="0"/>
        <pt x="1124" y="883" on="1"/>
        <pt x="1124" y="788" on="0"/>
        <pt x="1066" y="627" on="0"/>
        <pt x="966" y="494" on="0"/>
        <pt x="830" y="390" on="0"/>
        <pt x="751" y="352" on="1"/>
        <pt x="802" y="324" on="0"/>
        <pt x="889" y="253" on="0"/>
        <pt x="953" y="164" on="0"/>
        <pt x="989" y="58" on="0"/>
        <pt x="989" y="-4" on="1"/>
        <pt x="989" y="-72" on="0"/>
        <pt x="935" y="-193" on="0"/>
        <pt x="843" y="-286" on="0"/>
        <pt x="722" y="-340" on="0"/>
        <pt x="655" y="-340" on="1"/>
        <pt x="616" y="-340" on="0"/>
        <pt x="530" y="-311" on="0"/>
        <pt x="452" y="-263" on="0"/>
        <pt x="386" y="-201" on="0"/>
        <pt x="366" y="-168" on="1"/>
        <pt x="380" y="-156" on="1"/>
        <pt x="431" y="-199" on="0"/>
        <pt x="562" y="-252" on="0"/>
        <pt x="628" y="-252" on="1"/>
        <pt x="679" y="-244" on="0"/>
        <pt x="760" y="-188" on="0"/>
        <pt x="816" y="-107" on="0"/>
        <pt x="845" y="-10" on="0"/>
        <pt x="845" y="39" on="1"/>
        <pt x="845" y="138" on="0"/>
        <pt x="758" y="278" on="0"/>
        <pt x="689" y="324" on="1"/>
        <pt x="603" y="290" on="0"/>
        <pt x="423" y="256" on="0"/>
        <pt x="335" y="254" on="1"/>
        <pt x="333" y="96" on="0"/>
        <pt x="346" y="-209" on="0"/>
        <pt x="356" y="-346" on="1"/>
        <pt x="337" y="-352" on="1"/>
        <pt x="312" y="-286" on="0"/>
        <pt x="276" y="-136" on="0"/>
        <pt x="252" y="22" on="0"/>
        <pt x="237" y="183" on="0"/>
        <pt x="234" y="261" on="1"/>
        <pt x="210" y="265" on="0"/>
        <pt x="161" y="280" on="0"/>
        <pt x="122" y="303" on="0"/>
        <pt x="98" y="335" on="0"/>
        <pt x="98" y="358" on="1"/>
        <pt x="98" y="381" on="0"/>
        <pt x="121" y="413" on="0"/>
        <pt x="159" y="436" on="0"/>
        <pt x="207" y="449" on="0"/>
        <pt x="231" y="452" on="1"/>
        <pt x="231" y="494" on="0"/>
        <pt x="233" y="616" on="0"/>
        <pt x="242" y="753" on="0"/>
        <pt x="261" y="894" on="0"/>
        <pt x="297" y="1018" on="0"/>
        <pt x="351" y="1114" on="0"/>
        <pt x="391" y="1137" on="1"/>
        <pt x="406" y="1146" on="0"/>
        <pt x="442" y="1161" on="0"/>
        <pt x="462" y="1161" on="1"/>
        <pt x="493" y="1161" on="0"/>
      </contour>
      <contour>
        <pt x="336" y="281" on="1"/>
        <pt x="414" y="282" on="0"/>
        <pt x="567" y="320" on="0"/>
        <pt x="636" y="355" on="1"/>
        <pt x="569" y="388" on="0"/>
        <pt x="416" y="421" on="0"/>
        <pt x="341" y="425" on="1"/>
        <pt x="339" y="389" on="0"/>
        <pt x="337" y="317" on="0"/>
      </contour>
      <contour>
        <pt x="135" y="365" on="1"/>
        <pt x="135" y="350" on="0"/>
        <pt x="152" y="327" on="0"/>
        <pt x="179" y="309" on="0"/>
        <pt x="214" y="296" on="0"/>
        <pt x="233" y="292" on="1"/>
        <pt x="232" y="326" on="0"/>
        <pt x="231" y="390" on="0"/>
        <pt x="231" y="422" on="1"/>
        <pt x="213" y="420" on="0"/>
        <pt x="179" y="411" on="0"/>
        <pt x="152" y="398" on="0"/>
        <pt x="135" y="378" on="0"/>
      </contour>
    </TTGlyph>
    <TTGlyph name="C" xMin="50" yMin="-350" xMax="1150" yMax="1380">
      <contour>
        <pt x="1150" y="1059" on="1"/>
        <pt x="1150" y="987" on="0"/>
        <pt x="1096" y="861" on="0"/>
        <pt x="1005" y="756" on="0"/>
        <pt x="885" y="672" on="0"/>
        <pt x="753" y="615" on="0"/>
        <pt x="616" y="584" on="0"/>
        <pt x="554" y="584" on="1"/>
        <pt x="548" y="584" on="1"/>
        <pt x="548" y="604" on="1"/>
        <pt x="638" y="615" on="0"/>
        <pt x="807" y="704" on="0"/>
        <pt x="938" y="840" on="0"/>
        <pt x="1017" y="1012" on="0"/>
        <pt x="1017" y="1106" on="1"/>
        <pt x="1017" y="1157" on="0"/>
        <pt x="990" y="1240" on="0"/>
        <pt x="937" y="1299" on="0"/>
        <pt x="857" y="1331" on="0"/>
        <pt x="804" y="1331" on="1"/>
        <pt x="697" y="1331" on="0"/>
        <pt x="524" y="1240" on="0"/>
        <pt x="390" y="1089" on="0"/>
        <pt x="293" y="893" on="0"/>
        <pt x="230" y="681" on="0"/>
        <pt x="200" y="468" on="0"/>
        <pt x="200" y="377" on="1"/>
        <pt x="200" y="304" on="0"/>
        <pt x="219" y="155" on="0"/>
        <pt x="261" y="17" on="0"/>
        <pt x="327" y="-104" on="0"/>
        <pt x="420" y="-194" on="0"/>
        <pt x="542" y="-246" on="0"/>
        <pt x="620" y="-246" on="1"/>
        <pt x="674" y="-246" on="0"/>
        <pt x="774" y="-206" on="0"/>
        <pt x="862" y="-140" on="0"/>
        <pt x="933" y="-56" on="0"/>
        <pt x="958" y="-12" on="1"/>
        <pt x="970" y="-18" on="1"/>
        <pt x="953" y="-80" on="0"/>
        <pt x="871" y="-200" on="0"/>
        <pt x="758" y="-293" on="0"/>
        <pt x="625" y="-350" on="0"/>
        <pt x="558" y="-350" on="1"/>
        <pt x="469" y="-350" on="0"/>
        <pt x="325" y="-295" on="0"/>
        <pt x="212" y="-198" on="0"/>
        <pt x="130" y="-67" on="0"/>
        <pt x="76" y="86" on="0"/>
        <pt x="50" y="253" on="0"/>
        <pt x="50" y="337" on="1"/>
        <pt x="50" y="447" on="0"/>
        <pt x="96" y="687" on="0"/>
        <pt x="186" y="919" on="0"/>
        <pt x="317" y="1128" on="0"/>
        <pt x="487" y="1287" on="0"/>
        <pt x="694" y="1380" on="0"/>
        <pt x="814" y="1380" on="1"/>
        <pt x="889" y="1380" on="0"/>
        <pt x="1013" y="1337" on="0"/>
        <pt x="1102" y="1255" on="0"/>
        <pt x="1150" y="1136" on="0"/>
      </contour>
    </TTGlyph>
    <TTGlyph name="Cacute" xMin="50" yMin="-350" xMax="1150" yMax="1776">
      <component glyphName="C" x="0" y="0" flags="0x204"/>
      <component glyphName="acute" x="609" y="802" flags="0x4"/>
    </TTGlyph>
    <TTGlyph name="Ccaron" xMin="50" yMin="-350" xMax="1150" yMax="1766">
      <component glyphName="C" x="0" y="0" flags="0x204"/>
      <component glyphName="caron" x="572" y="802" flags="0x4"/>
    </TTGlyph>
    <TTGlyph name="Ccedilla" xMin="50" yMin="-530" xMax="1150" yMax="1380">
      <contour>
        <pt x="465" y="-243" on="1"/>
        <pt x="357" y="-227" on="0"/>
        <pt x="200" y="-121" on="0"/>
        <pt x="98" y="35" on="0"/>
        <pt x="50" y="230" on="0"/>
        <pt x="50" y="337" on="1"/>
        <pt x="50" y="447" on="0"/>
        <pt x="96" y="687" on="0"/>
        <pt x="186" y="919" on="0"/>
        <pt x="317" y="1128" on="0"/>
        <pt x="487" y="1287" on="0"/>
        <pt x="694" y="1380" on="0"/>
        <pt x="814" y="1380" on="1"/>
        <pt x="889" y="1380" on="0"/>
        <pt x="1013" y="1337" on="0"/>
        <pt x="1102" y="1255" on="0"/>
        <pt x="1150" y="1136" on="0"/>
        <pt x="1150" y="1059" on="1"/>
        <pt x="1150" y="987" on="0"/>
        <pt x="1096" y="861" on="0"/>
        <pt x="1005" y="756" on="0"/>
        <pt x="885" y="672" on="0"/>
        <pt x="753" y="615" on="0"/>
        <pt x="616" y="584" on="0"/>
        <pt x="554" y="584" on="1"/>
        <pt x="548" y="584" on="1"/>
        <pt x="548" y="604" on="1"/>
        <pt x="638" y="615" on="0"/>
        <pt x="807" y="704" on="0"/>
        <pt x="938" y="840" on="0"/>
        <pt x="1017" y="1012" on="0"/>
        <pt x="1017" y="1106" on="1"/>
        <pt x="1017" y="1157" on="0"/>
        <pt x="990" y="1240" on="0"/>
        <pt x="937" y="1299" on="0"/>
        <pt x="857" y="1331" on="0"/>
        <pt x="804" y="1331" on="1"/>
        <pt x="697" y="1331" on="0"/>
        <pt x="524" y="1240" on="0"/>
        <pt x="390" y="1089" on="0"/>
        <pt x="293" y="893" on="0"/>
        <pt x="230" y="681" on="0"/>
        <pt x="200" y="468" on="0"/>
        <pt x="200" y="377" on="1"/>
        <pt x="200" y="276" on="0"/>
        <pt x="244" y="87" on="0"/>
        <pt x="343" y="-59" on="0"/>
        <pt x="504" y="-146" on="0"/>
        <pt x="620" y="-146" on="1"/>
        <pt x="674" y="-146" on="0"/>
        <pt x="774" y="-106" on="0"/>
        <pt x="862" y="-40" on="0"/>
        <pt x="933" y="44" on="0"/>
        <pt x="958" y="88" on="1"/>
        <pt x="970" y="82" on="1"/>
        <pt x="950" y="21" on="0"/>
        <pt x="871" y="-98" on="0"/>
        <pt x="764" y="-192" on="0"/>
        <pt x="632" y="-250" on="0"/>
        <pt x="558" y="-250" on="1"/>
        <pt x="526" y="-250" on="0"/>
        <pt x="498" y="-247" on="1"/>
        <pt x="486" y="-301" on="1"/>
        <pt x="504" y="-298" on="0"/>
        <pt x="523" y="-298" on="1"/>
        <pt x="549" y="-298" on="0"/>
        <pt x="595" y="-312" on="0"/>
        <pt x="629" y="-340" on="0"/>
        <pt x="649" y="-381" on="0"/>
        <pt x="649" y="-407" on="1"/>
        <pt x="649" y="-438" on="0"/>
        <pt x="622" y="-484" on="0"/>
        <pt x="579" y="-515" on="0"/>
        <pt x="526" y="-530" on="0"/>
        <pt x="499" y="-530" on="1"/>
        <pt x="469" y="-530" on="0"/>
        <pt x="415" y="-513" on="0"/>
        <pt x="368" y="-488" on="0"/>
        <pt x="332" y="-457" on="0"/>
        <pt x="320" y="-442" on="1"/>
        <pt x="333" y="-427" on="1"/>
        <pt x="369" y="-453" on="0"/>
        <pt x="429" y="-471" on="0"/>
        <pt x="466" y="-471" on="1"/>
        <pt x="505" y="-471" on="0"/>
        <pt x="552" y="-440" on="0"/>
        <pt x="552" y="-409" on="1"/>
        <pt x="552" y="-382" on="0"/>
        <pt x="509" y="-356" on="0"/>
        <pt x="481" y="-356" on="1"/>
        <pt x="468" y="-356" on="0"/>
        <pt x="444" y="-360" on="0"/>
        <pt x="438" y="-362" on="1"/>
      </contour>
    </TTGlyph>
    <TTGlyph name="Ccircumflex" xMin="50" yMin="-350" xMax="1150" yMax="1766">
      <component glyphName="C" x="0" y="0" flags="0x204"/>
      <component glyphName="circumflex" x="572" y="802" flags="0x4"/>
    </TTGlyph>
    <TTGlyph name="Cdotaccent" xMin="50" yMin="-350" xMax="1150" yMax="1676">
      <component glyphName="C" x="0" y="0" flags="0x204"/>
      <component glyphName="dotaccent" x="573" y="802" flags="0x4"/>
    </TTGlyph>
    <TTGlyph name="D" xMin="30" yMin="-371" xMax="1177" yMax="1399">
      <contour>
        <pt x="1177" y="461" on="1"/>
        <pt x="1177" y="360" on="0"/>
        <pt x="1135" y="157" on="0"/>
        <pt x="1053" y="-28" on="0"/>
        <pt x="933" y="-187" on="0"/>
        <pt x="778" y="-304" on="0"/>
        <pt x="587" y="-371" on="0"/>
        <pt x="476" y="-371" on="1"/>
        <pt x="377" y="-371" on="0"/>
        <pt x="220" y="-318" on="0"/>
        <pt x="111" y="-214" on="0"/>
        <pt x="53" y="-62" on="0"/>
        <pt x="53" y="37" on="1"/>
        <pt x="53" y="72" on="0"/>
        <pt x="59" y="142" on="0"/>
        <pt x="67" y="176" on="1"/>
        <pt x="83" y="178" on="1"/>
        <pt x="83" y="164" on="1"/>
        <pt x="82" y="73" on="0"/>
        <pt x="135" y="-100" on="0"/>
        <pt x="240" y="-235" on="0"/>
        <pt x="397" y="-317" on="0"/>
        <pt x="499" y="-317" on="1"/>
        <pt x="600" y="-317" on="0"/>
        <pt x="757" y="-238" on="0"/>
        <pt x="873" y="-106" on="0"/>
        <pt x="952" y="65" on="0"/>
        <pt x="1000" y="250" on="0"/>
        <pt x="1021" y="433" on="0"/>
        <pt x="1021" y="512" on="1"/>
        <pt x="1021" y="590" on="0"/>
        <pt x="992" y="775" on="0"/>
        <pt x="933" y="961" on="0"/>
        <pt x="842" y="1135" on="0"/>
        <pt x="718" y="1269" on="0"/>
        <pt x="559" y="1350" on="0"/>
        <pt x="462" y="1350" on="1"/>
        <pt x="425" y="1350" on="0"/>
        <pt x="347" y="1325" on="0"/>
        <pt x="271" y="1282" on="0"/>
        <pt x="204" y="1224" on="0"/>
        <pt x="154" y="1155" on="0"/>
        <pt x="124" y="1080" on="0"/>
        <pt x="124" y="1042" on="1"/>
        <pt x="124" y="1014" on="0"/>
        <pt x="138" y="970" on="0"/>
        <pt x="155" y="933" on="0"/>
        <pt x="169" y="900" on="0"/>
        <pt x="169" y="883" on="1"/>
        <pt x="169" y="854" on="0"/>
        <pt x="130" y="815" on="0"/>
        <pt x="102" y="815" on="1"/>
        <pt x="79" y="815" on="0"/>
        <pt x="51" y="835" on="0"/>
        <pt x="36" y="866" on="0"/>
        <pt x="30" y="904" on="0"/>
        <pt x="30" y="922" on="1"/>
        <pt x="30" y="965" on="0"/>
        <pt x="54" y="1051" on="0"/>
        <pt x="94" y="1132" on="0"/>
        <pt x="146" y="1205" on="0"/>
        <pt x="173" y="1237" on="1"/>
        <pt x="239" y="1312" on="0"/>
        <pt x="405" y="1399" on="0"/>
        <pt x="507" y="1399" on="1"/>
        <pt x="632" y="1399" on="0"/>
        <pt x="829" y="1317" on="0"/>
        <pt x="978" y="1176" on="0"/>
        <pt x="1082" y="989" on="0"/>
        <pt x="1147" y="781" on="0"/>
        <pt x="1177" y="563" on="0"/>
      </contour>
      <contour>
        <pt x="499" y="1133" on="1"/>
        <pt x="499" y="1123" on="0"/>
        <pt x="494" y="1106" on="0"/>
        <pt x="491" y="1098" on="1"/>
        <pt x="474" y="1053" on="0"/>
        <pt x="431" y="970" on="0"/>
        <pt x="419" y="924" on="1"/>
        <pt x="374" y="752" on="0"/>
        <pt x="334" y="460" on="0"/>
        <pt x="325" y="195" on="0"/>
        <pt x="337" y="-58" on="0"/>
        <pt x="345" y="-190" on="1"/>
        <pt x="329" y="-197" on="1"/>
        <pt x="303" y="-117" on="0"/>
        <pt x="268" y="56" on="0"/>
        <pt x="247" y="234" on="0"/>
        <pt x="239" y="412" on="0"/>
        <pt x="239" y="496" on="1"/>
        <pt x="239" y="535" on="0"/>
        <pt x="242" y="647" on="0"/>
        <pt x="252" y="775" on="0"/>
        <pt x="272" y="907" on="0"/>
        <pt x="307" y="1023" on="0"/>
        <pt x="358" y="1113" on="0"/>
        <pt x="395" y="1135" on="1"/>
        <pt x="412" y="1144" on="0"/>
        <pt x="448" y="1161" on="0"/>
        <pt x="468" y="1161" on="1"/>
        <pt x="499" y="1161" on="0"/>
      </contour>
    </TTGlyph>
    <TTGlyph name="Dcaron" xMin="30" yMin="-371" xMax="1177" yMax="1786">
      <component glyphName="D" x="0" y="0" flags="0x204"/>
      <component glyphName="caron" x="271" y="822" flags="0x4"/>
    </TTGlyph>
    <TTGlyph name="Dcroat" xMin="0" yMin="-371" xMax="1177" yMax="1399">
      <contour>
        <pt x="1177" y="461" on="1"/>
        <pt x="1177" y="360" on="0"/>
        <pt x="1135" y="157" on="0"/>
        <pt x="1053" y="-28" on="0"/>
        <pt x="933" y="-187" on="0"/>
        <pt x="778" y="-304" on="0"/>
        <pt x="587" y="-371" on="0"/>
        <pt x="476" y="-371" on="1"/>
        <pt x="377" y="-371" on="0"/>
        <pt x="220" y="-318" on="0"/>
        <pt x="111" y="-214" on="0"/>
        <pt x="53" y="-62" on="0"/>
        <pt x="53" y="37" on="1"/>
        <pt x="53" y="72" on="0"/>
        <pt x="59" y="142" on="0"/>
        <pt x="67" y="176" on="1"/>
        <pt x="83" y="178" on="1"/>
        <pt x="83" y="164" on="1"/>
        <pt x="82" y="73" on="0"/>
        <pt x="135" y="-100" on="0"/>
        <pt x="240" y="-235" on="0"/>
        <pt x="397" y="-317" on="0"/>
        <pt x="499" y="-317" on="1"/>
        <pt x="600" y="-317" on="0"/>
        <pt x="757" y="-238" on="0"/>
        <pt x="873" y="-106" on="0"/>
        <pt x="952" y="65" on="0"/>
        <pt x="1000" y="250" on="0"/>
        <pt x="1021" y="433" on="0"/>
        <pt x="1021" y="512" on="1"/>
        <pt x="1021" y="590" on="0"/>
        <pt x="992" y="775" on="0"/>
        <pt x="933" y="961" on="0"/>
        <pt x="842" y="1135" on="0"/>
        <pt x="718" y="1269" on="0"/>
        <pt x="559" y="1350" on="0"/>
        <pt x="462" y="1350" on="1"/>
        <pt x="425" y="1350" on="0"/>
        <pt x="347" y="1325" on="0"/>
        <pt x="271" y="1282" on="0"/>
        <pt x="204" y="1224" on="0"/>
        <pt x="154" y="1155" on="0"/>
        <pt x="124" y="1080" on="0"/>
        <pt x="124" y="1042" on="1"/>
        <pt x="124" y="1014" on="0"/>
        <pt x="138" y="970" on="0"/>
        <pt x="155" y="933" on="0"/>
        <pt x="169" y="900" on="0"/>
        <pt x="169" y="883" on="1"/>
        <pt x="169" y="854" on="0"/>
        <pt x="130" y="815" on="0"/>
        <pt x="102" y="815" on="1"/>
        <pt x="79" y="815" on="0"/>
        <pt x="51" y="835" on="0"/>
        <pt x="36" y="866" on="0"/>
        <pt x="30" y="904" on="0"/>
        <pt x="30" y="922" on="1"/>
        <pt x="30" y="965" on="0"/>
        <pt x="54" y="1051" on="0"/>
        <pt x="94" y="1132" on="0"/>
        <pt x="146" y="1205" on="0"/>
        <pt x="173" y="1237" on="1"/>
        <pt x="239" y="1312" on="0"/>
        <pt x="405" y="1399" on="0"/>
        <pt x="507" y="1399" on="1"/>
        <pt x="632" y="1399" on="0"/>
        <pt x="829" y="1317" on="0"/>
        <pt x="978" y="1176" on="0"/>
        <pt x="1082" y="989" on="0"/>
        <pt x="1147" y="781" on="0"/>
        <pt x="1177" y="563" on="0"/>
      </contour>
      <contour>
        <pt x="704" y="484" on="1"/>
        <pt x="684" y="486" on="0"/>
        <pt x="639" y="487" on="0"/>
        <pt x="619" y="487" on="1"/>
        <pt x="556" y="487" on="0"/>
        <pt x="412" y="479" on="0"/>
        <pt x="338" y="471" on="1"/>
        <pt x="330" y="383" on="0"/>
        <pt x="327" y="217" on="0"/>
        <pt x="331" y="55" on="0"/>
        <pt x="340" y="-106" on="0"/>
        <pt x="345" y="-190" on="1"/>
        <pt x="329" y="-197" on="1"/>
        <pt x="304" y="-122" on="0"/>
        <pt x="270" y="42" on="0"/>
        <pt x="249" y="210" on="0"/>
        <pt x="240" y="378" on="0"/>
        <pt x="239" y="459" on="1"/>
        <pt x="194" y="453" on="0"/>
        <pt x="110" y="439" on="0"/>
        <pt x="73" y="431" on="1"/>
        <pt x="68" y="430" on="0"/>
        <pt x="60" y="430" on="0"/>
        <pt x="56" y="430" on="1"/>
        <pt x="29" y="430" on="0"/>
        <pt x="0" y="461" on="0"/>
        <pt x="0" y="478" on="1"/>
        <pt x="0" y="506" on="0"/>
        <pt x="53" y="535" on="0"/>
        <pt x="127" y="547" on="0"/>
        <pt x="206" y="548" on="0"/>
        <pt x="232" y="548" on="1"/>
        <pt x="239" y="548" on="1"/>
        <pt x="240" y="592" on="0"/>
        <pt x="245" y="703" on="0"/>
        <pt x="258" y="820" on="0"/>
        <pt x="279" y="936" on="0"/>
        <pt x="314" y="1037" on="0"/>
        <pt x="362" y="1115" on="0"/>
        <pt x="395" y="1135" on="1"/>
        <pt x="412" y="1144" on="0"/>
        <pt x="448" y="1161" on="0"/>
        <pt x="468" y="1161" on="1"/>
        <pt x="499" y="1161" on="0"/>
        <pt x="499" y="1133" on="1"/>
        <pt x="499" y="1123" on="0"/>
        <pt x="494" y="1106" on="0"/>
        <pt x="491" y="1098" on="1"/>
        <pt x="474" y="1053" on="0"/>
        <pt x="431" y="970" on="0"/>
        <pt x="419" y="924" on="1"/>
        <pt x="392" y="819" on="0"/>
        <pt x="357" y="633" on="0"/>
        <pt x="346" y="546" on="1"/>
        <pt x="393" y="544" on="0"/>
        <pt x="496" y="538" on="0"/>
        <pt x="593" y="528" on="0"/>
        <pt x="680" y="513" on="0"/>
        <pt x="710" y="503" on="1"/>
      </contour>
    </TTGlyph>
    <TTGlyph name="E" xMin="40" yMin="-375" xMax="1091" yMax="1380">
      <contour>
        <pt x="1091" y="1120" on="1"/>
        <pt x="1091" y="1048" on="0"/>
        <pt x="1044" y="935" on="0"/>
        <pt x="964" y="847" on="0"/>
        <pt x="857" y="783" on="0"/>
        <pt x="737" y="739" on="0"/>
        <pt x="610" y="714" on="0"/>
        <pt x="550" y="709" on="1"/>
        <pt x="550" y="727" on="1"/>
        <pt x="616" y="750" on="0"/>
        <pt x="757" y="826" on="0"/>
        <pt x="872" y="929" on="0"/>
        <pt x="947" y="1060" on="0"/>
        <pt x="947" y="1139" on="1"/>
        <pt x="947" y="1225" on="0"/>
        <pt x="853" y="1327" on="0"/>
        <pt x="765" y="1327" on="1"/>
        <pt x="696" y="1327" on="0"/>
        <pt x="560" y="1284" on="0"/>
        <pt x="436" y="1207" on="0"/>
        <pt x="329" y="1103" on="0"/>
        <pt x="251" y="980" on="0"/>
        <pt x="206" y="845" on="0"/>
        <pt x="206" y="776" on="1"/>
        <pt x="206" y="701" on="0"/>
        <pt x="268" y="575" on="0"/>
        <pt x="368" y="477" on="0"/>
        <pt x="496" y="410" on="0"/>
        <pt x="562" y="393" on="1"/>
        <pt x="562" y="375" on="1"/>
        <pt x="530" y="362" on="0"/>
        <pt x="458" y="318" on="0"/>
        <pt x="385" y="260" on="0"/>
        <pt x="318" y="188" on="0"/>
        <pt x="266" y="108" on="0"/>
        <pt x="235" y="21" on="0"/>
        <pt x="235" y="-24" on="1"/>
        <pt x="235" y="-140" on="0"/>
        <pt x="350" y="-260" on="0"/>
        <pt x="466" y="-260" on="1"/>
        <pt x="531" y="-260" on="0"/>
        <pt x="650" y="-225" on="0"/>
        <pt x="753" y="-160" on="0"/>
        <pt x="839" y="-68" on="0"/>
        <pt x="871" y="-12" on="1"/>
        <pt x="884" y="-18" on="1"/>
        <pt x="857" y="-90" on="0"/>
        <pt x="755" y="-220" on="0"/>
        <pt x="621" y="-318" on="0"/>
        <pt x="462" y="-375" on="0"/>
        <pt x="378" y="-375" on="1"/>
        <pt x="313" y="-375" on="0"/>
        <pt x="203" y="-337" on="0"/>
        <pt x="123" y="-263" on="0"/>
        <pt x="77" y="-154" on="0"/>
        <pt x="77" y="-82" on="1"/>
        <pt x="77" y="61" on="0"/>
        <pt x="247" y="278" on="0"/>
        <pt x="415" y="350" on="1"/>
        <pt x="331" y="350" on="0"/>
        <pt x="193" y="404" on="0"/>
        <pt x="94" y="503" on="0"/>
        <pt x="40" y="641" on="0"/>
        <pt x="40" y="725" on="1"/>
        <pt x="40" y="807" on="0"/>
        <pt x="100" y="967" on="0"/>
        <pt x="205" y="1113" on="0"/>
        <pt x="346" y="1237" on="0"/>
        <pt x="509" y="1328" on="0"/>
        <pt x="686" y="1380" on="0"/>
        <pt x="773" y="1380" on="1"/>
        <pt x="837" y="1380" on="0"/>
        <pt x="953" y="1353" on="0"/>
        <pt x="1040" y="1292" on="0"/>
        <pt x="1091" y="1192" on="0"/>
      </contour>
    </TTGlyph>
    <TTGlyph name="Eacute" xMin="40" yMin="-375" xMax="1091" yMax="1776">
      <component glyphName="E" x="0" y="0" flags="0x204"/>
      <component glyphName="acute" x="545" y="802" flags="0x4"/>
    </TTGlyph>
    <TTGlyph name="Ebreve" xMin="40" yMin="-375" xMax="1091" yMax="1701">
      <component glyphName="E" x="0" y="0" flags="0x204"/>
      <component glyphName="breve" x="507" y="802" flags="0x4"/>
    </TTGlyph>
    <TTGlyph name="Ecaron" xMin="40" yMin="-375" xMax="1091" yMax="1766">
      <component glyphName="E" x="0" y="0" flags="0x204"/>
      <component glyphName="caron" x="508" y="802" flags="0x4"/>
    </TTGlyph>
    <TTGlyph name="Ecircumflex" xMin="40" yMin="-375" xMax="1091" yMax="1766">
      <component glyphName="E" x="0" y="0" flags="0x204"/>
      <component glyphName="circumflex" x="508" y="802" flags="0x4"/>
    </TTGlyph>
    <TTGlyph name="Edieresis" xMin="40" yMin="-375" xMax="1091" yMax="1676">
      <component glyphName="E" x="0" y="0" flags="0x204"/>
      <component glyphName="dieresis" x="508" y="802" flags="0x4"/>
    </TTGlyph>
    <TTGlyph name="Edotaccent" xMin="40" yMin="-375" xMax="1091" yMax="1676">
      <component glyphName="E" x="0" y="0" flags="0x204"/>
      <component glyphName="dotaccent" x="509" y="802" flags="0x4"/>
    </TTGlyph>
    <TTGlyph name="Egrave" xMin="40" yMin="-375" xMax="1091" yMax="1776">
      <component glyphName="E" x="0" y="0" flags="0x204"/>
      <component glyphName="grave" x="461" y="802" flags="0x4"/>
    </TTGlyph>
    <TTGlyph name="Emacron" xMin="40" yMin="-375" xMax="1091" yMax="1633">
      <component glyphName="E" x="0" y="0" flags="0x204"/>
      <component glyphName="macron" x="508" y="802" flags="0x4"/>
    </TTGlyph>
    <TTGlyph name="Eng" xMin="150" yMin="-773" xMax="1047" yMax="1364">
      <contour>
        <pt x="767" y="671" on="1"/>
        <pt x="767" y="777" on="0"/>
        <pt x="779" y="970" on="0"/>
        <pt x="788" y="1055" on="1"/>
        <pt x="730" y="981" on="0"/>
        <pt x="626" y="773" on="0"/>
        <pt x="537" y="535" on="0"/>
        <pt x="461" y="284" on="0"/>
        <pt x="400" y="46" on="0"/>
        <pt x="353" y="-162" on="0"/>
        <pt x="337" y="-236" on="1"/>
        <pt x="335" y="-244" on="0"/>
        <pt x="330" y="-270" on="0"/>
        <pt x="319" y="-294" on="0"/>
        <pt x="301" y="-311" on="0"/>
        <pt x="288" y="-311" on="1"/>
        <pt x="276" y="-311" on="0"/>
        <pt x="254" y="-296" on="0"/>
        <pt x="236" y="-275" on="0"/>
        <pt x="223" y="-250" on="0"/>
        <pt x="220" y="-239" on="1"/>
        <pt x="190" y="-142" on="0"/>
        <pt x="161" y="81" on="0"/>
        <pt x="150" y="310" on="0"/>
        <pt x="151" y="536" on="0"/>
        <pt x="151" y="637" on="1"/>
        <pt x="151" y="749" on="0"/>
        <pt x="157" y="973" on="0"/>
        <pt x="165" y="1085" on="1"/>
        <pt x="168" y="1125" on="0"/>
        <pt x="179" y="1223" on="0"/>
        <pt x="213" y="1307" on="0"/>
        <pt x="277" y="1364" on="0"/>
        <pt x="333" y="1364" on="1"/>
        <pt x="347" y="1364" on="0"/>
        <pt x="366" y="1351" on="0"/>
        <pt x="366" y="1335" on="1"/>
        <pt x="366" y="1327" on="1"/>
        <pt x="353" y="1208" on="0"/>
        <pt x="331" y="979" on="0"/>
        <pt x="314" y="751" on="0"/>
        <pt x="305" y="520" on="0"/>
        <pt x="305" y="399" on="1"/>
        <pt x="305" y="281" on="0"/>
        <pt x="315" y="44" on="0"/>
        <pt x="327" y="-74" on="1"/>
        <pt x="364" y="96" on="0"/>
        <pt x="445" y="420" on="0"/>
        <pt x="549" y="731" on="0"/>
        <pt x="685" y="1027" on="0"/>
        <pt x="776" y="1169" on="1"/>
        <pt x="784" y="1182" on="0"/>
        <pt x="809" y="1217" on="0"/>
        <pt x="840" y="1248" on="0"/>
        <pt x="874" y="1270" on="0"/>
        <pt x="892" y="1270" on="1"/>
        <pt x="914" y="1270" on="0"/>
        <pt x="939" y="1230" on="0"/>
        <pt x="950" y="1177" on="0"/>
        <pt x="952" y="1123" on="0"/>
        <pt x="952" y="1108" on="1"/>
        <pt x="945" y="1019" on="0"/>
        <pt x="924" y="802" on="0"/>
        <pt x="924" y="682" on="1"/>
        <pt x="924" y="552" on="0"/>
        <pt x="942" y="338" on="0"/>
        <pt x="970" y="160" on="0"/>
        <pt x="1001" y="11" on="0"/>
        <pt x="1029" y="-119" on="0"/>
        <pt x="1047" y="-237" on="0"/>
        <pt x="1047" y="-294" on="1"/>
        <pt x="1047" y="-372" on="0"/>
        <pt x="1006" y="-532" on="0"/>
        <pt x="923" y="-665" on="0"/>
        <pt x="797" y="-757" on="0"/>
        <pt x="711" y="-769" on="1"/>
        <pt x="702" y="-771" on="0"/>
        <pt x="686" y="-773" on="0"/>
        <pt x="676" y="-773" on="1"/>
        <pt x="621" y="-773" on="0"/>
        <pt x="523" y="-729" on="0"/>
        <pt x="450" y="-654" on="0"/>
        <pt x="408" y="-555" on="0"/>
        <pt x="408" y="-501" on="1"/>
        <pt x="408" y="-441" on="0"/>
        <pt x="457" y="-331" on="0"/>
        <pt x="537" y="-238" on="0"/>
        <pt x="638" y="-167" on="0"/>
        <pt x="691" y="-146" on="1"/>
        <pt x="697" y="-159" on="1"/>
        <pt x="600" y="-211" on="0"/>
        <pt x="494" y="-393" on="0"/>
        <pt x="494" y="-503" on="1"/>
        <pt x="494" y="-548" on="0"/>
        <pt x="519" y="-633" on="0"/>
        <pt x="569" y="-697" on="0"/>
        <pt x="644" y="-736" on="0"/>
        <pt x="693" y="-736" on="1"/>
        <pt x="760" y="-736" on="0"/>
        <pt x="851" y="-662" on="0"/>
        <pt x="905" y="-550" on="0"/>
        <pt x="928" y="-419" on="0"/>
        <pt x="928" y="-363" on="1"/>
        <pt x="928" y="-313" on="0"/>
        <pt x="904" y="-194" on="0"/>
        <pt x="868" y="-53" on="0"/>
        <pt x="827" y="112" on="0"/>
        <pt x="791" y="309" on="0"/>
        <pt x="767" y="537" on="0"/>
      </contour>
    </TTGlyph>
    <TTGlyph name="Eogonek" xMin="40" yMin="-607" xMax="1091" yMax="1380">
      <contour>
        <pt x="1091" y="1120" on="1"/>
        <pt x="1091" y="1048" on="0"/>
        <pt x="1044" y="935" on="0"/>
        <pt x="964" y="847" on="0"/>
        <pt x="857" y="783" on="0"/>
        <pt x="737" y="739" on="0"/>
        <pt x="610" y="714" on="0"/>
        <pt x="550" y="709" on="1"/>
        <pt x="550" y="727" on="1"/>
        <pt x="616" y="750" on="0"/>
        <pt x="757" y="826" on="0"/>
        <pt x="872" y="929" on="0"/>
        <pt x="947" y="1060" on="0"/>
        <pt x="947" y="1139" on="1"/>
        <pt x="947" y="1225" on="0"/>
        <pt x="853" y="1327" on="0"/>
        <pt x="765" y="1327" on="1"/>
        <pt x="696" y="1327" on="0"/>
        <pt x="560" y="1284" on="0"/>
        <pt x="436" y="1207" on="0"/>
        <pt x="329" y="1103" on="0"/>
        <pt x="251" y="980" on="0"/>
        <pt x="206" y="845" on="0"/>
        <pt x="206" y="776" on="1"/>
        <pt x="206" y="701" on="0"/>
        <pt x="268" y="575" on="0"/>
        <pt x="368" y="477" on="0"/>
        <pt x="496" y="410" on="0"/>
        <pt x="562" y="393" on="1"/>
        <pt x="562" y="375" on="1"/>
        <pt x="530" y="362" on="0"/>
        <pt x="458" y="318" on="0"/>
        <pt x="385" y="260" on="0"/>
        <pt x="318" y="188" on="0"/>
        <pt x="266" y="108" on="0"/>
        <pt x="235" y="21" on="0"/>
        <pt x="235" y="-24" on="1"/>
        <pt x="235" y="-140" on="0"/>
        <pt x="350" y="-260" on="0"/>
        <pt x="466" y="-260" on="1"/>
        <pt x="531" y="-260" on="0"/>
        <pt x="650" y="-225" on="0"/>
        <pt x="753" y="-160" on="0"/>
        <pt x="839" y="-68" on="0"/>
        <pt x="871" y="-12" on="1"/>
        <pt x="884" y="-18" on="1"/>
        <pt x="851" y="-104" on="0"/>
        <pt x="723" y="-238" on="0"/>
        <pt x="632" y="-304" on="1"/>
        <pt x="606" y="-323" on="0"/>
        <pt x="576" y="-365" on="0"/>
        <pt x="561" y="-404" on="0"/>
        <pt x="557" y="-440" on="0"/>
        <pt x="557" y="-453" on="1"/>
        <pt x="557" y="-469" on="0"/>
        <pt x="567" y="-499" on="0"/>
        <pt x="587" y="-523" on="0"/>
        <pt x="618" y="-538" on="0"/>
        <pt x="639" y="-538" on="1"/>
        <pt x="659" y="-538" on="0"/>
        <pt x="709" y="-518" on="0"/>
        <pt x="741" y="-489" on="1"/>
        <pt x="755" y="-500" on="1"/>
        <pt x="745" y="-520" on="0"/>
        <pt x="714" y="-558" on="0"/>
        <pt x="674" y="-588" on="0"/>
        <pt x="626" y="-607" on="0"/>
        <pt x="599" y="-607" on="1"/>
        <pt x="576" y="-607" on="0"/>
        <pt x="529" y="-593" on="0"/>
        <pt x="490" y="-564" on="0"/>
        <pt x="465" y="-520" on="0"/>
        <pt x="465" y="-490" on="1"/>
        <pt x="465" y="-448" on="0"/>
        <pt x="526" y="-365" on="0"/>
        <pt x="569" y="-333" on="1"/>
        <pt x="518" y="-359" on="0"/>
        <pt x="420" y="-375" on="0"/>
        <pt x="378" y="-375" on="1"/>
        <pt x="313" y="-375" on="0"/>
        <pt x="203" y="-337" on="0"/>
        <pt x="123" y="-263" on="0"/>
        <pt x="77" y="-154" on="0"/>
        <pt x="77" y="-82" on="1"/>
        <pt x="77" y="61" on="0"/>
        <pt x="247" y="278" on="0"/>
        <pt x="415" y="350" on="1"/>
        <pt x="331" y="350" on="0"/>
        <pt x="193" y="404" on="0"/>
        <pt x="94" y="503" on="0"/>
        <pt x="40" y="641" on="0"/>
        <pt x="40" y="725" on="1"/>
        <pt x="40" y="807" on="0"/>
        <pt x="100" y="967" on="0"/>
        <pt x="205" y="1113" on="0"/>
        <pt x="346" y="1237" on="0"/>
        <pt x="509" y="1328" on="0"/>
        <pt x="686" y="1380" on="0"/>
        <pt x="773" y="1380" on="1"/>
        <pt x="837" y="1380" on="0"/>
        <pt x="953" y="1353" on="0"/>
        <pt x="1040" y="1292" on="0"/>
        <pt x="1091" y="1192" on="0"/>
      </contour>
    </TTGlyph>
    <TTGlyph name="Eth" xMin="0" yMin="-371" xMax="1177" yMax="1399">
      <contour>
        <pt x="1177" y="461" on="1"/>
        <pt x="1177" y="360" on="0"/>
        <pt x="1135" y="157" on="0"/>
        <pt x="1053" y="-28" on="0"/>
        <pt x="933" y="-187" on="0"/>
        <pt x="778" y="-304" on="0"/>
        <pt x="587" y="-371" on="0"/>
        <pt x="476" y="-371" on="1"/>
        <pt x="377" y="-371" on="0"/>
        <pt x="220" y="-318" on="0"/>
        <pt x="111" y="-214" on="0"/>
        <pt x="53" y="-62" on="0"/>
        <pt x="53" y="37" on="1"/>
        <pt x="53" y="72" on="0"/>
        <pt x="59" y="142" on="0"/>
        <pt x="67" y="176" on="1"/>
        <pt x="83" y="178" on="1"/>
        <pt x="83" y="164" on="1"/>
        <pt x="82" y="73" on="0"/>
        <pt x="135" y="-100" on="0"/>
        <pt x="240" y="-235" on="0"/>
        <pt x="397" y="-317" on="0"/>
        <pt x="499" y="-317" on="1"/>
        <pt x="600" y="-317" on="0"/>
        <pt x="757" y="-238" on="0"/>
        <pt x="873" y="-106" on="0"/>
        <pt x="952" y="65" on="0"/>
        <pt x="1000" y="250" on="0"/>
        <pt x="1021" y="433" on="0"/>
        <pt x="1021" y="512" on="1"/>
        <pt x="1021" y="590" on="0"/>
        <pt x="992" y="775" on="0"/>
        <pt x="933" y="961" on="0"/>
        <pt x="842" y="1135" on="0"/>
        <pt x="718" y="1269" on="0"/>
        <pt x="559" y="1350" on="0"/>
        <pt x="462" y="1350" on="1"/>
        <pt x="425" y="1350" on="0"/>
        <pt x="347" y="1325" on="0"/>
        <pt x="271" y="1282" on="0"/>
        <pt x="204" y="1224" on="0"/>
        <pt x="154" y="1155" on="0"/>
        <pt x="124" y="1080" on="0"/>
        <pt x="124" y="1042" on="1"/>
        <pt x="124" y="1014" on="0"/>
        <pt x="138" y="970" on="0"/>
        <pt x="155" y="933" on="0"/>
        <pt x="169" y="900" on="0"/>
        <pt x="169" y="883" on="1"/>
        <pt x="169" y="854" on="0"/>
        <pt x="130" y="815" on="0"/>
        <pt x="102" y="815" on="1"/>
        <pt x="79" y="815" on="0"/>
        <pt x="51" y="835" on="0"/>
        <pt x="36" y="866" on="0"/>
        <pt x="30" y="904" on="0"/>
        <pt x="30" y="922" on="1"/>
        <pt x="30" y="965" on="0"/>
        <pt x="54" y="1051" on="0"/>
        <pt x="94" y="1132" on="0"/>
        <pt x="146" y="1205" on="0"/>
        <pt x="173" y="1237" on="1"/>
        <pt x="239" y="1312" on="0"/>
        <pt x="405" y="1399" on="0"/>
        <pt x="507" y="1399" on="1"/>
        <pt x="632" y="1399" on="0"/>
        <pt x="829" y="1317" on="0"/>
        <pt x="978" y="1176" on="0"/>
        <pt x="1082" y="989" on="0"/>
        <pt x="1147" y="781" on="0"/>
        <pt x="1177" y="563" on="0"/>
      </contour>
      <contour>
        <pt x="704" y="484" on="1"/>
        <pt x="684" y="486" on="0"/>
        <pt x="639" y="487" on="0"/>
        <pt x="619" y="487" on="1"/>
        <pt x="556" y="487" on="0"/>
        <pt x="412" y="479" on="0"/>
        <pt x="338" y="471" on="1"/>
        <pt x="330" y="383" on="0"/>
        <pt x="327" y="217" on="0"/>
        <pt x="331" y="55" on="0"/>
        <pt x="340" y="-106" on="0"/>
        <pt x="345" y="-190" on="1"/>
        <pt x="329" y="-197" on="1"/>
        <pt x="304" y="-122" on="0"/>
        <pt x="270" y="42" on="0"/>
        <pt x="249" y="210" on="0"/>
        <pt x="240" y="378" on="0"/>
        <pt x="239" y="459" on="1"/>
        <pt x="194" y="453" on="0"/>
        <pt x="110" y="439" on="0"/>
        <pt x="73" y="431" on="1"/>
        <pt x="68" y="430" on="0"/>
        <pt x="60" y="430" on="0"/>
        <pt x="56" y="430" on="1"/>
        <pt x="29" y="430" on="0"/>
        <pt x="0" y="461" on="0"/>
        <pt x="0" y="478" on="1"/>
        <pt x="0" y="506" on="0"/>
        <pt x="53" y="535" on="0"/>
        <pt x="127" y="547" on="0"/>
        <pt x="206" y="548" on="0"/>
        <pt x="232" y="548" on="1"/>
        <pt x="239" y="548" on="1"/>
        <pt x="240" y="592" on="0"/>
        <pt x="245" y="703" on="0"/>
        <pt x="258" y="820" on="0"/>
        <pt x="279" y="936" on="0"/>
        <pt x="314" y="1037" on="0"/>
        <pt x="362" y="1115" on="0"/>
        <pt x="395" y="1135" on="1"/>
        <pt x="412" y="1144" on="0"/>
        <pt x="448" y="1161" on="0"/>
        <pt x="468" y="1161" on="1"/>
        <pt x="499" y="1161" on="0"/>
        <pt x="499" y="1133" on="1"/>
        <pt x="499" y="1123" on="0"/>
        <pt x="494" y="1106" on="0"/>
        <pt x="491" y="1098" on="1"/>
        <pt x="474" y="1053" on="0"/>
        <pt x="431" y="970" on="0"/>
        <pt x="419" y="924" on="1"/>
        <pt x="392" y="819" on="0"/>
        <pt x="357" y="633" on="0"/>
        <pt x="346" y="546" on="1"/>
        <pt x="393" y="544" on="0"/>
        <pt x="496" y="538" on="0"/>
        <pt x="593" y="528" on="0"/>
        <pt x="680" y="513" on="0"/>
        <pt x="710" y="503" on="1"/>
      </contour>
    </TTGlyph>
    <TTGlyph name="Euro" xMin="0" yMin="-24" xMax="1011" yMax="1308">
      <contour>
        <pt x="559" y="450" on="1"/>
        <pt x="544" y="452" on="0"/>
        <pt x="511" y="453" on="0"/>
        <pt x="496" y="453" on="1"/>
        <pt x="454" y="453" on="0"/>
        <pt x="349" y="446" on="0"/>
        <pt x="292" y="439" on="1"/>
        <pt x="300" y="367" on="0"/>
        <pt x="343" y="234" on="0"/>
        <pt x="418" y="132" on="0"/>
        <pt x="528" y="71" on="0"/>
        <pt x="604" y="71" on="1"/>
        <pt x="645" y="71" on="0"/>
        <pt x="726" y="99" on="0"/>
        <pt x="796" y="145" on="0"/>
        <pt x="854" y="207" on="0"/>
        <pt x="873" y="240" on="1"/>
        <pt x="888" y="232" on="1"/>
        <pt x="870" y="184" on="0"/>
        <pt x="807" y="92" on="0"/>
        <pt x="722" y="20" on="0"/>
        <pt x="616" y="-24" on="0"/>
        <pt x="555" y="-24" on="1"/>
        <pt x="462" y="-24" on="0"/>
        <pt x="320" y="49" on="0"/>
        <pt x="223" y="172" on="0"/>
        <pt x="167" y="333" on="0"/>
        <pt x="160" y="420" on="1"/>
        <pt x="98" y="409" on="0"/>
        <pt x="54" y="396" on="1"/>
        <pt x="49" y="395" on="0"/>
        <pt x="41" y="395" on="1"/>
        <pt x="21" y="395" on="0"/>
        <pt x="0" y="427" on="0"/>
        <pt x="0" y="444" on="1"/>
        <pt x="0" y="470" on="0"/>
        <pt x="33" y="499" on="0"/>
        <pt x="82" y="513" on="0"/>
        <pt x="136" y="516" on="0"/>
        <pt x="157" y="516" on="1"/>
        <pt x="158" y="558" on="0"/>
        <pt x="163" y="602" on="1"/>
        <pt x="144" y="599" on="0"/>
        <pt x="110" y="592" on="0"/>
        <pt x="93" y="589" on="1"/>
        <pt x="88" y="588" on="0"/>
        <pt x="80" y="588" on="0"/>
        <pt x="76" y="588" on="1"/>
        <pt x="49" y="588" on="0"/>
        <pt x="20" y="619" on="0"/>
        <pt x="20" y="636" on="1"/>
        <pt x="20" y="656" on="0"/>
        <pt x="49" y="682" on="0"/>
        <pt x="95" y="697" on="0"/>
        <pt x="152" y="704" on="0"/>
        <pt x="179" y="705" on="1"/>
        <pt x="204" y="825" on="0"/>
        <pt x="304" y="1043" on="0"/>
        <pt x="451" y="1210" on="0"/>
        <pt x="640" y="1308" on="0"/>
        <pt x="753" y="1308" on="1"/>
        <pt x="811" y="1308" on="0"/>
        <pt x="906" y="1277" on="0"/>
        <pt x="974" y="1219" on="0"/>
        <pt x="1011" y="1135" on="0"/>
        <pt x="1011" y="1082" on="1"/>
        <pt x="1011" y="1027" on="0"/>
        <pt x="970" y="938" on="0"/>
        <pt x="900" y="868" on="0"/>
        <pt x="808" y="816" on="0"/>
        <pt x="707" y="783" on="0"/>
        <pt x="602" y="767" on="0"/>
        <pt x="554" y="767" on="1"/>
        <pt x="549" y="767" on="1"/>
        <pt x="549" y="787" on="1"/>
        <pt x="618" y="795" on="0"/>
        <pt x="745" y="840" on="0"/>
        <pt x="841" y="917" on="0"/>
        <pt x="899" y="1026" on="0"/>
        <pt x="899" y="1098" on="1"/>
        <pt x="899" y="1176" on="0"/>
        <pt x="815" y="1268" on="0"/>
        <pt x="745" y="1268" on="1"/>
        <pt x="644" y="1268" on="0"/>
        <pt x="492" y="1166" on="0"/>
        <pt x="383" y="1004" on="0"/>
        <pt x="315" y="804" on="0"/>
        <pt x="300" y="705" on="1"/>
        <pt x="349" y="704" on="0"/>
        <pt x="469" y="699" on="0"/>
        <pt x="588" y="689" on="0"/>
        <pt x="694" y="673" on="0"/>
        <pt x="730" y="661" on="1"/>
        <pt x="724" y="642" on="1"/>
        <pt x="704" y="644" on="0"/>
        <pt x="659" y="645" on="0"/>
        <pt x="639" y="645" on="1"/>
        <pt x="562" y="645" on="0"/>
        <pt x="381" y="632" on="0"/>
        <pt x="290" y="621" on="1"/>
        <pt x="287" y="577" on="0"/>
        <pt x="287" y="539" on="1"/>
        <pt x="287" y="512" on="1"/>
        <pt x="325" y="509" on="0"/>
        <pt x="407" y="501" on="0"/>
        <pt x="483" y="490" on="0"/>
        <pt x="547" y="475" on="0"/>
        <pt x="567" y="466" on="1"/>
      </contour>
    </TTGlyph>
    <TTGlyph name="F" xMin="0" yMin="-346" xMax="1317" yMax="1380">
      <contour>
        <pt x="590" y="1059" on="1"/>
        <pt x="590" y="1051" on="0"/>
        <pt x="585" y="1036" on="0"/>
        <pt x="582" y="1030" on="1"/>
        <pt x="572" y="1004" on="0"/>
        <pt x="550" y="954" on="0"/>
        <pt x="541" y="928" on="1"/>
        <pt x="505" y="815" on="0"/>
        <pt x="466" y="536" on="0"/>
        <pt x="461" y="384" on="1"/>
        <pt x="484" y="382" on="0"/>
        <pt x="528" y="379" on="0"/>
        <pt x="551" y="379" on="1"/>
        <pt x="597" y="379" on="0"/>
        <pt x="703" y="387" on="0"/>
        <pt x="805" y="400" on="0"/>
        <pt x="894" y="418" on="0"/>
        <pt x="924" y="428" on="1"/>
        <pt x="936" y="416" on="1"/>
        <pt x="846" y="360" on="0"/>
        <pt x="602" y="300" on="0"/>
        <pt x="459" y="289" on="1"/>
        <pt x="457" y="124" on="0"/>
        <pt x="479" y="-197" on="0"/>
        <pt x="500" y="-338" on="1"/>
        <pt x="483" y="-346" on="1"/>
        <pt x="454" y="-280" on="0"/>
        <pt x="412" y="-128" on="0"/>
        <pt x="381" y="34" on="0"/>
        <pt x="362" y="202" on="0"/>
        <pt x="356" y="284" on="1"/>
        <pt x="336" y="283" on="0"/>
        <pt x="295" y="283" on="0"/>
        <pt x="274" y="283" on="1"/>
        <pt x="256" y="283" on="0"/>
        <pt x="209" y="286" on="0"/>
        <pt x="167" y="299" on="0"/>
        <pt x="139" y="328" on="0"/>
        <pt x="139" y="354" on="1"/>
        <pt x="139" y="371" on="0"/>
        <pt x="156" y="394" on="0"/>
        <pt x="181" y="409" on="0"/>
        <pt x="212" y="416" on="0"/>
        <pt x="227" y="416" on="1"/>
        <pt x="235" y="416" on="0"/>
        <pt x="250" y="414" on="0"/>
        <pt x="258" y="412" on="1"/>
        <pt x="281" y="409" on="0"/>
        <pt x="327" y="402" on="0"/>
        <pt x="350" y="399" on="1"/>
        <pt x="348" y="437" on="0"/>
        <pt x="348" y="512" on="0"/>
        <pt x="348" y="547" on="1"/>
        <pt x="348" y="581" on="0"/>
        <pt x="350" y="672" on="0"/>
        <pt x="359" y="774" on="0"/>
        <pt x="376" y="877" on="0"/>
        <pt x="406" y="969" on="0"/>
        <pt x="452" y="1041" on="0"/>
        <pt x="485" y="1061" on="1"/>
        <pt x="502" y="1070" on="0"/>
        <pt x="541" y="1087" on="0"/>
        <pt x="559" y="1087" on="1"/>
        <pt x="590" y="1087" on="0"/>
      </contour>
      <contour>
        <pt x="1317" y="1354" on="1"/>
        <pt x="1244" y="1298" on="0"/>
        <pt x="1050" y="1217" on="0"/>
        <pt x="838" y="1163" on="0"/>
        <pt x="626" y="1137" on="0"/>
        <pt x="535" y="1137" on="1"/>
        <pt x="507" y="1137" on="0"/>
        <pt x="421" y="1143" on="0"/>
        <pt x="322" y="1155" on="0"/>
        <pt x="218" y="1176" on="0"/>
        <pt x="125" y="1205" on="0"/>
        <pt x="53" y="1245" on="0"/>
        <pt x="35" y="1270" on="1"/>
        <pt x="24" y="1287" on="0"/>
        <pt x="0" y="1330" on="0"/>
        <pt x="0" y="1352" on="1"/>
        <pt x="0" y="1380" on="0"/>
        <pt x="31" y="1380" on="1"/>
        <pt x="39" y="1380" on="0"/>
        <pt x="51" y="1378" on="0"/>
        <pt x="59" y="1376" on="1"/>
        <pt x="97" y="1364" on="0"/>
        <pt x="166" y="1338" on="0"/>
        <pt x="203" y="1327" on="1"/>
        <pt x="324" y="1299" on="0"/>
        <pt x="569" y="1272" on="0"/>
        <pt x="694" y="1272" on="1"/>
        <pt x="846" y="1272" on="0"/>
        <pt x="1166" y="1318" on="0"/>
        <pt x="1309" y="1372" on="1"/>
      </contour>
    </TTGlyph>
    <TTGlyph name="G" xMin="65" yMin="-346" xMax="1228" yMax="1380">
      <contour>
        <pt x="1217" y="258" on="1"/>
        <pt x="1203" y="258" on="0"/>
        <pt x="1176" y="260" on="0"/>
        <pt x="1162" y="260" on="1"/>
        <pt x="1124" y="260" on="0"/>
        <pt x="1022" y="252" on="0"/>
        <pt x="963" y="245" on="1"/>
        <pt x="986" y="164" on="0"/>
        <pt x="986" y="84" on="1"/>
        <pt x="986" y="-5" on="0"/>
        <pt x="926" y="-161" on="0"/>
        <pt x="818" y="-278" on="0"/>
        <pt x="667" y="-346" on="0"/>
        <pt x="576" y="-346" on="1"/>
        <pt x="485" y="-346" on="0"/>
        <pt x="338" y="-290" on="0"/>
        <pt x="224" y="-192" on="0"/>
        <pt x="142" y="-60" on="0"/>
        <pt x="90" y="90" on="0"/>
        <pt x="65" y="252" on="0"/>
        <pt x="65" y="331" on="1"/>
        <pt x="65" y="440" on="0"/>
        <pt x="112" y="680" on="0"/>
        <pt x="202" y="913" on="0"/>
        <pt x="334" y="1124" on="0"/>
        <pt x="505" y="1285" on="0"/>
        <pt x="714" y="1380" on="0"/>
        <pt x="836" y="1380" on="1"/>
        <pt x="904" y="1380" on="0"/>
        <pt x="1022" y="1348" on="0"/>
        <pt x="1110" y="1281" on="0"/>
        <pt x="1160" y="1177" on="0"/>
        <pt x="1160" y="1104" on="1"/>
        <pt x="1160" y="1049" on="0"/>
        <pt x="1123" y="948" on="0"/>
        <pt x="1058" y="861" on="0"/>
        <pt x="971" y="791" on="0"/>
        <pt x="872" y="742" on="0"/>
        <pt x="767" y="716" on="0"/>
        <pt x="716" y="717" on="1"/>
        <pt x="701" y="717" on="1"/>
        <pt x="701" y="737" on="1"/>
        <pt x="766" y="750" on="0"/>
        <pt x="883" y="819" on="0"/>
        <pt x="970" y="918" on="0"/>
        <pt x="1021" y="1042" on="0"/>
        <pt x="1021" y="1110" on="1"/>
        <pt x="1021" y="1211" on="0"/>
        <pt x="918" y="1331" on="0"/>
        <pt x="814" y="1331" on="1"/>
        <pt x="706" y="1331" on="0"/>
        <pt x="534" y="1239" on="0"/>
        <pt x="401" y="1087" on="0"/>
        <pt x="305" y="889" on="0"/>
        <pt x="244" y="677" on="0"/>
        <pt x="215" y="466" on="0"/>
        <pt x="215" y="377" on="1"/>
        <pt x="215" y="309" on="0"/>
        <pt x="233" y="164" on="0"/>
        <pt x="272" y="26" on="0"/>
        <pt x="336" y="-97" on="0"/>
        <pt x="429" y="-190" on="0"/>
        <pt x="552" y="-244" on="0"/>
        <pt x="632" y="-244" on="1"/>
        <pt x="693" y="-244" on="0"/>
        <pt x="803" y="-201" on="0"/>
        <pt x="886" y="-124" on="0"/>
        <pt x="935" y="-18" on="0"/>
        <pt x="935" y="45" on="1"/>
        <pt x="935" y="96" on="0"/>
        <pt x="901" y="192" on="0"/>
        <pt x="871" y="232" on="1"/>
        <pt x="818" y="224" on="0"/>
        <pt x="714" y="204" on="0"/>
        <pt x="619" y="181" on="0"/>
        <pt x="538" y="156" on="0"/>
        <pt x="509" y="143" on="1"/>
        <pt x="500" y="137" on="0"/>
        <pt x="490" y="137" on="1"/>
        <pt x="476" y="137" on="0"/>
        <pt x="468" y="161" on="0"/>
        <pt x="468" y="172" on="1"/>
        <pt x="468" y="190" on="0"/>
        <pt x="481" y="235" on="0"/>
        <pt x="505" y="276" on="0"/>
        <pt x="537" y="308" on="0"/>
        <pt x="556" y="313" on="1"/>
        <pt x="583" y="321" on="0"/>
        <pt x="642" y="329" on="0"/>
        <pt x="702" y="332" on="0"/>
        <pt x="762" y="332" on="0"/>
        <pt x="789" y="332" on="1"/>
        <pt x="831" y="332" on="0"/>
        <pt x="953" y="327" on="0"/>
        <pt x="1081" y="314" on="0"/>
        <pt x="1195" y="291" on="0"/>
        <pt x="1228" y="272" on="1"/>
      </contour>
    </TTGlyph>
    <TTGlyph name="Gbreve" xMin="65" yMin="-346" xMax="1228" yMax="1701">
      <component glyphName="G" x="0" y="0" flags="0x204"/>
      <component glyphName="breve" x="568" y="802" flags="0x4"/>
    </TTGlyph>
    <TTGlyph name="Gcircumflex" xMin="65" yMin="-346" xMax="1228" yMax="1766">
      <component glyphName="G" x="0" y="0" flags="0x204"/>
      <component glyphName="circumflex" x="569" y="802" flags="0x4"/>
    </TTGlyph>
    <TTGlyph name="Gcommaaccent" xMin="65" yMin="-669" xMax="1228" yMax="1380">
      <component glyphName="G" x="0" y="0" flags="0x204"/>
      <component glyphName="commaaccent" x="341" y="-289" flags="0x4"/>
    </TTGlyph>
    <TTGlyph name="Gdotaccent" xMin="65" yMin="-346" xMax="1228" yMax="1676">
      <component glyphName="G" x="0" y="0" flags="0x204"/>
      <component glyphName="dotaccent" x="570" y="802" flags="0x4"/>
    </TTGlyph>
    <TTGlyph name="H" xMin="0" yMin="-342" xMax="1212" yMax="1378">
      <contour>
        <pt x="451" y="1343" on="1"/>
        <pt x="451" y="1334" on="0"/>
        <pt x="445" y="1318" on="0"/>
        <pt x="442" y="1309" on="1"/>
        <pt x="427" y="1264" on="0"/>
        <pt x="392" y="1178" on="0"/>
        <pt x="379" y="1133" on="1"/>
        <pt x="356" y="1054" on="0"/>
        <pt x="328" y="841" on="0"/>
        <pt x="312" y="600" on="0"/>
        <pt x="308" y="345" on="0"/>
        <pt x="311" y="223" on="1"/>
        <pt x="392" y="208" on="0"/>
        <pt x="569" y="185" on="0"/>
        <pt x="737" y="169" on="0"/>
        <pt x="886" y="160" on="0"/>
        <pt x="940" y="160" on="1"/>
        <pt x="979" y="160" on="1"/>
        <pt x="960" y="312" on="0"/>
        <pt x="946" y="612" on="0"/>
        <pt x="946" y="743" on="1"/>
        <pt x="946" y="781" on="0"/>
        <pt x="948" y="887" on="0"/>
        <pt x="958" y="1006" on="0"/>
        <pt x="977" y="1129" on="0"/>
        <pt x="1011" y="1238" on="0"/>
        <pt x="1061" y="1325" on="0"/>
        <pt x="1098" y="1348" on="1"/>
        <pt x="1116" y="1359" on="0"/>
        <pt x="1158" y="1378" on="0"/>
        <pt x="1180" y="1378" on="1"/>
        <pt x="1212" y="1378" on="0"/>
        <pt x="1212" y="1346" on="1"/>
        <pt x="1212" y="1336" on="0"/>
        <pt x="1207" y="1318" on="0"/>
        <pt x="1204" y="1309" on="1"/>
        <pt x="1189" y="1265" on="0"/>
        <pt x="1155" y="1180" on="0"/>
        <pt x="1141" y="1135" on="1"/>
        <pt x="1119" y="1063" on="0"/>
        <pt x="1090" y="880" on="0"/>
        <pt x="1073" y="674" on="0"/>
        <pt x="1067" y="454" on="0"/>
        <pt x="1069" y="237" on="0"/>
        <pt x="1078" y="31" on="0"/>
        <pt x="1092" y="-147" on="0"/>
        <pt x="1109" y="-288" on="0"/>
        <pt x="1118" y="-332" on="1"/>
        <pt x="1098" y="-340" on="1"/>
        <pt x="1057" y="-240" on="0"/>
        <pt x="1002" y="-6" on="0"/>
        <pt x="985" y="119" on="1"/>
        <pt x="923" y="102" on="0"/>
        <pt x="761" y="79" on="0"/>
        <pt x="594" y="66" on="0"/>
        <pt x="439" y="61" on="0"/>
        <pt x="385" y="61" on="1"/>
        <pt x="317" y="61" on="1"/>
        <pt x="323" y="-69" on="0"/>
        <pt x="343" y="-275" on="0"/>
        <pt x="356" y="-334" on="1"/>
        <pt x="336" y="-342" on="1"/>
        <pt x="300" y="-253" on="0"/>
        <pt x="248" y="-47" on="0"/>
        <pt x="230" y="63" on="1"/>
        <pt x="201" y="65" on="0"/>
        <pt x="147" y="73" on="0"/>
        <pt x="121" y="80" on="1"/>
        <pt x="95" y="85" on="0"/>
        <pt x="51" y="121" on="0"/>
        <pt x="19" y="169" on="0"/>
        <pt x="0" y="224" on="0"/>
        <pt x="0" y="250" on="1"/>
        <pt x="0" y="264" on="0"/>
        <pt x="12" y="293" on="0"/>
        <pt x="31" y="293" on="1"/>
        <pt x="45" y="293" on="0"/>
        <pt x="57" y="287" on="1"/>
        <pt x="87" y="275" on="0"/>
        <pt x="162" y="254" on="0"/>
        <pt x="207" y="244" on="1"/>
        <pt x="193" y="375" on="0"/>
        <pt x="182" y="629" on="0"/>
        <pt x="182" y="741" on="1"/>
        <pt x="182" y="780" on="0"/>
        <pt x="185" y="886" on="0"/>
        <pt x="194" y="1005" on="0"/>
        <pt x="214" y="1128" on="0"/>
        <pt x="248" y="1236" on="0"/>
        <pt x="299" y="1323" on="0"/>
        <pt x="336" y="1346" on="1"/>
        <pt x="353" y="1357" on="0"/>
        <pt x="396" y="1378" on="0"/>
        <pt x="418" y="1378" on="1"/>
        <pt x="433" y="1378" on="0"/>
        <pt x="451" y="1360" on="0"/>
      </contour>
    </TTGlyph>
    <TTGlyph name="Hbar" xMin="0" yMin="-342" xMax="1231" yMax="1378">
      <contour>
        <pt x="451" y="1343" on="1"/>
        <pt x="451" y="1334" on="0"/>
        <pt x="445" y="1318" on="0"/>
        <pt x="442" y="1309" on="1"/>
        <pt x="427" y="1264" on="0"/>
        <pt x="392" y="1178" on="0"/>
        <pt x="379" y="1133" on="1"/>
        <pt x="364" y="1081" on="0"/>
        <pt x="342" y="954" on="0"/>
        <pt x="326" y="810" on="0"/>
        <pt x="315" y="652" on="0"/>
        <pt x="312" y="571" on="1"/>
        <pt x="402" y="571" on="1"/>
        <pt x="452" y="571" on="0"/>
        <pt x="581" y="569" on="0"/>
        <pt x="725" y="565" on="0"/>
        <pt x="877" y="558" on="0"/>
        <pt x="949" y="553" on="1"/>
        <pt x="946" y="652" on="0"/>
        <pt x="946" y="743" on="1"/>
        <pt x="946" y="781" on="0"/>
        <pt x="948" y="887" on="0"/>
        <pt x="958" y="1006" on="0"/>
        <pt x="977" y="1129" on="0"/>
        <pt x="1011" y="1238" on="0"/>
        <pt x="1061" y="1325" on="0"/>
        <pt x="1098" y="1348" on="1"/>
        <pt x="1116" y="1359" on="0"/>
        <pt x="1158" y="1378" on="0"/>
        <pt x="1180" y="1378" on="1"/>
        <pt x="1212" y="1378" on="0"/>
        <pt x="1212" y="1346" on="1"/>
        <pt x="1212" y="1336" on="0"/>
        <pt x="1207" y="1318" on="0"/>
        <pt x="1204" y="1309" on="1"/>
        <pt x="1189" y="1265" on="0"/>
        <pt x="1155" y="1180" on="0"/>
        <pt x="1141" y="1135" on="1"/>
        <pt x="1124" y="1079" on="0"/>
        <pt x="1099" y="943" on="0"/>
        <pt x="1081" y="791" on="0"/>
        <pt x="1071" y="627" on="0"/>
        <pt x="1069" y="542" on="1"/>
        <pt x="1117" y="537" on="0"/>
        <pt x="1199" y="525" on="0"/>
        <pt x="1231" y="517" on="1"/>
        <pt x="1220" y="494" on="1"/>
        <pt x="1185" y="497" on="0"/>
        <pt x="1108" y="498" on="0"/>
        <pt x="1073" y="498" on="1"/>
        <pt x="1068" y="498" on="1"/>
        <pt x="1066" y="369" on="0"/>
        <pt x="1073" y="116" on="0"/>
        <pt x="1088" y="-105" on="0"/>
        <pt x="1107" y="-281" on="0"/>
        <pt x="1118" y="-332" on="1"/>
        <pt x="1098" y="-340" on="1"/>
        <pt x="1057" y="-240" on="0"/>
        <pt x="1002" y="-6" on="0"/>
        <pt x="985" y="119" on="1"/>
        <pt x="923" y="102" on="0"/>
        <pt x="761" y="79" on="0"/>
        <pt x="594" y="66" on="0"/>
        <pt x="439" y="61" on="0"/>
        <pt x="385" y="61" on="1"/>
        <pt x="317" y="61" on="1"/>
        <pt x="323" y="-69" on="0"/>
        <pt x="343" y="-275" on="0"/>
        <pt x="356" y="-334" on="1"/>
        <pt x="336" y="-342" on="1"/>
        <pt x="300" y="-253" on="0"/>
        <pt x="248" y="-47" on="0"/>
        <pt x="230" y="63" on="1"/>
        <pt x="201" y="65" on="0"/>
        <pt x="147" y="73" on="0"/>
        <pt x="121" y="80" on="1"/>
        <pt x="95" y="85" on="0"/>
        <pt x="51" y="121" on="0"/>
        <pt x="19" y="169" on="0"/>
        <pt x="0" y="224" on="0"/>
        <pt x="0" y="250" on="1"/>
        <pt x="0" y="264" on="0"/>
        <pt x="12" y="293" on="0"/>
        <pt x="31" y="293" on="1"/>
        <pt x="45" y="293" on="0"/>
        <pt x="57" y="287" on="1"/>
        <pt x="87" y="275" on="0"/>
        <pt x="162" y="254" on="0"/>
        <pt x="207" y="244" on="1"/>
        <pt x="202" y="294" on="0"/>
        <pt x="194" y="391" on="0"/>
        <pt x="191" y="440" on="1"/>
        <pt x="174" y="438" on="0"/>
        <pt x="142" y="433" on="0"/>
        <pt x="127" y="431" on="1"/>
        <pt x="119" y="430" on="0"/>
        <pt x="104" y="430" on="0"/>
        <pt x="97" y="430" on="1"/>
        <pt x="50" y="430" on="0"/>
        <pt x="0" y="467" on="0"/>
        <pt x="0" y="487" on="1"/>
        <pt x="0" y="505" on="0"/>
        <pt x="30" y="532" on="0"/>
        <pt x="81" y="551" on="0"/>
        <pt x="148" y="562" on="0"/>
        <pt x="185" y="565" on="1"/>
        <pt x="182" y="656" on="0"/>
        <pt x="182" y="741" on="1"/>
        <pt x="182" y="780" on="0"/>
        <pt x="185" y="886" on="0"/>
        <pt x="194" y="1005" on="0"/>
        <pt x="214" y="1128" on="0"/>
        <pt x="248" y="1236" on="0"/>
        <pt x="299" y="1323" on="0"/>
        <pt x="336" y="1346" on="1"/>
        <pt x="353" y="1357" on="0"/>
        <pt x="396" y="1378" on="0"/>
        <pt x="418" y="1378" on="1"/>
        <pt x="433" y="1378" on="0"/>
        <pt x="451" y="1360" on="0"/>
      </contour>
      <contour>
        <pt x="979" y="160" on="1"/>
        <pt x="968" y="245" on="0"/>
        <pt x="955" y="414" on="0"/>
        <pt x="951" y="496" on="1"/>
        <pt x="876" y="494" on="0"/>
        <pt x="714" y="487" on="0"/>
        <pt x="549" y="476" on="0"/>
        <pt x="386" y="462" on="0"/>
        <pt x="310" y="454" on="1"/>
        <pt x="309" y="395" on="0"/>
        <pt x="309" y="280" on="0"/>
        <pt x="311" y="223" on="1"/>
        <pt x="392" y="208" on="0"/>
        <pt x="569" y="185" on="0"/>
        <pt x="737" y="169" on="0"/>
        <pt x="886" y="160" on="0"/>
        <pt x="940" y="160" on="1"/>
      </contour>
    </TTGlyph>
    <TTGlyph name="Hcircumflex" xMin="0" yMin="-342" xMax="1212" yMax="1759">
      <component glyphName="H" x="0" y="0" flags="0x204"/>
      <component glyphName="circumflex" x="517" y="795" flags="0x4"/>
    </TTGlyph>
    <TTGlyph name="I" xMin="-76" yMin="-348" xMax="786" yMax="1436">
      <contour>
        <pt x="459" y="-313" on="1"/>
        <pt x="459" y="-348" on="0"/>
        <pt x="424" y="-348" on="1"/>
        <pt x="402" y="-348" on="0"/>
        <pt x="361" y="-326" on="0"/>
        <pt x="344" y="-315" on="1"/>
        <pt x="339" y="-312" on="0"/>
        <pt x="332" y="-305" on="0"/>
        <pt x="328" y="-301" on="1"/>
        <pt x="264" y="-309" on="0"/>
        <pt x="150" y="-319" on="0"/>
        <pt x="110" y="-319" on="1"/>
        <pt x="83" y="-319" on="0"/>
        <pt x="19" y="-314" on="0"/>
        <pt x="-38" y="-293" on="0"/>
        <pt x="-76" y="-251" on="0"/>
        <pt x="-76" y="-213" on="1"/>
        <pt x="-76" y="-185" on="0"/>
        <pt x="-41" y="-137" on="0"/>
        <pt x="-10" y="-137" on="1"/>
        <pt x="-7" y="-137" on="0"/>
        <pt x="1" y="-139" on="0"/>
        <pt x="4" y="-139" on="1"/>
        <pt x="67" y="-153" on="0"/>
        <pt x="205" y="-172" on="0"/>
        <pt x="275" y="-178" on="1"/>
        <pt x="266" y="-136" on="0"/>
        <pt x="258" y="-45" on="0"/>
        <pt x="255" y="41" on="0"/>
        <pt x="256" y="115" on="0"/>
        <pt x="256" y="139" on="1"/>
        <pt x="256" y="212" on="0"/>
        <pt x="260" y="387" on="0"/>
        <pt x="269" y="578" on="0"/>
        <pt x="284" y="779" on="0"/>
        <pt x="305" y="978" on="0"/>
        <pt x="334" y="1167" on="0"/>
        <pt x="353" y="1251" on="1"/>
        <pt x="268" y="1239" on="0"/>
        <pt x="108" y="1206" on="0"/>
        <pt x="41" y="1186" on="1"/>
        <pt x="35" y="1184" on="0"/>
        <pt x="25" y="1184" on="0"/>
        <pt x="20" y="1184" on="1"/>
        <pt x="5" y="1184" on="0"/>
        <pt x="-20" y="1198" on="0"/>
        <pt x="-36" y="1220" on="0"/>
        <pt x="-45" y="1248" on="0"/>
        <pt x="-45" y="1262" on="1"/>
        <pt x="-45" y="1292" on="0"/>
        <pt x="-16" y="1332" on="0"/>
        <pt x="30" y="1358" on="0"/>
        <pt x="89" y="1370" on="0"/>
        <pt x="149" y="1376" on="0"/>
        <pt x="204" y="1376" on="0"/>
        <pt x="225" y="1376" on="1"/>
        <pt x="256" y="1376" on="0"/>
        <pt x="338" y="1373" on="0"/>
        <pt x="384" y="1369" on="1"/>
        <pt x="389" y="1387" on="0"/>
        <pt x="401" y="1420" on="0"/>
        <pt x="407" y="1436" on="1"/>
        <pt x="428" y="1427" on="1"/>
        <pt x="424" y="1407" on="0"/>
        <pt x="419" y="1366" on="1"/>
        <pt x="471" y="1361" on="0"/>
        <pt x="579" y="1348" on="0"/>
        <pt x="677" y="1328" on="0"/>
        <pt x="759" y="1303" on="0"/>
        <pt x="786" y="1288" on="1"/>
        <pt x="776" y="1272" on="1"/>
        <pt x="751" y="1275" on="0"/>
        <pt x="700" y="1276" on="0"/>
        <pt x="676" y="1276" on="1"/>
        <pt x="616" y="1276" on="0"/>
        <pt x="480" y="1266" on="0"/>
        <pt x="408" y="1258" on="1"/>
        <pt x="403" y="1191" on="0"/>
        <pt x="393" y="1024" on="0"/>
        <pt x="386" y="834" on="0"/>
        <pt x="382" y="630" on="0"/>
        <pt x="382" y="423" on="0"/>
        <pt x="386" y="221" on="0"/>
        <pt x="397" y="37" on="0"/>
        <pt x="414" y="-124" on="0"/>
        <pt x="426" y="-186" on="1"/>
        <pt x="453" y="-187" on="0"/>
        <pt x="506" y="-188" on="0"/>
        <pt x="532" y="-188" on="1"/>
        <pt x="585" y="-188" on="0"/>
        <pt x="693" y="-183" on="0"/>
        <pt x="745" y="-172" on="1"/>
        <pt x="755" y="-188" on="1"/>
        <pt x="734" y="-203" on="0"/>
        <pt x="669" y="-229" on="0"/>
        <pt x="590" y="-253" on="0"/>
        <pt x="499" y="-274" on="0"/>
        <pt x="452" y="-282" on="1"/>
        <pt x="455" y="-290" on="0"/>
        <pt x="459" y="-305" on="0"/>
      </contour>
    </TTGlyph>
    <TTGlyph name="IJ" xMin="-76" yMin="-399" xMax="1754" yMax="1438">
      <component glyphName="I" x="0" y="0" flags="0x4"/>
      <component glyphName="J" x="664" y="0" flags="0x4"/>
    </TTGlyph>
    <TTGlyph name="Iacute" xMin="-76" yMin="-348" xMax="786" yMax="1831">
      <component glyphName="I" x="0" y="0" flags="0x204"/>
      <component glyphName="acute" x="198" y="857" flags="0x4"/>
    </TTGlyph>
    <TTGlyph name="Ibreve" xMin="-76" yMin="-348" xMax="786" yMax="1756">
      <component glyphName="I" x="0" y="0" flags="0x204"/>
      <component glyphName="breve" x="160" y="857" flags="0x4"/>
    </TTGlyph>
    <TTGlyph name="Icircumflex" xMin="-76" yMin="-348" xMax="786" yMax="1821">
      <component glyphName="I" x="0" y="0" flags="0x204"/>
      <component glyphName="circumflex" x="161" y="857" flags="0x4"/>
    </TTGlyph>
    <TTGlyph name="Idieresis" xMin="-76" yMin="-348" xMax="786" yMax="1731">
      <component glyphName="I" x="0" y="0" flags="0x204"/>
      <component glyphName="dieresis" x="161" y="857" flags="0x4"/>
    </TTGlyph>
    <TTGlyph name="Idotaccent" xMin="-76" yMin="-348" xMax="786" yMax="1731">
      <component glyphName="I" x="0" y="0" flags="0x204"/>
      <component glyphName="dotaccent" x="162" y="857" flags="0x4"/>
    </TTGlyph>
    <TTGlyph name="Igrave" xMin="-76" yMin="-348" xMax="786" yMax="1831">
      <component glyphName="I" x="0" y="0" flags="0x204"/>
      <component glyphName="grave" x="114" y="857" flags="0x4"/>
    </TTGlyph>
    <TTGlyph name="Imacron" xMin="-76" yMin="-348" xMax="786" yMax="1688">
      <component glyphName="I" x="0" y="0" flags="0x204"/>
      <component glyphName="macron" x="161" y="857" flags="0x4"/>
    </TTGlyph>
    <TTGlyph name="Iogonek" xMin="-76" yMin="-511" xMax="786" yMax="1436">
      <contour>
        <pt x="755" y="-105" on="1"/>
        <pt x="729" y="-123" on="0"/>
        <pt x="648" y="-154" on="0"/>
        <pt x="549" y="-181" on="0"/>
        <pt x="437" y="-203" on="0"/>
        <pt x="381" y="-211" on="1"/>
        <pt x="337" y="-257" on="0"/>
        <pt x="308" y="-331" on="0"/>
        <pt x="308" y="-357" on="1"/>
        <pt x="308" y="-373" on="0"/>
        <pt x="318" y="-403" on="0"/>
        <pt x="338" y="-427" on="0"/>
        <pt x="369" y="-442" on="0"/>
        <pt x="390" y="-442" on="1"/>
        <pt x="410" y="-442" on="0"/>
        <pt x="460" y="-422" on="0"/>
        <pt x="492" y="-393" on="1"/>
        <pt x="506" y="-404" on="1"/>
        <pt x="496" y="-424" on="0"/>
        <pt x="465" y="-462" on="0"/>
        <pt x="425" y="-492" on="0"/>
        <pt x="377" y="-511" on="0"/>
        <pt x="350" y="-511" on="1"/>
        <pt x="327" y="-511" on="0"/>
        <pt x="280" y="-497" on="0"/>
        <pt x="241" y="-468" on="0"/>
        <pt x="216" y="-424" on="0"/>
        <pt x="216" y="-394" on="1"/>
        <pt x="216" y="-340" on="0"/>
        <pt x="285" y="-252" on="0"/>
        <pt x="333" y="-218" on="1"/>
        <pt x="267" y="-226" on="0"/>
        <pt x="151" y="-236" on="0"/>
        <pt x="110" y="-236" on="1"/>
        <pt x="83" y="-236" on="0"/>
        <pt x="19" y="-231" on="0"/>
        <pt x="-38" y="-210" on="0"/>
        <pt x="-76" y="-168" on="0"/>
        <pt x="-76" y="-130" on="1"/>
        <pt x="-76" y="-102" on="0"/>
        <pt x="-41" y="-54" on="0"/>
        <pt x="-10" y="-54" on="1"/>
        <pt x="-7" y="-54" on="0"/>
        <pt x="1" y="-56" on="0"/>
        <pt x="4" y="-56" on="1"/>
        <pt x="68" y="-70" on="0"/>
        <pt x="209" y="-90" on="0"/>
        <pt x="281" y="-95" on="1"/>
        <pt x="267" y="-70" on="0"/>
        <pt x="256" y="-11" on="0"/>
        <pt x="254" y="50" on="0"/>
        <pt x="256" y="112" on="0"/>
        <pt x="256" y="139" on="1"/>
        <pt x="256" y="212" on="0"/>
        <pt x="260" y="387" on="0"/>
        <pt x="269" y="578" on="0"/>
        <pt x="284" y="779" on="0"/>
        <pt x="305" y="978" on="0"/>
        <pt x="334" y="1167" on="0"/>
        <pt x="353" y="1251" on="1"/>
        <pt x="268" y="1239" on="0"/>
        <pt x="108" y="1206" on="0"/>
        <pt x="41" y="1186" on="1"/>
        <pt x="35" y="1184" on="0"/>
        <pt x="25" y="1184" on="0"/>
        <pt x="20" y="1184" on="1"/>
        <pt x="5" y="1184" on="0"/>
        <pt x="-20" y="1198" on="0"/>
        <pt x="-36" y="1220" on="0"/>
        <pt x="-45" y="1248" on="0"/>
        <pt x="-45" y="1262" on="1"/>
        <pt x="-45" y="1292" on="0"/>
        <pt x="-16" y="1332" on="0"/>
        <pt x="30" y="1358" on="0"/>
        <pt x="89" y="1370" on="0"/>
        <pt x="149" y="1376" on="0"/>
        <pt x="204" y="1376" on="0"/>
        <pt x="225" y="1376" on="1"/>
        <pt x="256" y="1376" on="0"/>
        <pt x="338" y="1373" on="0"/>
        <pt x="384" y="1369" on="1"/>
        <pt x="389" y="1387" on="0"/>
        <pt x="401" y="1420" on="0"/>
        <pt x="407" y="1436" on="1"/>
        <pt x="428" y="1427" on="1"/>
        <pt x="426" y="1416" on="0"/>
        <pt x="421" y="1386" on="0"/>
        <pt x="418" y="1366" on="1"/>
        <pt x="470" y="1361" on="0"/>
        <pt x="579" y="1348" on="0"/>
        <pt x="677" y="1329" on="0"/>
        <pt x="759" y="1304" on="0"/>
        <pt x="786" y="1288" on="1"/>
        <pt x="776" y="1272" on="1"/>
        <pt x="751" y="1275" on="0"/>
        <pt x="700" y="1276" on="0"/>
        <pt x="676" y="1276" on="1"/>
        <pt x="616" y="1276" on="0"/>
        <pt x="478" y="1266" on="0"/>
        <pt x="406" y="1257" on="1"/>
        <pt x="398" y="1169" on="0"/>
        <pt x="384" y="936" on="0"/>
        <pt x="376" y="679" on="0"/>
        <pt x="375" y="412" on="0"/>
        <pt x="387" y="169" on="0"/>
        <pt x="412" y="-36" on="0"/>
        <pt x="433" y="-103" on="1"/>
        <pt x="459" y="-104" on="0"/>
        <pt x="508" y="-105" on="0"/>
        <pt x="532" y="-105" on="1"/>
        <pt x="585" y="-105" on="0"/>
        <pt x="693" y="-100" on="0"/>
        <pt x="745" y="-89" on="1"/>
      </contour>
    </TTGlyph>
    <TTGlyph name="Itilde" xMin="-76" yMin="-348" xMax="786" yMax="1734">
      <component glyphName="I" x="0" y="0" flags="0x204"/>
      <component glyphName="tilde" x="161" y="857" flags="0x4"/>
    </TTGlyph>
    <TTGlyph name="J" xMin="0" yMin="-399" xMax="1090" yMax="1438">
      <contour>
        <pt x="991" y="289" on="1"/>
        <pt x="991" y="211" on="0"/>
        <pt x="964" y="48" on="0"/>
        <pt x="908" y="-105" on="0"/>
        <pt x="822" y="-240" on="0"/>
        <pt x="704" y="-341" on="0"/>
        <pt x="553" y="-399" on="0"/>
        <pt x="461" y="-399" on="1"/>
        <pt x="372" y="-399" on="0"/>
        <pt x="205" y="-348" on="0"/>
        <pt x="77" y="-247" on="0"/>
        <pt x="0" y="-99" on="0"/>
        <pt x="0" y="-2" on="1"/>
        <pt x="0" y="56" on="0"/>
        <pt x="27" y="169" on="0"/>
        <pt x="76" y="273" on="0"/>
        <pt x="146" y="365" on="0"/>
        <pt x="190" y="403" on="1"/>
        <pt x="209" y="393" on="1"/>
        <pt x="174" y="325" on="0"/>
        <pt x="137" y="180" on="0"/>
        <pt x="137" y="104" on="1"/>
        <pt x="137" y="24" on="0"/>
        <pt x="181" y="-131" on="0"/>
        <pt x="270" y="-254" on="0"/>
        <pt x="404" y="-330" on="0"/>
        <pt x="494" y="-330" on="1"/>
        <pt x="568" y="-330" on="0"/>
        <pt x="675" y="-283" on="0"/>
        <pt x="750" y="-202" on="0"/>
        <pt x="797" y="-95" on="0"/>
        <pt x="822" y="26" on="0"/>
        <pt x="831" y="152" on="0"/>
        <pt x="831" y="211" on="1"/>
        <pt x="831" y="335" on="0"/>
        <pt x="803" y="595" on="0"/>
        <pt x="755" y="859" on="0"/>
        <pt x="691" y="1119" on="0"/>
        <pt x="655" y="1243" on="1"/>
        <pt x="572" y="1217" on="0"/>
        <pt x="424" y="1163" on="0"/>
        <pt x="369" y="1139" on="1"/>
        <pt x="361" y="1136" on="0"/>
        <pt x="348" y="1133" on="0"/>
        <pt x="340" y="1133" on="1"/>
        <pt x="324" y="1133" on="0"/>
        <pt x="298" y="1148" on="0"/>
        <pt x="280" y="1171" on="0"/>
        <pt x="270" y="1200" on="0"/>
        <pt x="270" y="1214" on="1"/>
        <pt x="270" y="1236" on="0"/>
        <pt x="286" y="1269" on="0"/>
        <pt x="313" y="1295" on="0"/>
        <pt x="347" y="1313" on="0"/>
        <pt x="365" y="1319" on="1"/>
        <pt x="414" y="1336" on="0"/>
        <pt x="547" y="1359" on="0"/>
        <pt x="617" y="1365" on="1"/>
        <pt x="612" y="1381" on="0"/>
        <pt x="603" y="1411" on="0"/>
        <pt x="598" y="1427" on="1"/>
        <pt x="616" y="1438" on="1"/>
        <pt x="628" y="1421" on="0"/>
        <pt x="652" y="1387" on="0"/>
        <pt x="664" y="1369" on="1"/>
        <pt x="716" y="1373" on="0"/>
        <pt x="812" y="1376" on="0"/>
        <pt x="850" y="1376" on="1"/>
        <pt x="875" y="1376" on="0"/>
        <pt x="939" y="1375" on="0"/>
        <pt x="1005" y="1369" on="0"/>
        <pt x="1067" y="1358" on="0"/>
        <pt x="1090" y="1348" on="1"/>
        <pt x="1083" y="1331" on="1"/>
        <pt x="1013" y="1329" on="0"/>
        <pt x="827" y="1293" on="0"/>
        <pt x="728" y="1265" on="1"/>
        <pt x="791" y="1155" on="0"/>
        <pt x="888" y="915" on="0"/>
        <pt x="956" y="666" on="0"/>
        <pt x="991" y="413" on="0"/>
      </contour>
    </TTGlyph>
    <TTGlyph name="Jcircumflex" xMin="0" yMin="-399" xMax="1090" yMax="1819">
      <component glyphName="J" x="0" y="0" flags="0x204"/>
      <component glyphName="circumflex" x="365" y="855" flags="0x4"/>
    </TTGlyph>
    <TTGlyph name="K" xMin="42" yMin="-497" xMax="1707" yMax="1456">
      <contour>
        <pt x="497" y="1339" on="1"/>
        <pt x="497" y="1330" on="0"/>
        <pt x="490" y="1312" on="0"/>
        <pt x="486" y="1303" on="1"/>
        <pt x="468" y="1261" on="0"/>
        <pt x="427" y="1181" on="0"/>
        <pt x="411" y="1139" on="1"/>
        <pt x="384" y="1069" on="0"/>
        <pt x="345" y="907" on="0"/>
        <pt x="316" y="729" on="0"/>
        <pt x="298" y="539" on="0"/>
        <pt x="294" y="440" on="1"/>
        <pt x="348" y="429" on="0"/>
        <pt x="438" y="385" on="0"/>
        <pt x="480" y="353" on="1"/>
        <pt x="560" y="403" on="0"/>
        <pt x="696" y="550" on="0"/>
        <pt x="809" y="724" on="0"/>
        <pt x="899" y="914" on="0"/>
        <pt x="968" y="1098" on="0"/>
        <pt x="1016" y="1266" on="0"/>
        <pt x="1031" y="1331" on="1"/>
        <pt x="1035" y="1353" on="0"/>
        <pt x="1065" y="1397" on="0"/>
        <pt x="1106" y="1433" on="0"/>
        <pt x="1154" y="1456" on="0"/>
        <pt x="1177" y="1456" on="1"/>
        <pt x="1200" y="1456" on="0"/>
        <pt x="1220" y="1429" on="0"/>
        <pt x="1220" y="1407" on="1"/>
        <pt x="1220" y="1393" on="1"/>
        <pt x="1209" y="1300" on="0"/>
        <pt x="1149" y="1096" on="0"/>
        <pt x="1058" y="889" on="0"/>
        <pt x="935" y="689" on="0"/>
        <pt x="786" y="514" on="0"/>
        <pt x="612" y="370" on="0"/>
        <pt x="515" y="323" on="1"/>
        <pt x="535" y="306" on="0"/>
        <pt x="574" y="270" on="0"/>
        <pt x="595" y="250" on="1"/>
        <pt x="684" y="166" on="0"/>
        <pt x="855" y="-8" on="0"/>
        <pt x="1035" y="-172" on="0"/>
        <pt x="1231" y="-315" on="0"/>
        <pt x="1345" y="-368" on="1"/>
        <pt x="1375" y="-382" on="0"/>
        <pt x="1449" y="-409" on="0"/>
        <pt x="1527" y="-429" on="0"/>
        <pt x="1604" y="-441" on="0"/>
        <pt x="1637" y="-441" on="1"/>
        <pt x="1654" y="-441" on="0"/>
        <pt x="1686" y="-438" on="0"/>
        <pt x="1703" y="-433" on="1"/>
        <pt x="1707" y="-454" on="1"/>
        <pt x="1664" y="-478" on="0"/>
        <pt x="1566" y="-497" on="0"/>
        <pt x="1515" y="-497" on="1"/>
        <pt x="1476" y="-497" on="0"/>
        <pt x="1388" y="-486" on="0"/>
        <pt x="1298" y="-465" on="0"/>
        <pt x="1213" y="-436" on="0"/>
        <pt x="1179" y="-419" on="1"/>
        <pt x="1077" y="-368" on="0"/>
        <pt x="880" y="-229" on="0"/>
        <pt x="698" y="-67" on="0"/>
        <pt x="535" y="111" on="0"/>
        <pt x="468" y="203" on="1"/>
        <pt x="454" y="222" on="0"/>
        <pt x="427" y="262" on="0"/>
        <pt x="413" y="282" on="1"/>
        <pt x="353" y="263" on="0"/>
        <pt x="288" y="255" on="1"/>
        <pt x="286" y="100" on="0"/>
        <pt x="298" y="-198" on="0"/>
        <pt x="308" y="-334" on="1"/>
        <pt x="286" y="-342" on="1"/>
        <pt x="261" y="-277" on="0"/>
        <pt x="224" y="-133" on="0"/>
        <pt x="198" y="19" on="0"/>
        <pt x="181" y="174" on="0"/>
        <pt x="176" y="251" on="1"/>
        <pt x="153" y="253" on="0"/>
        <pt x="106" y="266" on="0"/>
        <pt x="67" y="289" on="0"/>
        <pt x="42" y="325" on="0"/>
        <pt x="42" y="350" on="1"/>
        <pt x="42" y="374" on="0"/>
        <pt x="65" y="409" on="0"/>
        <pt x="102" y="433" on="0"/>
        <pt x="147" y="446" on="0"/>
        <pt x="169" y="448" on="1"/>
        <pt x="169" y="504" on="1"/>
        <pt x="169" y="553" on="0"/>
        <pt x="171" y="701" on="0"/>
        <pt x="182" y="871" on="0"/>
        <pt x="207" y="1047" on="0"/>
        <pt x="252" y="1201" on="0"/>
        <pt x="321" y="1317" on="0"/>
        <pt x="372" y="1343" on="1"/>
        <pt x="392" y="1354" on="0"/>
        <pt x="435" y="1372" on="0"/>
        <pt x="458" y="1372" on="1"/>
        <pt x="473" y="1372" on="0"/>
        <pt x="497" y="1358" on="0"/>
      </contour>
      <contour>
        <pt x="60" y="344" on="1"/>
        <pt x="60" y="326" on="0"/>
        <pt x="82" y="301" on="0"/>
        <pt x="117" y="285" on="0"/>
        <pt x="157" y="276" on="0"/>
        <pt x="175" y="274" on="1"/>
        <pt x="171" y="352" on="0"/>
        <pt x="169" y="426" on="1"/>
        <pt x="149" y="424" on="0"/>
        <pt x="110" y="416" on="0"/>
        <pt x="79" y="397" on="0"/>
        <pt x="60" y="367" on="0"/>
      </contour>
      <contour>
        <pt x="289" y="279" on="1"/>
        <pt x="344" y="288" on="0"/>
        <pt x="395" y="309" on="1"/>
        <pt x="373" y="340" on="0"/>
        <pt x="324" y="391" on="0"/>
        <pt x="292" y="408" on="1"/>
        <pt x="291" y="376" on="0"/>
        <pt x="289" y="311" on="0"/>
      </contour>
    </TTGlyph>
    <TTGlyph name="Kcommaaccent" xMin="42" yMin="-519" xMax="1707" yMax="1456">
      <component glyphName="K" x="0" y="0" flags="0x204"/>
      <component glyphName="commaaccent" x="341" y="-139" flags="0x4"/>
    </TTGlyph>
    <TTGlyph name="L" xMin="20" yMin="-350" xMax="981" yMax="1364">
      <contour>
        <pt x="981" y="-68" on="1"/>
        <pt x="970" y="-140" on="0"/>
        <pt x="893" y="-247" on="0"/>
        <pt x="784" y="-316" on="0"/>
        <pt x="653" y="-350" on="0"/>
        <pt x="587" y="-350" on="1"/>
        <pt x="540" y="-350" on="0"/>
        <pt x="440" y="-326" on="0"/>
        <pt x="339" y="-298" on="0"/>
        <pt x="242" y="-274" on="0"/>
        <pt x="198" y="-274" on="1"/>
        <pt x="177" y="-274" on="0"/>
        <pt x="130" y="-284" on="0"/>
        <pt x="85" y="-302" on="0"/>
        <pt x="47" y="-329" on="0"/>
        <pt x="36" y="-346" on="1"/>
        <pt x="20" y="-338" on="1"/>
        <pt x="24" y="-296" on="0"/>
        <pt x="59" y="-226" on="0"/>
        <pt x="114" y="-174" on="0"/>
        <pt x="185" y="-145" on="0"/>
        <pt x="227" y="-145" on="1"/>
        <pt x="237" y="-145" on="0"/>
        <pt x="256" y="-145" on="0"/>
        <pt x="266" y="-146" on="1"/>
        <pt x="224" y="-46" on="0"/>
        <pt x="169" y="193" on="0"/>
        <pt x="137" y="442" on="0"/>
        <pt x="124" y="688" on="0"/>
        <pt x="124" y="795" on="1"/>
        <pt x="124" y="831" on="0"/>
        <pt x="127" y="927" on="0"/>
        <pt x="137" y="1034" on="0"/>
        <pt x="156" y="1142" on="0"/>
        <pt x="190" y="1238" on="0"/>
        <pt x="240" y="1314" on="0"/>
        <pt x="276" y="1335" on="1"/>
        <pt x="295" y="1346" on="0"/>
        <pt x="336" y="1364" on="0"/>
        <pt x="358" y="1364" on="1"/>
        <pt x="372" y="1364" on="0"/>
        <pt x="393" y="1351" on="0"/>
        <pt x="393" y="1335" on="1"/>
        <pt x="393" y="1326" on="0"/>
        <pt x="388" y="1311" on="0"/>
        <pt x="385" y="1303" on="1"/>
        <pt x="369" y="1267" on="0"/>
        <pt x="336" y="1199" on="0"/>
        <pt x="325" y="1163" on="1"/>
        <pt x="299" y="1076" on="0"/>
        <pt x="266" y="872" on="0"/>
        <pt x="250" y="650" on="0"/>
        <pt x="248" y="415" on="0"/>
        <pt x="259" y="182" on="0"/>
        <pt x="279" y="-45" on="0"/>
        <pt x="293" y="-149" on="1"/>
        <pt x="335" y="-155" on="0"/>
        <pt x="422" y="-174" on="0"/>
        <pt x="511" y="-193" on="0"/>
        <pt x="603" y="-207" on="0"/>
        <pt x="651" y="-207" on="1"/>
        <pt x="696" y="-207" on="0"/>
        <pt x="787" y="-192" on="0"/>
        <pt x="870" y="-158" on="0"/>
        <pt x="940" y="-102" on="0"/>
        <pt x="964" y="-61" on="1"/>
      </contour>
    </TTGlyph>
    <TTGlyph name="Lacute" xMin="20" yMin="-350" xMax="981" yMax="1762">
      <component glyphName="L" x="0" y="0" flags="0x204"/>
      <component glyphName="acute" x="147" y="788" flags="0x4"/>
    </TTGlyph>
    <TTGlyph name="Lcaron" xMin="20" yMin="-350" xMax="981" yMax="1364">
      <component glyphName="L" x="0" y="0" flags="0x204"/>
      <component glyphName="quoteright" x="565" y="8" flags="0x4"/>
    </TTGlyph>
    <TTGlyph name="Lcommaaccent" xMin="20" yMin="-529" xMax="981" yMax="1364">
      <contour>
        <pt x="981" y="82" on="1"/>
        <pt x="970" y="10" on="0"/>
        <pt x="893" y="-97" on="0"/>
        <pt x="784" y="-166" on="0"/>
        <pt x="653" y="-200" on="0"/>
        <pt x="587" y="-200" on="1"/>
        <pt x="540" y="-200" on="0"/>
        <pt x="440" y="-176" on="0"/>
        <pt x="339" y="-148" on="0"/>
        <pt x="242" y="-124" on="0"/>
        <pt x="198" y="-124" on="1"/>
        <pt x="177" y="-124" on="0"/>
        <pt x="130" y="-134" on="0"/>
        <pt x="85" y="-152" on="0"/>
        <pt x="47" y="-179" on="0"/>
        <pt x="36" y="-196" on="1"/>
        <pt x="20" y="-188" on="1"/>
        <pt x="24" y="-146" on="0"/>
        <pt x="59" y="-76" on="0"/>
        <pt x="114" y="-24" on="0"/>
        <pt x="185" y="5" on="0"/>
        <pt x="227" y="5" on="1"/>
        <pt x="232" y="5" on="0"/>
        <pt x="240" y="4" on="0"/>
        <pt x="245" y="4" on="1"/>
        <pt x="209" y="97" on="0"/>
        <pt x="162" y="293" on="0"/>
        <pt x="135" y="493" on="0"/>
        <pt x="124" y="695" on="0"/>
        <pt x="124" y="795" on="1"/>
        <pt x="124" y="831" on="0"/>
        <pt x="127" y="927" on="0"/>
        <pt x="137" y="1034" on="0"/>
        <pt x="156" y="1142" on="0"/>
        <pt x="190" y="1238" on="0"/>
        <pt x="240" y="1314" on="0"/>
        <pt x="276" y="1335" on="1"/>
        <pt x="295" y="1346" on="0"/>
        <pt x="336" y="1364" on="0"/>
        <pt x="358" y="1364" on="1"/>
        <pt x="372" y="1364" on="0"/>
        <pt x="393" y="1351" on="0"/>
        <pt x="393" y="1335" on="1"/>
        <pt x="393" y="1326" on="0"/>
        <pt x="388" y="1311" on="0"/>
        <pt x="385" y="1303" on="1"/>
        <pt x="369" y="1267" on="0"/>
        <pt x="336" y="1199" on="0"/>
        <pt x="325" y="1163" on="1"/>
        <pt x="287" y="1038" on="0"/>
        <pt x="252" y="756" on="0"/>
        <pt x="247" y="457" on="0"/>
        <pt x="268" y="151" on="0"/>
        <pt x="287" y="1" on="1"/>
        <pt x="330" y="-4" on="0"/>
        <pt x="418" y="-23" on="0"/>
        <pt x="509" y="-43" on="0"/>
        <pt x="602" y="-57" on="0"/>
        <pt x="651" y="-57" on="1"/>
        <pt x="696" y="-57" on="0"/>
        <pt x="787" y="-42" on="0"/>
        <pt x="870" y="-8" on="0"/>
        <pt x="940" y="48" on="0"/>
        <pt x="964" y="89" on="1"/>
      </contour>
      <contour>
        <pt x="469" y="-523" on="1"/>
        <pt x="474" y="-511" on="0"/>
        <pt x="482" y="-484" on="0"/>
        <pt x="483" y="-460" on="0"/>
        <pt x="474" y="-440" on="0"/>
        <pt x="463" y="-434" on="1"/>
        <pt x="441" y="-423" on="0"/>
        <pt x="409" y="-385" on="0"/>
        <pt x="409" y="-359" on="1"/>
        <pt x="409" y="-326" on="0"/>
        <pt x="455" y="-280" on="0"/>
        <pt x="488" y="-280" on="1"/>
        <pt x="520" y="-280" on="0"/>
        <pt x="564" y="-326" on="0"/>
        <pt x="566" y="-359" on="1"/>
        <pt x="568" y="-393" on="0"/>
        <pt x="546" y="-452" on="0"/>
        <pt x="514" y="-496" on="0"/>
        <pt x="483" y="-525" on="0"/>
        <pt x="477" y="-529" on="1"/>
        <pt x="475" y="-527" on="0"/>
        <pt x="473" y="-526" on="1"/>
        <pt x="469" y="-524" on="0"/>
      </contour>
    </TTGlyph>
    <TTGlyph name="Ldot" xMin="20" yMin="-350" xMax="981" yMax="1364">
      <component glyphName="L" x="0" y="0" flags="0x204"/>
      <component glyphName="periodcentered" x="355" y="-197" flags="0x4"/>
    </TTGlyph>
    <TTGlyph name="Lslash" xMin="-70" yMin="-350" xMax="981" yMax="1364">
      <contour>
        <pt x="981" y="-68" on="1"/>
        <pt x="970" y="-140" on="0"/>
        <pt x="893" y="-247" on="0"/>
        <pt x="784" y="-316" on="0"/>
        <pt x="653" y="-350" on="0"/>
        <pt x="587" y="-350" on="1"/>
        <pt x="540" y="-350" on="0"/>
        <pt x="440" y="-326" on="0"/>
        <pt x="339" y="-298" on="0"/>
        <pt x="242" y="-274" on="0"/>
        <pt x="198" y="-274" on="1"/>
        <pt x="177" y="-274" on="0"/>
        <pt x="130" y="-284" on="0"/>
        <pt x="85" y="-302" on="0"/>
        <pt x="47" y="-329" on="0"/>
        <pt x="36" y="-346" on="1"/>
        <pt x="20" y="-338" on="1"/>
        <pt x="24" y="-296" on="0"/>
        <pt x="59" y="-226" on="0"/>
        <pt x="114" y="-174" on="0"/>
        <pt x="185" y="-145" on="0"/>
        <pt x="227" y="-145" on="1"/>
        <pt x="237" y="-145" on="0"/>
        <pt x="256" y="-145" on="0"/>
        <pt x="266" y="-146" on="1"/>
        <pt x="242" y="-89" on="0"/>
        <pt x="203" y="40" on="0"/>
        <pt x="173" y="177" on="0"/>
        <pt x="151" y="320" on="0"/>
        <pt x="144" y="392" on="1"/>
        <pt x="112" y="368" on="0"/>
        <pt x="56" y="321" on="0"/>
        <pt x="31" y="298" on="1"/>
        <pt x="23" y="292" on="0"/>
        <pt x="16" y="289" on="1"/>
        <pt x="-7" y="275" on="0"/>
        <pt x="-48" y="288" on="0"/>
        <pt x="-56" y="303" on="1"/>
        <pt x="-70" y="327" on="0"/>
        <pt x="-39" y="378" on="0"/>
        <pt x="19" y="426" on="0"/>
        <pt x="87" y="466" on="0"/>
        <pt x="110" y="479" on="1"/>
        <pt x="115" y="482" on="0"/>
        <pt x="128" y="489" on="0"/>
        <pt x="135" y="493" on="1"/>
        <pt x="129" y="573" on="0"/>
        <pt x="124" y="725" on="0"/>
        <pt x="124" y="795" on="1"/>
        <pt x="124" y="831" on="0"/>
        <pt x="127" y="927" on="0"/>
        <pt x="137" y="1034" on="0"/>
        <pt x="156" y="1142" on="0"/>
        <pt x="190" y="1238" on="0"/>
        <pt x="240" y="1314" on="0"/>
        <pt x="276" y="1335" on="1"/>
        <pt x="295" y="1346" on="0"/>
        <pt x="336" y="1364" on="0"/>
        <pt x="358" y="1364" on="1"/>
        <pt x="372" y="1364" on="0"/>
        <pt x="393" y="1351" on="0"/>
        <pt x="393" y="1335" on="1"/>
        <pt x="393" y="1326" on="0"/>
        <pt x="388" y="1311" on="0"/>
        <pt x="385" y="1303" on="1"/>
        <pt x="369" y="1267" on="0"/>
        <pt x="336" y="1199" on="0"/>
        <pt x="325" y="1163" on="1"/>
        <pt x="287" y="1036" on="0"/>
        <pt x="251" y="724" on="0"/>
        <pt x="249" y="555" on="1"/>
        <pt x="288" y="575" on="0"/>
        <pt x="370" y="614" on="0"/>
        <pt x="448" y="648" on="0"/>
        <pt x="519" y="673" on="0"/>
        <pt x="547" y="679" on="1"/>
        <pt x="551" y="659" on="1"/>
        <pt x="532" y="651" on="0"/>
        <pt x="493" y="630" on="0"/>
        <pt x="476" y="619" on="1"/>
        <pt x="424" y="589" on="0"/>
        <pt x="308" y="513" on="0"/>
        <pt x="249" y="471" on="1"/>
        <pt x="251" y="310" on="0"/>
        <pt x="274" y="-6" on="0"/>
        <pt x="293" y="-149" on="1"/>
        <pt x="335" y="-155" on="0"/>
        <pt x="422" y="-174" on="0"/>
        <pt x="511" y="-193" on="0"/>
        <pt x="603" y="-207" on="0"/>
        <pt x="651" y="-207" on="1"/>
        <pt x="696" y="-207" on="0"/>
        <pt x="787" y="-192" on="0"/>
        <pt x="870" y="-158" on="0"/>
        <pt x="940" y="-102" on="0"/>
        <pt x="964" y="-61" on="1"/>
      </contour>
    </TTGlyph>
    <TTGlyph name="M" xMin="150" yMin="-507" xMax="2204" yMax="1372">
      <contour>
        <pt x="2204" y="-464" on="1"/>
        <pt x="2170" y="-489" on="0"/>
        <pt x="2091" y="-507" on="0"/>
        <pt x="2051" y="-507" on="1"/>
        <pt x="1914" y="-507" on="0"/>
        <pt x="1701" y="-426" on="0"/>
        <pt x="1540" y="-284" on="0"/>
        <pt x="1427" y="-92" on="0"/>
        <pt x="1352" y="130" on="0"/>
        <pt x="1312" y="372" on="0"/>
        <pt x="1298" y="613" on="0"/>
        <pt x="1305" y="844" on="0"/>
        <pt x="1315" y="943" on="1"/>
        <pt x="1297" y="916" on="0"/>
        <pt x="1245" y="798" on="0"/>
        <pt x="1182" y="640" on="0"/>
        <pt x="1114" y="453" on="0"/>
        <pt x="1047" y="263" on="0"/>
        <pt x="984" y="80" on="0"/>
        <pt x="935" y="-70" on="0"/>
        <pt x="900" y="-175" on="0"/>
        <pt x="895" y="-193" on="1"/>
        <pt x="891" y="-205" on="0"/>
        <pt x="878" y="-241" on="0"/>
        <pt x="859" y="-275" on="0"/>
        <pt x="834" y="-299" on="0"/>
        <pt x="818" y="-299" on="1"/>
        <pt x="800" y="-299" on="0"/>
        <pt x="776" y="-270" on="0"/>
        <pt x="761" y="-230" on="0"/>
        <pt x="752" y="-190" on="0"/>
        <pt x="750" y="-178" on="1"/>
        <pt x="744" y="-136" on="0"/>
        <pt x="734" y="-8" on="0"/>
        <pt x="727" y="148" on="0"/>
        <pt x="723" y="325" on="0"/>
        <pt x="720" y="504" on="0"/>
        <pt x="719" y="677" on="0"/>
        <pt x="718" y="828" on="0"/>
        <pt x="718" y="948" on="0"/>
        <pt x="718" y="984" on="1"/>
        <pt x="696" y="934" on="0"/>
        <pt x="635" y="780" on="0"/>
        <pt x="564" y="588" on="0"/>
        <pt x="487" y="367" on="0"/>
        <pt x="412" y="133" on="0"/>
        <pt x="343" y="-105" on="0"/>
        <pt x="316" y="-217" on="1"/>
        <pt x="313" y="-227" on="0"/>
        <pt x="304" y="-256" on="0"/>
        <pt x="290" y="-282" on="0"/>
        <pt x="269" y="-301" on="0"/>
        <pt x="254" y="-301" on="1"/>
        <pt x="240" y="-301" on="0"/>
        <pt x="218" y="-283" on="0"/>
        <pt x="203" y="-258" on="0"/>
        <pt x="194" y="-229" on="0"/>
        <pt x="193" y="-217" on="1"/>
        <pt x="188" y="-192" on="0"/>
        <pt x="181" y="-132" on="0"/>
        <pt x="176" y="-69" on="0"/>
        <pt x="172" y="-8" on="0"/>
        <pt x="170" y="18" on="1"/>
        <pt x="159" y="155" on="0"/>
        <pt x="150" y="423" on="0"/>
        <pt x="150" y="559" on="1"/>
        <pt x="150" y="693" on="0"/>
        <pt x="159" y="957" on="0"/>
        <pt x="168" y="1092" on="1"/>
        <pt x="171" y="1131" on="0"/>
        <pt x="183" y="1228" on="0"/>
        <pt x="218" y="1314" on="0"/>
        <pt x="285" y="1372" on="0"/>
        <pt x="343" y="1372" on="1"/>
        <pt x="357" y="1372" on="0"/>
        <pt x="377" y="1359" on="0"/>
        <pt x="377" y="1343" on="1"/>
        <pt x="377" y="1333" on="1"/>
        <pt x="368" y="1273" on="0"/>
        <pt x="350" y="1154" on="0"/>
        <pt x="340" y="1092" on="1"/>
        <pt x="316" y="892" on="0"/>
        <pt x="283" y="493" on="0"/>
        <pt x="283" y="291" on="1"/>
        <pt x="283" y="212" on="0"/>
        <pt x="289" y="58" on="0"/>
        <pt x="297" y="-20" on="1"/>
        <pt x="366" y="194" on="0"/>
        <pt x="471" y="524" on="0"/>
        <pt x="551" y="772" on="0"/>
        <pt x="606" y="947" on="0"/>
        <pt x="644" y="1065" on="0"/>
        <pt x="666" y="1136" on="0"/>
        <pt x="680" y="1175" on="0"/>
        <pt x="686" y="1193" on="0"/>
        <pt x="689" y="1200" on="1"/>
        <pt x="704" y="1234" on="0"/>
        <pt x="756" y="1288" on="0"/>
        <pt x="797" y="1288" on="1"/>
        <pt x="825" y="1288" on="0"/>
        <pt x="860" y="1260" on="0"/>
        <pt x="880" y="1218" on="0"/>
        <pt x="887" y="1168" on="0"/>
        <pt x="887" y="1147" on="1"/>
        <pt x="885" y="992" on="0"/>
        <pt x="871" y="689" on="0"/>
        <pt x="861" y="391" on="0"/>
        <pt x="862" y="97" on="0"/>
        <pt x="875" y="-49" on="1"/>
        <pt x="915" y="69" on="0"/>
        <pt x="983" y="278" on="0"/>
        <pt x="1044" y="468" on="0"/>
        <pt x="1101" y="644" on="0"/>
        <pt x="1162" y="816" on="0"/>
        <pt x="1228" y="988" on="0"/>
        <pt x="1268" y="1079" on="1"/>
        <pt x="1277" y="1097" on="0"/>
        <pt x="1299" y="1134" on="0"/>
        <pt x="1327" y="1164" on="0"/>
        <pt x="1363" y="1184" on="0"/>
        <pt x="1385" y="1184" on="1"/>
        <pt x="1416" y="1184" on="0"/>
        <pt x="1452" y="1144" on="0"/>
        <pt x="1471" y="1088" on="0"/>
        <pt x="1477" y="1027" on="0"/>
        <pt x="1477" y="1006" on="1"/>
        <pt x="1477" y="914" on="0"/>
        <pt x="1465" y="691" on="0"/>
        <pt x="1460" y="451" on="0"/>
        <pt x="1470" y="205" on="0"/>
        <pt x="1514" y="-25" on="0"/>
        <pt x="1600" y="-225" on="0"/>
        <pt x="1746" y="-374" on="0"/>
        <pt x="1961" y="-460" on="0"/>
        <pt x="2112" y="-460" on="1"/>
        <pt x="2135" y="-460" on="0"/>
        <pt x="2178" y="-453" on="0"/>
        <pt x="2198" y="-444" on="1"/>
      </contour>
    </TTGlyph>
    <TTGlyph name="N" xMin="150" yMin="-507" xMax="1681" yMax="1364">
      <contour>
        <pt x="1681" y="-464" on="1"/>
        <pt x="1649" y="-489" on="0"/>
        <pt x="1569" y="-507" on="0"/>
        <pt x="1527" y="-507" on="1"/>
        <pt x="1378" y="-507" on="0"/>
        <pt x="1152" y="-417" on="0"/>
        <pt x="985" y="-261" on="0"/>
        <pt x="873" y="-50" on="0"/>
        <pt x="804" y="193" on="0"/>
        <pt x="771" y="454" on="0"/>
        <pt x="764" y="712" on="0"/>
        <pt x="777" y="954" on="0"/>
        <pt x="788" y="1055" on="1"/>
        <pt x="730" y="981" on="0"/>
        <pt x="626" y="773" on="0"/>
        <pt x="537" y="535" on="0"/>
        <pt x="461" y="284" on="0"/>
        <pt x="400" y="46" on="0"/>
        <pt x="353" y="-162" on="0"/>
        <pt x="337" y="-236" on="1"/>
        <pt x="335" y="-244" on="0"/>
        <pt x="330" y="-270" on="0"/>
        <pt x="319" y="-294" on="0"/>
        <pt x="301" y="-311" on="0"/>
        <pt x="288" y="-311" on="1"/>
        <pt x="276" y="-311" on="0"/>
        <pt x="254" y="-296" on="0"/>
        <pt x="236" y="-275" on="0"/>
        <pt x="223" y="-250" on="0"/>
        <pt x="220" y="-239" on="1"/>
        <pt x="190" y="-142" on="0"/>
        <pt x="161" y="81" on="0"/>
        <pt x="150" y="310" on="0"/>
        <pt x="151" y="536" on="0"/>
        <pt x="151" y="637" on="1"/>
        <pt x="151" y="749" on="0"/>
        <pt x="157" y="973" on="0"/>
        <pt x="165" y="1085" on="1"/>
        <pt x="168" y="1125" on="0"/>
        <pt x="179" y="1223" on="0"/>
        <pt x="213" y="1307" on="0"/>
        <pt x="277" y="1364" on="0"/>
        <pt x="333" y="1364" on="1"/>
        <pt x="347" y="1364" on="0"/>
        <pt x="366" y="1351" on="0"/>
        <pt x="366" y="1335" on="1"/>
        <pt x="366" y="1327" on="1"/>
        <pt x="353" y="1208" on="0"/>
        <pt x="331" y="979" on="0"/>
        <pt x="314" y="751" on="0"/>
        <pt x="305" y="520" on="0"/>
        <pt x="305" y="399" on="1"/>
        <pt x="305" y="281" on="0"/>
        <pt x="315" y="44" on="0"/>
        <pt x="327" y="-74" on="1"/>
        <pt x="364" y="96" on="0"/>
        <pt x="445" y="420" on="0"/>
        <pt x="549" y="731" on="0"/>
        <pt x="685" y="1027" on="0"/>
        <pt x="776" y="1169" on="1"/>
        <pt x="784" y="1182" on="0"/>
        <pt x="809" y="1217" on="0"/>
        <pt x="840" y="1248" on="0"/>
        <pt x="874" y="1270" on="0"/>
        <pt x="892" y="1270" on="1"/>
        <pt x="914" y="1270" on="0"/>
        <pt x="939" y="1230" on="0"/>
        <pt x="950" y="1177" on="0"/>
        <pt x="952" y="1123" on="0"/>
        <pt x="952" y="1108" on="1"/>
        <pt x="945" y="1014" on="0"/>
        <pt x="926" y="780" on="0"/>
        <pt x="920" y="524" on="0"/>
        <pt x="933" y="260" on="0"/>
        <pt x="981" y="13" on="0"/>
        <pt x="1073" y="-204" on="0"/>
        <pt x="1224" y="-366" on="0"/>
        <pt x="1441" y="-460" on="0"/>
        <pt x="1591" y="-460" on="1"/>
        <pt x="1612" y="-460" on="0"/>
        <pt x="1657" y="-453" on="0"/>
        <pt x="1677" y="-444" on="1"/>
      </contour>
    </TTGlyph>
    <TTGlyph name="Nacute" xMin="150" yMin="-507" xMax="1681" yMax="1701">
      <component glyphName="N" x="0" y="0" flags="0x204"/>
      <component glyphName="acute" x="425" y="727" flags="0x4"/>
    </TTGlyph>
    <TTGlyph name="Ncaron" xMin="150" yMin="-507" xMax="1681" yMax="1691">
      <component glyphName="N" x="0" y="0" flags="0x204"/>
      <component glyphName="caron" x="388" y="727" flags="0x4"/>
    </TTGlyph>
    <TTGlyph name="Ncommaaccent" xMin="150" yMin="-509" xMax="1681" yMax="1364">
      <component glyphName="N" x="0" y="0" flags="0x204"/>
      <component glyphName="commaaccent" x="428" y="-129" flags="0x4"/>
    </TTGlyph>
    <TTGlyph name="Ntilde" xMin="150" yMin="-507" xMax="1681" yMax="1604">
      <component glyphName="N" x="0" y="0" flags="0x204"/>
      <component glyphName="tilde" x="388" y="727" flags="0x4"/>
    </TTGlyph>
    <TTGlyph name="O" xMin="55" yMin="-360" xMax="1149" yMax="1368">
      <contour>
        <pt x="1149" y="496" on="1"/>
        <pt x="1149" y="415" on="0"/>
        <pt x="1120" y="224" on="0"/>
        <pt x="1060" y="34" on="0"/>
        <pt x="968" y="-143" on="0"/>
        <pt x="841" y="-278" on="0"/>
        <pt x="678" y="-360" on="0"/>
        <pt x="577" y="-360" on="1"/>
        <pt x="477" y="-360" on="0"/>
        <pt x="322" y="-285" on="0"/>
        <pt x="206" y="-160" on="0"/>
        <pt x="126" y="4" on="0"/>
        <pt x="77" y="182" on="0"/>
        <pt x="55" y="362" on="0"/>
        <pt x="55" y="442" on="1"/>
        <pt x="55" y="527" on="0"/>
        <pt x="71" y="708" on="0"/>
        <pt x="110" y="887" on="0"/>
        <pt x="174" y="1058" on="0"/>
        <pt x="269" y="1207" on="0"/>
        <pt x="398" y="1328" on="0"/>
        <pt x="483" y="1368" on="1"/>
        <pt x="491" y="1354" on="1"/>
        <pt x="431" y="1305" on="0"/>
        <pt x="340" y="1177" on="0"/>
        <pt x="273" y="1030" on="0"/>
        <pt x="227" y="869" on="0"/>
        <pt x="200" y="706" on="0"/>
        <pt x="188" y="545" on="0"/>
        <pt x="188" y="471" on="1"/>
        <pt x="188" y="402" on="0"/>
        <pt x="207" y="236" on="0"/>
        <pt x="251" y="66" on="0"/>
        <pt x="323" y="-94" on="0"/>
        <pt x="427" y="-218" on="0"/>
        <pt x="567" y="-293" on="0"/>
        <pt x="657" y="-293" on="1"/>
        <pt x="729" y="-293" on="0"/>
        <pt x="842" y="-222" on="0"/>
        <pt x="926" y="-106" on="0"/>
        <pt x="984" y="42" on="0"/>
        <pt x="1020" y="194" on="0"/>
        <pt x="1036" y="337" on="0"/>
        <pt x="1036" y="391" on="1"/>
        <pt x="1036" y="433" on="0"/>
        <pt x="1027" y="548" on="0"/>
        <pt x="1006" y="678" on="0"/>
        <pt x="974" y="816" on="0"/>
        <pt x="926" y="947" on="0"/>
        <pt x="863" y="1063" on="0"/>
        <pt x="781" y="1151" on="0"/>
        <pt x="681" y="1202" on="0"/>
        <pt x="620" y="1202" on="1"/>
        <pt x="566" y="1202" on="0"/>
        <pt x="490" y="1151" on="0"/>
        <pt x="443" y="1071" on="0"/>
        <pt x="422" y="974" on="0"/>
        <pt x="422" y="928" on="1"/>
        <pt x="422" y="922" on="0"/>
        <pt x="422" y="907" on="0"/>
        <pt x="424" y="901" on="1"/>
        <pt x="409" y="899" on="1"/>
        <pt x="406" y="921" on="0"/>
        <pt x="401" y="966" on="0"/>
        <pt x="401" y="989" on="1"/>
        <pt x="401" y="1051" on="0"/>
        <pt x="434" y="1168" on="0"/>
        <pt x="500" y="1258" on="0"/>
        <pt x="601" y="1313" on="0"/>
        <pt x="669" y="1313" on="1"/>
        <pt x="764" y="1313" on="0"/>
        <pt x="909" y="1231" on="0"/>
        <pt x="1016" y="1097" on="0"/>
        <pt x="1087" y="924" on="0"/>
        <pt x="1131" y="743" on="0"/>
        <pt x="1149" y="567" on="0"/>
      </contour>
    </TTGlyph>
    <TTGlyph name="OE" xMin="55" yMin="-375" xMax="2103" yMax="1380">
      <contour>
        <pt x="2103" y="1120" on="1"/>
        <pt x="2103" y="1048" on="0"/>
        <pt x="2056" y="935" on="0"/>
        <pt x="1976" y="847" on="0"/>
        <pt x="1869" y="783" on="0"/>
        <pt x="1749" y="739" on="0"/>
        <pt x="1622" y="714" on="0"/>
        <pt x="1562" y="709" on="1"/>
        <pt x="1562" y="727" on="1"/>
        <pt x="1628" y="750" on="0"/>
        <pt x="1769" y="826" on="0"/>
        <pt x="1884" y="929" on="0"/>
        <pt x="1959" y="1060" on="0"/>
        <pt x="1959" y="1139" on="1"/>
        <pt x="1959" y="1225" on="0"/>
        <pt x="1865" y="1327" on="0"/>
        <pt x="1777" y="1327" on="1"/>
        <pt x="1708" y="1327" on="0"/>
        <pt x="1572" y="1284" on="0"/>
        <pt x="1448" y="1207" on="0"/>
        <pt x="1341" y="1103" on="0"/>
        <pt x="1263" y="980" on="0"/>
        <pt x="1218" y="845" on="0"/>
        <pt x="1218" y="776" on="1"/>
        <pt x="1218" y="701" on="0"/>
        <pt x="1280" y="575" on="0"/>
        <pt x="1380" y="477" on="0"/>
        <pt x="1508" y="410" on="0"/>
        <pt x="1574" y="393" on="1"/>
        <pt x="1574" y="375" on="1"/>
        <pt x="1542" y="362" on="0"/>
        <pt x="1470" y="318" on="0"/>
        <pt x="1397" y="260" on="0"/>
        <pt x="1330" y="188" on="0"/>
        <pt x="1278" y="108" on="0"/>
        <pt x="1247" y="21" on="0"/>
        <pt x="1247" y="-24" on="1"/>
        <pt x="1247" y="-140" on="0"/>
        <pt x="1362" y="-260" on="0"/>
        <pt x="1478" y="-260" on="1"/>
        <pt x="1543" y="-260" on="0"/>
        <pt x="1662" y="-225" on="0"/>
        <pt x="1765" y="-160" on="0"/>
        <pt x="1851" y="-68" on="0"/>
        <pt x="1883" y="-12" on="1"/>
        <pt x="1896" y="-18" on="1"/>
        <pt x="1869" y="-90" on="0"/>
        <pt x="1767" y="-220" on="0"/>
        <pt x="1633" y="-318" on="0"/>
        <pt x="1474" y="-375" on="0"/>
        <pt x="1390" y="-375" on="1"/>
        <pt x="1325" y="-375" on="0"/>
        <pt x="1215" y="-337" on="0"/>
        <pt x="1135" y="-263" on="0"/>
        <pt x="1089" y="-154" on="0"/>
        <pt x="1089" y="-82" on="1"/>
        <pt x="1089" y="61" on="0"/>
        <pt x="1259" y="278" on="0"/>
        <pt x="1427" y="350" on="1"/>
        <pt x="1339" y="350" on="0"/>
        <pt x="1198" y="408" on="0"/>
        <pt x="1148" y="462" on="1"/>
        <pt x="1145" y="380" on="0"/>
        <pt x="1113" y="194" on="0"/>
        <pt x="1050" y="12" on="0"/>
        <pt x="958" y="-156" on="0"/>
        <pt x="833" y="-284" on="0"/>
        <pt x="674" y="-360" on="0"/>
        <pt x="577" y="-360" on="1"/>
        <pt x="477" y="-360" on="0"/>
        <pt x="322" y="-285" on="0"/>
        <pt x="206" y="-160" on="0"/>
        <pt x="126" y="4" on="0"/>
        <pt x="77" y="182" on="0"/>
        <pt x="55" y="362" on="0"/>
        <pt x="55" y="442" on="1"/>
        <pt x="55" y="527" on="0"/>
        <pt x="71" y="708" on="0"/>
        <pt x="110" y="887" on="0"/>
        <pt x="174" y="1058" on="0"/>
        <pt x="269" y="1207" on="0"/>
        <pt x="398" y="1328" on="0"/>
        <pt x="483" y="1368" on="1"/>
        <pt x="491" y="1354" on="1"/>
        <pt x="431" y="1305" on="0"/>
        <pt x="340" y="1177" on="0"/>
        <pt x="273" y="1030" on="0"/>
        <pt x="227" y="869" on="0"/>
        <pt x="200" y="706" on="0"/>
        <pt x="188" y="545" on="0"/>
        <pt x="188" y="471" on="1"/>
        <pt x="188" y="402" on="0"/>
        <pt x="207" y="236" on="0"/>
        <pt x="251" y="66" on="0"/>
        <pt x="323" y="-94" on="0"/>
        <pt x="427" y="-218" on="0"/>
        <pt x="567" y="-293" on="0"/>
        <pt x="657" y="-293" on="1"/>
        <pt x="729" y="-293" on="0"/>
        <pt x="842" y="-222" on="0"/>
        <pt x="926" y="-106" on="0"/>
        <pt x="984" y="42" on="0"/>
        <pt x="1020" y="194" on="0"/>
        <pt x="1036" y="337" on="0"/>
        <pt x="1036" y="391" on="1"/>
        <pt x="1036" y="433" on="0"/>
        <pt x="1027" y="548" on="0"/>
        <pt x="1006" y="678" on="0"/>
        <pt x="974" y="816" on="0"/>
        <pt x="926" y="947" on="0"/>
        <pt x="863" y="1063" on="0"/>
        <pt x="781" y="1151" on="0"/>
        <pt x="681" y="1202" on="0"/>
        <pt x="620" y="1202" on="1"/>
        <pt x="566" y="1202" on="0"/>
        <pt x="490" y="1151" on="0"/>
        <pt x="443" y="1071" on="0"/>
        <pt x="422" y="974" on="0"/>
        <pt x="422" y="928" on="1"/>
        <pt x="422" y="922" on="0"/>
        <pt x="422" y="907" on="0"/>
        <pt x="424" y="901" on="1"/>
        <pt x="409" y="899" on="1"/>
        <pt x="406" y="921" on="0"/>
        <pt x="401" y="966" on="0"/>
        <pt x="401" y="989" on="1"/>
        <pt x="401" y="1051" on="0"/>
        <pt x="434" y="1168" on="0"/>
        <pt x="500" y="1258" on="0"/>
        <pt x="601" y="1313" on="0"/>
        <pt x="669" y="1313" on="1"/>
        <pt x="754" y="1313" on="0"/>
        <pt x="889" y="1246" on="0"/>
        <pt x="991" y="1134" on="0"/>
        <pt x="1065" y="987" on="0"/>
        <pt x="1089" y="906" on="1"/>
        <pt x="1115" y="970" on="0"/>
        <pt x="1199" y="1090" on="0"/>
        <pt x="1307" y="1196" on="0"/>
        <pt x="1433" y="1283" on="0"/>
        <pt x="1570" y="1345" on="0"/>
        <pt x="1714" y="1380" on="0"/>
        <pt x="1785" y="1380" on="1"/>
        <pt x="1849" y="1380" on="0"/>
        <pt x="1965" y="1353" on="0"/>
        <pt x="2052" y="1292" on="0"/>
        <pt x="2103" y="1192" on="0"/>
      </contour>
    </TTGlyph>
    <TTGlyph name="Oacute" xMin="55" yMin="-360" xMax="1149" yMax="1728">
      <component glyphName="O" x="0" y="0" flags="0x204"/>
      <component glyphName="acute" x="427" y="754" flags="0x4"/>
    </TTGlyph>
    <TTGlyph name="Obreve" xMin="55" yMin="-360" xMax="1149" yMax="1653">
      <component glyphName="O" x="0" y="0" flags="0x204"/>
      <component glyphName="breve" x="389" y="754" flags="0x4"/>
    </TTGlyph>
    <TTGlyph name="Ocircumflex" xMin="55" yMin="-360" xMax="1149" yMax="1718">
      <component glyphName="O" x="0" y="0" flags="0x204"/>
      <component glyphName="circumflex" x="390" y="754" flags="0x4"/>
    </TTGlyph>
    <TTGlyph name="Odieresis" xMin="55" yMin="-360" xMax="1149" yMax="1628">
      <component glyphName="O" x="0" y="0" flags="0x204"/>
      <component glyphName="dieresis" x="390" y="754" flags="0x4"/>
    </TTGlyph>
    <TTGlyph name="Ograve" xMin="55" yMin="-360" xMax="1149" yMax="1728">
      <component glyphName="O" x="0" y="0" flags="0x204"/>
      <component glyphName="grave" x="343" y="754" flags="0x4"/>
    </TTGlyph>
    <TTGlyph name="Ohungarumlaut" xMin="55" yMin="-360" xMax="1149" yMax="1685">
      <component glyphName="O" x="0" y="0" flags="0x204"/>
      <component glyphName="hungarumlaut" x="484" y="754" flags="0x4"/>
    </TTGlyph>
    <TTGlyph name="Omacron" xMin="55" yMin="-360" xMax="1149" yMax="1585">
      <component glyphName="O" x="0" y="0" flags="0x204"/>
      <component glyphName="macron" x="390" y="754" flags="0x4"/>
    </TTGlyph>
    <TTGlyph name="Oslash" xMin="55" yMin="-370" xMax="1149" yMax="1375">
      <contour>
        <pt x="204" y="-370" on="1"/>
        <pt x="178" y="-356" on="1"/>
        <pt x="251" y="-208" on="1"/>
        <pt x="197" y="-145" on="0"/>
        <pt x="122" y="16" on="0"/>
        <pt x="75" y="190" on="0"/>
        <pt x="55" y="365" on="0"/>
        <pt x="55" y="442" on="1"/>
        <pt x="55" y="527" on="0"/>
        <pt x="71" y="708" on="0"/>
        <pt x="110" y="887" on="0"/>
        <pt x="174" y="1058" on="0"/>
        <pt x="269" y="1207" on="0"/>
        <pt x="398" y="1328" on="0"/>
        <pt x="483" y="1368" on="1"/>
        <pt x="491" y="1354" on="1"/>
        <pt x="431" y="1305" on="0"/>
        <pt x="340" y="1177" on="0"/>
        <pt x="273" y="1030" on="0"/>
        <pt x="227" y="869" on="0"/>
        <pt x="200" y="706" on="0"/>
        <pt x="188" y="545" on="0"/>
        <pt x="188" y="471" on="1"/>
        <pt x="188" y="412" on="0"/>
        <pt x="202" y="274" on="0"/>
        <pt x="232" y="130" on="0"/>
        <pt x="281" y="-12" on="0"/>
        <pt x="317" y="-73" on="1"/>
        <pt x="870" y="1044" on="1"/>
        <pt x="824" y="1115" on="0"/>
        <pt x="701" y="1202" on="0"/>
        <pt x="620" y="1202" on="1"/>
        <pt x="566" y="1202" on="0"/>
        <pt x="490" y="1151" on="0"/>
        <pt x="443" y="1071" on="0"/>
        <pt x="422" y="974" on="0"/>
        <pt x="422" y="928" on="1"/>
        <pt x="422" y="922" on="0"/>
        <pt x="422" y="907" on="0"/>
        <pt x="424" y="901" on="1"/>
        <pt x="409" y="899" on="1"/>
        <pt x="406" y="921" on="0"/>
        <pt x="401" y="966" on="0"/>
        <pt x="401" y="989" on="1"/>
        <pt x="401" y="1051" on="0"/>
        <pt x="434" y="1168" on="0"/>
        <pt x="500" y="1258" on="0"/>
        <pt x="601" y="1313" on="0"/>
        <pt x="669" y="1313" on="1"/>
        <pt x="755" y="1313" on="0"/>
        <pt x="890" y="1245" on="0"/>
        <pt x="941" y="1188" on="1"/>
        <pt x="1034" y="1375" on="1"/>
        <pt x="1110" y="1330" on="1"/>
        <pt x="996" y="1116" on="1"/>
        <pt x="1039" y="1048" on="0"/>
        <pt x="1098" y="886" on="0"/>
        <pt x="1134" y="720" on="0"/>
        <pt x="1149" y="561" on="0"/>
        <pt x="1149" y="496" on="1"/>
        <pt x="1149" y="415" on="0"/>
        <pt x="1120" y="224" on="0"/>
        <pt x="1060" y="34" on="0"/>
        <pt x="968" y="-143" on="0"/>
        <pt x="841" y="-278" on="0"/>
        <pt x="678" y="-360" on="0"/>
        <pt x="577" y="-360" on="1"/>
        <pt x="481" y="-360" on="0"/>
        <pt x="333" y="-292" on="0"/>
        <pt x="276" y="-235" on="1"/>
      </contour>
      <contour>
        <pt x="657" y="-293" on="1"/>
        <pt x="729" y="-293" on="0"/>
        <pt x="842" y="-222" on="0"/>
        <pt x="926" y="-106" on="0"/>
        <pt x="984" y="42" on="0"/>
        <pt x="1020" y="194" on="0"/>
        <pt x="1036" y="337" on="0"/>
        <pt x="1036" y="391" on="1"/>
        <pt x="1036" y="440" on="0"/>
        <pt x="1023" y="579" on="0"/>
        <pt x="995" y="734" on="0"/>
        <pt x="949" y="893" on="0"/>
        <pt x="915" y="964" on="1"/>
        <pt x="341" y="-112" on="1"/>
        <pt x="368" y="-152" on="0"/>
        <pt x="434" y="-219" on="0"/>
        <pt x="513" y="-267" on="0"/>
        <pt x="604" y="-293" on="0"/>
      </contour>
    </TTGlyph>
    <TTGlyph name="Oslashacute" xMin="55" yMin="-370" xMax="1149" yMax="1717">
      <component glyphName="Oslash" x="0" y="0" flags="0x204"/>
      <component glyphName="acute" x="465" y="743" flags="0x4"/>
    </TTGlyph>
    <TTGlyph name="Otilde" xMin="55" yMin="-360" xMax="1149" yMax="1631">
      <component glyphName="O" x="0" y="0" flags="0x204"/>
      <component glyphName="tilde" x="390" y="754" flags="0x4"/>
    </TTGlyph>
    <TTGlyph name="P" xMin="30" yMin="-352" xMax="1150" yMax="1384">
      <contour>
        <pt x="503" y="-324" on="1"/>
        <pt x="503" y="-352" on="0"/>
        <pt x="472" y="-352" on="1"/>
        <pt x="452" y="-352" on="0"/>
        <pt x="416" y="-337" on="0"/>
        <pt x="401" y="-328" on="1"/>
        <pt x="370" y="-311" on="0"/>
        <pt x="323" y="-245" on="0"/>
        <pt x="290" y="-159" on="0"/>
        <pt x="267" y="-58" on="0"/>
        <pt x="253" y="46" on="0"/>
        <pt x="245" y="148" on="0"/>
        <pt x="244" y="192" on="1"/>
        <pt x="215" y="203" on="0"/>
        <pt x="156" y="231" on="0"/>
        <pt x="109" y="266" on="0"/>
        <pt x="79" y="307" on="0"/>
        <pt x="79" y="330" on="1"/>
        <pt x="79" y="348" on="0"/>
        <pt x="96" y="377" on="0"/>
        <pt x="116" y="377" on="1"/>
        <pt x="133" y="377" on="0"/>
        <pt x="163" y="362" on="0"/>
        <pt x="193" y="338" on="0"/>
        <pt x="225" y="307" on="0"/>
        <pt x="243" y="291" on="1"/>
        <pt x="243" y="393" on="0"/>
        <pt x="257" y="622" on="0"/>
        <pt x="293" y="851" on="0"/>
        <pt x="354" y="1069" on="0"/>
        <pt x="401" y="1161" on="1"/>
        <pt x="419" y="1155" on="1"/>
        <pt x="385" y="982" on="0"/>
        <pt x="354" y="635" on="0"/>
        <pt x="354" y="461" on="1"/>
        <pt x="354" y="397" on="0"/>
        <pt x="361" y="272" on="0"/>
        <pt x="368" y="210" on="1"/>
        <pt x="398" y="198" on="0"/>
        <pt x="472" y="184" on="0"/>
        <pt x="517" y="184" on="1"/>
        <pt x="593" y="184" on="0"/>
        <pt x="724" y="230" on="0"/>
        <pt x="833" y="311" on="0"/>
        <pt x="917" y="421" on="0"/>
        <pt x="975" y="548" on="0"/>
        <pt x="1005" y="685" on="0"/>
        <pt x="1005" y="754" on="1"/>
        <pt x="1005" y="822" on="0"/>
        <pt x="975" y="963" on="0"/>
        <pt x="916" y="1096" on="0"/>
        <pt x="831" y="1212" on="0"/>
        <pt x="721" y="1299" on="0"/>
        <pt x="588" y="1350" on="0"/>
        <pt x="511" y="1350" on="1"/>
        <pt x="448" y="1350" on="0"/>
        <pt x="314" y="1304" on="0"/>
        <pt x="205" y="1221" on="0"/>
        <pt x="134" y="1105" on="0"/>
        <pt x="134" y="1036" on="1"/>
        <pt x="134" y="1009" on="0"/>
        <pt x="147" y="966" on="0"/>
        <pt x="162" y="930" on="0"/>
        <pt x="175" y="899" on="0"/>
        <pt x="175" y="883" on="1"/>
        <pt x="175" y="854" on="0"/>
        <pt x="136" y="815" on="0"/>
        <pt x="108" y="815" on="1"/>
        <pt x="82" y="815" on="0"/>
        <pt x="52" y="843" on="0"/>
        <pt x="35" y="885" on="0"/>
        <pt x="30" y="932" on="0"/>
        <pt x="30" y="950" on="1"/>
        <pt x="30" y="1038" on="0"/>
        <pt x="113" y="1181" on="0"/>
        <pt x="180" y="1237" on="1"/>
        <pt x="222" y="1273" on="0"/>
        <pt x="307" y="1328" on="0"/>
        <pt x="397" y="1365" on="0"/>
        <pt x="496" y="1384" on="0"/>
        <pt x="552" y="1384" on="1"/>
        <pt x="682" y="1384" on="0"/>
        <pt x="902" y="1295" on="0"/>
        <pt x="1061" y="1136" on="0"/>
        <pt x="1150" y="917" on="0"/>
        <pt x="1150" y="786" on="1"/>
        <pt x="1150" y="651" on="0"/>
        <pt x="1055" y="416" on="0"/>
        <pt x="886" y="241" on="0"/>
        <pt x="654" y="141" on="0"/>
        <pt x="517" y="141" on="1"/>
        <pt x="482" y="141" on="0"/>
        <pt x="410" y="149" on="0"/>
        <pt x="375" y="155" on="1"/>
        <pt x="408" y="-71" on="0"/>
        <pt x="495" y="-291" on="1"/>
        <pt x="498" y="-299" on="0"/>
        <pt x="503" y="-316" on="0"/>
      </contour>
    </TTGlyph>
    <TTGlyph name="Q" xMin="55" yMin="-511" xMax="1368" yMax="1368">
      <contour>
        <pt x="1149" y="496" on="1"/>
        <pt x="1149" y="432" on="0"/>
        <pt x="1131" y="285" on="0"/>
        <pt x="1094" y="134" on="0"/>
        <pt x="1037" y="-15" on="0"/>
        <pt x="960" y="-148" on="0"/>
        <pt x="861" y="-259" on="0"/>
        <pt x="800" y="-296" on="1"/>
        <pt x="887" y="-354" on="0"/>
        <pt x="1085" y="-421" on="0"/>
        <pt x="1185" y="-421" on="1"/>
        <pt x="1282" y="-421" on="0"/>
        <pt x="1358" y="-359" on="1"/>
        <pt x="1368" y="-378" on="1"/>
        <pt x="1305" y="-435" on="0"/>
        <pt x="1153" y="-511" on="0"/>
        <pt x="1067" y="-511" on="1"/>
        <pt x="944" y="-511" on="0"/>
        <pt x="755" y="-421" on="0"/>
        <pt x="687" y="-346" on="1"/>
        <pt x="633" y="-360" on="0"/>
        <pt x="577" y="-360" on="1"/>
        <pt x="477" y="-360" on="0"/>
        <pt x="322" y="-285" on="0"/>
        <pt x="206" y="-160" on="0"/>
        <pt x="126" y="4" on="0"/>
        <pt x="77" y="182" on="0"/>
        <pt x="55" y="362" on="0"/>
        <pt x="55" y="442" on="1"/>
        <pt x="55" y="527" on="0"/>
        <pt x="71" y="708" on="0"/>
        <pt x="110" y="887" on="0"/>
        <pt x="174" y="1058" on="0"/>
        <pt x="269" y="1207" on="0"/>
        <pt x="398" y="1328" on="0"/>
        <pt x="483" y="1368" on="1"/>
        <pt x="491" y="1354" on="1"/>
        <pt x="431" y="1305" on="0"/>
        <pt x="340" y="1177" on="0"/>
        <pt x="273" y="1030" on="0"/>
        <pt x="227" y="869" on="0"/>
        <pt x="200" y="706" on="0"/>
        <pt x="188" y="545" on="0"/>
        <pt x="188" y="471" on="1"/>
        <pt x="188" y="403" on="0"/>
        <pt x="207" y="239" on="0"/>
        <pt x="250" y="71" on="0"/>
        <pt x="319" y="-88" on="0"/>
        <pt x="420" y="-212" on="0"/>
        <pt x="556" y="-289" on="0"/>
        <pt x="644" y="-292" on="1"/>
        <pt x="592" y="-218" on="0"/>
        <pt x="533" y="-42" on="0"/>
        <pt x="526" y="49" on="1"/>
        <pt x="538" y="55" on="1"/>
        <pt x="558" y="-38" on="0"/>
        <pt x="678" y="-204" on="0"/>
        <pt x="763" y="-269" on="1"/>
        <pt x="814" y="-245" on="0"/>
        <pt x="895" y="-154" on="0"/>
        <pt x="955" y="-39" on="0"/>
        <pt x="998" y="93" on="0"/>
        <pt x="1024" y="224" on="0"/>
        <pt x="1036" y="344" on="0"/>
        <pt x="1036" y="391" on="1"/>
        <pt x="1036" y="433" on="0"/>
        <pt x="1027" y="548" on="0"/>
        <pt x="1006" y="678" on="0"/>
        <pt x="974" y="816" on="0"/>
        <pt x="926" y="947" on="0"/>
        <pt x="863" y="1063" on="0"/>
        <pt x="781" y="1151" on="0"/>
        <pt x="681" y="1202" on="0"/>
        <pt x="620" y="1202" on="1"/>
        <pt x="566" y="1202" on="0"/>
        <pt x="490" y="1151" on="0"/>
        <pt x="443" y="1071" on="0"/>
        <pt x="422" y="974" on="0"/>
        <pt x="422" y="928" on="1"/>
        <pt x="422" y="922" on="0"/>
        <pt x="422" y="907" on="0"/>
        <pt x="424" y="901" on="1"/>
        <pt x="409" y="899" on="1"/>
        <pt x="406" y="921" on="0"/>
        <pt x="401" y="966" on="0"/>
        <pt x="401" y="989" on="1"/>
        <pt x="401" y="1051" on="0"/>
        <pt x="434" y="1168" on="0"/>
        <pt x="500" y="1258" on="0"/>
        <pt x="601" y="1313" on="0"/>
        <pt x="669" y="1313" on="1"/>
        <pt x="764" y="1313" on="0"/>
        <pt x="909" y="1231" on="0"/>
        <pt x="1016" y="1097" on="0"/>
        <pt x="1087" y="924" on="0"/>
        <pt x="1131" y="743" on="0"/>
        <pt x="1149" y="567" on="0"/>
      </contour>
    </TTGlyph>
    <TTGlyph name="R" xMin="30" yMin="-511" xMax="1571" yMax="1384">
      <contour>
        <pt x="503" y="1133" on="1"/>
        <pt x="503" y="1123" on="0"/>
        <pt x="498" y="1108" on="0"/>
        <pt x="495" y="1100" on="1"/>
        <pt x="478" y="1060" on="0"/>
        <pt x="440" y="983" on="0"/>
        <pt x="429" y="940" on="1"/>
        <pt x="392" y="790" on="0"/>
        <pt x="355" y="484" on="0"/>
        <pt x="349" y="329" on="1"/>
        <pt x="414" y="315" on="0"/>
        <pt x="517" y="251" on="0"/>
        <pt x="566" y="207" on="1"/>
        <pt x="661" y="247" on="0"/>
        <pt x="816" y="367" on="0"/>
        <pt x="926" y="523" on="0"/>
        <pt x="986" y="713" on="0"/>
        <pt x="986" y="821" on="1"/>
        <pt x="986" y="881" on="0"/>
        <pt x="951" y="1006" on="0"/>
        <pt x="888" y="1124" on="0"/>
        <pt x="801" y="1228" on="0"/>
        <pt x="695" y="1305" on="0"/>
        <pt x="574" y="1350" on="0"/>
        <pt x="509" y="1350" on="1"/>
        <pt x="447" y="1350" on="0"/>
        <pt x="314" y="1304" on="0"/>
        <pt x="204" y="1221" on="0"/>
        <pt x="134" y="1105" on="0"/>
        <pt x="134" y="1036" on="1"/>
        <pt x="134" y="1009" on="0"/>
        <pt x="147" y="966" on="0"/>
        <pt x="162" y="930" on="0"/>
        <pt x="175" y="899" on="0"/>
        <pt x="175" y="883" on="1"/>
        <pt x="175" y="854" on="0"/>
        <pt x="136" y="815" on="0"/>
        <pt x="108" y="815" on="1"/>
        <pt x="82" y="815" on="0"/>
        <pt x="52" y="843" on="0"/>
        <pt x="35" y="885" on="0"/>
        <pt x="30" y="932" on="0"/>
        <pt x="30" y="950" on="1"/>
        <pt x="30" y="1038" on="0"/>
        <pt x="114" y="1180" on="0"/>
        <pt x="180" y="1237" on="1"/>
        <pt x="222" y="1273" on="0"/>
        <pt x="307" y="1327" on="0"/>
        <pt x="398" y="1365" on="0"/>
        <pt x="496" y="1384" on="0"/>
        <pt x="552" y="1384" on="1"/>
        <pt x="632" y="1384" on="0"/>
        <pt x="781" y="1344" on="0"/>
        <pt x="912" y="1270" on="0"/>
        <pt x="1021" y="1166" on="0"/>
        <pt x="1099" y="1038" on="0"/>
        <pt x="1142" y="889" on="0"/>
        <pt x="1142" y="807" on="1"/>
        <pt x="1142" y="686" on="0"/>
        <pt x="1055" y="482" on="0"/>
        <pt x="907" y="321" on="0"/>
        <pt x="711" y="204" on="0"/>
        <pt x="603" y="171" on="1"/>
        <pt x="614" y="160" on="0"/>
        <pt x="635" y="140" on="0"/>
        <pt x="646" y="129" on="1"/>
        <pt x="706" y="70" on="0"/>
        <pt x="825" y="-62" on="0"/>
        <pt x="951" y="-192" on="0"/>
        <pt x="1085" y="-311" on="0"/>
        <pt x="1235" y="-402" on="0"/>
        <pt x="1404" y="-456" on="0"/>
        <pt x="1501" y="-456" on="1"/>
        <pt x="1518" y="-456" on="0"/>
        <pt x="1549" y="-453" on="0"/>
        <pt x="1566" y="-448" on="1"/>
        <pt x="1571" y="-468" on="1"/>
        <pt x="1527" y="-491" on="0"/>
        <pt x="1429" y="-511" on="0"/>
        <pt x="1378" y="-511" on="1"/>
        <pt x="1272" y="-511" on="0"/>
        <pt x="1098" y="-468" on="0"/>
        <pt x="950" y="-390" on="0"/>
        <pt x="824" y="-281" on="0"/>
        <pt x="708" y="-151" on="0"/>
        <pt x="597" y="-4" on="0"/>
        <pt x="538" y="74" on="1"/>
        <pt x="525" y="91" on="0"/>
        <pt x="500" y="126" on="0"/>
        <pt x="488" y="143" on="1"/>
        <pt x="452" y="137" on="0"/>
        <pt x="381" y="130" on="0"/>
        <pt x="346" y="129" on="1"/>
        <pt x="346" y="7" on="0"/>
        <pt x="358" y="-231" on="0"/>
        <pt x="366" y="-346" on="1"/>
        <pt x="347" y="-352" on="1"/>
        <pt x="306" y="-246" on="0"/>
        <pt x="263" y="6" on="0"/>
        <pt x="252" y="134" on="1"/>
        <pt x="226" y="138" on="0"/>
        <pt x="176" y="152" on="0"/>
        <pt x="135" y="177" on="0"/>
        <pt x="110" y="214" on="0"/>
        <pt x="110" y="240" on="1"/>
        <pt x="110" y="264" on="0"/>
        <pt x="134" y="299" on="0"/>
        <pt x="173" y="322" on="0"/>
        <pt x="219" y="335" on="0"/>
        <pt x="242" y="337" on="1"/>
        <pt x="241" y="365" on="0"/>
        <pt x="241" y="420" on="0"/>
        <pt x="241" y="446" on="1"/>
        <pt x="241" y="487" on="0"/>
        <pt x="242" y="609" on="0"/>
        <pt x="251" y="747" on="0"/>
        <pt x="271" y="890" on="0"/>
        <pt x="306" y="1016" on="0"/>
        <pt x="361" y="1114" on="0"/>
        <pt x="401" y="1137" on="1"/>
        <pt x="416" y="1146" on="0"/>
        <pt x="452" y="1161" on="0"/>
        <pt x="472" y="1161" on="1"/>
        <pt x="503" y="1161" on="0"/>
      </contour>
      <contour>
        <pt x="145" y="236" on="1"/>
        <pt x="145" y="222" on="0"/>
        <pt x="163" y="200" on="0"/>
        <pt x="193" y="183" on="0"/>
        <pt x="230" y="171" on="0"/>
        <pt x="250" y="167" on="1"/>
        <pt x="248" y="201" on="0"/>
        <pt x="245" y="268" on="0"/>
        <pt x="243" y="301" on="1"/>
        <pt x="226" y="301" on="0"/>
        <pt x="191" y="297" on="0"/>
        <pt x="163" y="283" on="0"/>
        <pt x="145" y="258" on="0"/>
      </contour>
      <contour>
        <pt x="346" y="158" on="1"/>
        <pt x="377" y="158" on="0"/>
        <pt x="437" y="166" on="0"/>
        <pt x="466" y="173" on="1"/>
        <pt x="441" y="207" on="0"/>
        <pt x="384" y="264" on="0"/>
        <pt x="347" y="281" on="1"/>
        <pt x="346" y="250" on="0"/>
        <pt x="346" y="189" on="0"/>
      </contour>
    </TTGlyph>
    <TTGlyph name="Racute" xMin="30" yMin="-511" xMax="1571" yMax="1778">
      <component glyphName="R" x="0" y="0" flags="0x204"/>
      <component glyphName="acute" x="348" y="804" flags="0x4"/>
    </TTGlyph>
    <TTGlyph name="Rcaron" xMin="30" yMin="-511" xMax="1571" yMax="1768">
      <component glyphName="R" x="0" y="0" flags="0x204"/>
      <component glyphName="caron" x="311" y="804" flags="0x4"/>
    </TTGlyph>
    <TTGlyph name="Rcommaaccent" xMin="30" yMin="-511" xMax="1571" yMax="1384">
      <component glyphName="R" x="0" y="0" flags="0x204"/>
      <component glyphName="commaaccent" x="306" y="-130" flags="0x4"/>
    </TTGlyph>
    <TTGlyph name="S" xMin="60" yMin="-379" xMax="1154" yMax="1376">
      <contour>
        <pt x="1154" y="1098" on="1"/>
        <pt x="1154" y="1016" on="0"/>
        <pt x="1073" y="874" on="0"/>
        <pt x="944" y="770" on="0"/>
        <pt x="786" y="711" on="0"/>
        <pt x="709" y="713" on="1"/>
        <pt x="693" y="713" on="1"/>
        <pt x="693" y="731" on="1"/>
        <pt x="759" y="745" on="0"/>
        <pt x="876" y="814" on="0"/>
        <pt x="963" y="914" on="0"/>
        <pt x="1014" y="1038" on="0"/>
        <pt x="1014" y="1106" on="1"/>
        <pt x="1014" y="1151" on="0"/>
        <pt x="992" y="1231" on="0"/>
        <pt x="946" y="1289" on="0"/>
        <pt x="875" y="1323" on="0"/>
        <pt x="826" y="1323" on="1"/>
        <pt x="756" y="1323" on="0"/>
        <pt x="612" y="1281" on="0"/>
        <pt x="478" y="1205" on="0"/>
        <pt x="361" y="1101" on="0"/>
        <pt x="274" y="977" on="0"/>
        <pt x="224" y="837" on="0"/>
        <pt x="224" y="764" on="1"/>
        <pt x="224" y="686" on="0"/>
        <pt x="269" y="573" on="0"/>
        <pt x="346" y="488" on="0"/>
        <pt x="448" y="428" on="0"/>
        <pt x="564" y="379" on="0"/>
        <pt x="685" y="337" on="0"/>
        <pt x="801" y="289" on="0"/>
        <pt x="903" y="230" on="0"/>
        <pt x="980" y="149" on="0"/>
        <pt x="1025" y="38" on="0"/>
        <pt x="1025" y="-37" on="1"/>
        <pt x="1025" y="-119" on="0"/>
        <pt x="958" y="-247" on="0"/>
        <pt x="848" y="-334" on="0"/>
        <pt x="706" y="-379" on="0"/>
        <pt x="631" y="-379" on="1"/>
        <pt x="550" y="-379" on="0"/>
        <pt x="412" y="-324" on="0"/>
        <pt x="302" y="-231" on="0"/>
        <pt x="220" y="-110" on="0"/>
        <pt x="195" y="-45" on="1"/>
        <pt x="210" y="-37" on="1"/>
        <pt x="240" y="-90" on="0"/>
        <pt x="318" y="-193" on="0"/>
        <pt x="416" y="-274" on="0"/>
        <pt x="535" y="-324" on="0"/>
        <pt x="605" y="-324" on="1"/>
        <pt x="662" y="-324" on="0"/>
        <pt x="760" y="-292" on="0"/>
        <pt x="832" y="-232" on="0"/>
        <pt x="873" y="-144" on="0"/>
        <pt x="873" y="-88" on="1"/>
        <pt x="873" y="-6" on="0"/>
        <pt x="803" y="100" on="0"/>
        <pt x="689" y="174" on="0"/>
        <pt x="543" y="226" on="0"/>
        <pt x="390" y="279" on="0"/>
        <pt x="244" y="346" on="0"/>
        <pt x="130" y="448" on="0"/>
        <pt x="60" y="599" on="0"/>
        <pt x="60" y="709" on="1"/>
        <pt x="60" y="809" on="0"/>
        <pt x="122" y="986" on="0"/>
        <pt x="231" y="1134" on="0"/>
        <pt x="379" y="1251" on="0"/>
        <pt x="550" y="1333" on="0"/>
        <pt x="736" y="1376" on="0"/>
        <pt x="830" y="1376" on="1"/>
        <pt x="897" y="1376" on="0"/>
        <pt x="1016" y="1344" on="0"/>
        <pt x="1103" y="1277" on="0"/>
        <pt x="1154" y="1171" on="0"/>
      </contour>
    </TTGlyph>
    <TTGlyph name="Sacute" xMin="60" yMin="-379" xMax="1154" yMax="1772">
      <component glyphName="S" x="0" y="0" flags="0x204"/>
      <component glyphName="acute" x="547" y="798" flags="0x4"/>
    </TTGlyph>
    <TTGlyph name="Scaron" xMin="60" yMin="-379" xMax="1154" yMax="1762">
      <component glyphName="S" x="0" y="0" flags="0x204"/>
      <component glyphName="caron" x="510" y="798" flags="0x4"/>
    </TTGlyph>
    <TTGlyph name="Scedilla" xMin="60" yMin="-643" xMax="1154" yMax="1376">
      <contour>
        <pt x="597" y="-378" on="1"/>
        <pt x="523" y="-372" on="0"/>
        <pt x="396" y="-313" on="0"/>
        <pt x="294" y="-222" on="0"/>
        <pt x="219" y="-107" on="0"/>
        <pt x="195" y="-45" on="1"/>
        <pt x="210" y="-37" on="1"/>
        <pt x="240" y="-90" on="0"/>
        <pt x="318" y="-193" on="0"/>
        <pt x="416" y="-274" on="0"/>
        <pt x="535" y="-324" on="0"/>
        <pt x="605" y="-324" on="1"/>
        <pt x="662" y="-324" on="0"/>
        <pt x="760" y="-292" on="0"/>
        <pt x="832" y="-232" on="0"/>
        <pt x="873" y="-144" on="0"/>
        <pt x="873" y="-88" on="1"/>
        <pt x="873" y="-6" on="0"/>
        <pt x="803" y="100" on="0"/>
        <pt x="689" y="174" on="0"/>
        <pt x="543" y="226" on="0"/>
        <pt x="390" y="279" on="0"/>
        <pt x="244" y="346" on="0"/>
        <pt x="130" y="448" on="0"/>
        <pt x="60" y="599" on="0"/>
        <pt x="60" y="709" on="1"/>
        <pt x="60" y="809" on="0"/>
        <pt x="122" y="986" on="0"/>
        <pt x="231" y="1134" on="0"/>
        <pt x="379" y="1251" on="0"/>
        <pt x="550" y="1333" on="0"/>
        <pt x="736" y="1376" on="0"/>
        <pt x="830" y="1376" on="1"/>
        <pt x="897" y="1376" on="0"/>
        <pt x="1016" y="1344" on="0"/>
        <pt x="1103" y="1277" on="0"/>
        <pt x="1154" y="1171" on="0"/>
        <pt x="1154" y="1098" on="1"/>
        <pt x="1154" y="1016" on="0"/>
        <pt x="1073" y="874" on="0"/>
        <pt x="944" y="770" on="0"/>
        <pt x="786" y="711" on="0"/>
        <pt x="709" y="713" on="1"/>
        <pt x="693" y="713" on="1"/>
        <pt x="693" y="731" on="1"/>
        <pt x="759" y="745" on="0"/>
        <pt x="876" y="814" on="0"/>
        <pt x="963" y="914" on="0"/>
        <pt x="1014" y="1038" on="0"/>
        <pt x="1014" y="1106" on="1"/>
        <pt x="1014" y="1151" on="0"/>
        <pt x="992" y="1231" on="0"/>
        <pt x="946" y="1289" on="0"/>
        <pt x="875" y="1323" on="0"/>
        <pt x="826" y="1323" on="1"/>
        <pt x="756" y="1323" on="0"/>
        <pt x="612" y="1281" on="0"/>
        <pt x="478" y="1205" on="0"/>
        <pt x="361" y="1101" on="0"/>
        <pt x="274" y="977" on="0"/>
        <pt x="224" y="837" on="0"/>
        <pt x="224" y="764" on="1"/>
        <pt x="224" y="686" on="0"/>
        <pt x="269" y="573" on="0"/>
        <pt x="346" y="488" on="0"/>
        <pt x="448" y="428" on="0"/>
        <pt x="564" y="379" on="0"/>
        <pt x="685" y="337" on="0"/>
        <pt x="801" y="289" on="0"/>
        <pt x="903" y="230" on="0"/>
        <pt x="980" y="149" on="0"/>
        <pt x="1025" y="38" on="0"/>
        <pt x="1025" y="-37" on="1"/>
        <pt x="1025" y="-119" on="0"/>
        <pt x="958" y="-247" on="0"/>
        <pt x="848" y="-334" on="0"/>
        <pt x="706" y="-379" on="0"/>
        <pt x="631" y="-379" on="1"/>
        <pt x="623" y="-414" on="1"/>
        <pt x="641" y="-411" on="0"/>
        <pt x="660" y="-411" on="1"/>
        <pt x="686" y="-411" on="0"/>
        <pt x="732" y="-425" on="0"/>
        <pt x="766" y="-453" on="0"/>
        <pt x="786" y="-494" on="0"/>
        <pt x="786" y="-520" on="1"/>
        <pt x="786" y="-551" on="0"/>
        <pt x="759" y="-597" on="0"/>
        <pt x="716" y="-628" on="0"/>
        <pt x="663" y="-643" on="0"/>
        <pt x="636" y="-643" on="1"/>
        <pt x="606" y="-643" on="0"/>
        <pt x="552" y="-626" on="0"/>
        <pt x="505" y="-601" on="0"/>
        <pt x="469" y="-570" on="0"/>
        <pt x="457" y="-555" on="1"/>
        <pt x="470" y="-540" on="1"/>
        <pt x="506" y="-566" on="0"/>
        <pt x="566" y="-584" on="0"/>
        <pt x="603" y="-584" on="1"/>
        <pt x="642" y="-584" on="0"/>
        <pt x="689" y="-553" on="0"/>
        <pt x="689" y="-522" on="1"/>
        <pt x="689" y="-495" on="0"/>
        <pt x="646" y="-469" on="0"/>
        <pt x="618" y="-469" on="1"/>
        <pt x="605" y="-469" on="0"/>
        <pt x="581" y="-473" on="0"/>
        <pt x="575" y="-475" on="1"/>
      </contour>
    </TTGlyph>
    <TTGlyph name="Scircumflex" xMin="60" yMin="-379" xMax="1154" yMax="1762">
      <component glyphName="S" x="0" y="0" flags="0x204"/>
      <component glyphName="circumflex" x="510" y="798" flags="0x4"/>
    </TTGlyph>
    <TTGlyph name="T" xMin="-110" yMin="-336" xMax="1129" yMax="1438">
      <contour>
        <pt x="572" y="1430" on="1"/>
        <pt x="568" y="1416" on="0"/>
        <pt x="561" y="1373" on="0"/>
        <pt x="557" y="1347" on="1"/>
        <pt x="630" y="1341" on="0"/>
        <pt x="787" y="1321" on="0"/>
        <pt x="937" y="1290" on="0"/>
        <pt x="1074" y="1249" on="0"/>
        <pt x="1129" y="1223" on="1"/>
        <pt x="1121" y="1204" on="1"/>
        <pt x="1011" y="1218" on="0"/>
        <pt x="792" y="1229" on="0"/>
        <pt x="683" y="1229" on="1"/>
        <pt x="648" y="1229" on="0"/>
        <pt x="577" y="1225" on="0"/>
        <pt x="541" y="1223" on="1"/>
        <pt x="533" y="1149" on="0"/>
        <pt x="517" y="968" on="0"/>
        <pt x="504" y="768" on="0"/>
        <pt x="495" y="555" on="0"/>
        <pt x="491" y="342" on="0"/>
        <pt x="494" y="137" on="0"/>
        <pt x="506" y="-48" on="0"/>
        <pt x="528" y="-206" on="0"/>
        <pt x="545" y="-264" on="1"/>
        <pt x="547" y="-273" on="0"/>
        <pt x="554" y="-292" on="0"/>
        <pt x="554" y="-301" on="1"/>
        <pt x="554" y="-317" on="0"/>
        <pt x="538" y="-336" on="0"/>
        <pt x="521" y="-336" on="1"/>
        <pt x="499" y="-336" on="0"/>
        <pt x="456" y="-312" on="0"/>
        <pt x="439" y="-301" on="1"/>
        <pt x="409" y="-281" on="0"/>
        <pt x="377" y="-193" on="0"/>
        <pt x="363" y="-91" on="0"/>
        <pt x="361" y="7" on="0"/>
        <pt x="361" y="39" on="1"/>
        <pt x="361" y="115" on="0"/>
        <pt x="368" y="299" on="0"/>
        <pt x="381" y="502" on="0"/>
        <pt x="401" y="717" on="0"/>
        <pt x="429" y="928" on="0"/>
        <pt x="464" y="1130" on="0"/>
        <pt x="486" y="1219" on="1"/>
        <pt x="412" y="1214" on="0"/>
        <pt x="265" y="1197" on="0"/>
        <pt x="126" y="1173" on="0"/>
        <pt x="-1" y="1144" on="0"/>
        <pt x="-55" y="1126" on="1"/>
        <pt x="-67" y="1120" on="0"/>
        <pt x="-81" y="1120" on="1"/>
        <pt x="-110" y="1120" on="0"/>
        <pt x="-110" y="1149" on="1"/>
        <pt x="-110" y="1169" on="0"/>
        <pt x="-88" y="1211" on="0"/>
        <pt x="-77" y="1227" on="1"/>
        <pt x="-60" y="1251" on="0"/>
        <pt x="7" y="1288" on="0"/>
        <pt x="94" y="1317" on="0"/>
        <pt x="191" y="1336" on="0"/>
        <pt x="283" y="1349" on="0"/>
        <pt x="364" y="1354" on="0"/>
        <pt x="390" y="1354" on="1"/>
        <pt x="420" y="1354" on="0"/>
        <pt x="486" y="1351" on="0"/>
        <pt x="521" y="1349" on="1"/>
        <pt x="537" y="1399" on="0"/>
        <pt x="554" y="1438" on="1"/>
      </contour>
    </TTGlyph>
    <TTGlyph name="Tbar" xMin="-110" yMin="-336" xMax="1129" yMax="1438">
      <contour>
        <pt x="572" y="1430" on="1"/>
        <pt x="568" y="1416" on="0"/>
        <pt x="561" y="1373" on="0"/>
        <pt x="557" y="1347" on="1"/>
        <pt x="630" y="1341" on="0"/>
        <pt x="787" y="1321" on="0"/>
        <pt x="937" y="1290" on="0"/>
        <pt x="1074" y="1249" on="0"/>
        <pt x="1129" y="1223" on="1"/>
        <pt x="1121" y="1204" on="1"/>
        <pt x="1011" y="1218" on="0"/>
        <pt x="792" y="1229" on="0"/>
        <pt x="683" y="1229" on="1"/>
        <pt x="612" y="1227" on="0"/>
        <pt x="541" y="1223" on="1"/>
        <pt x="531" y="1139" on="0"/>
        <pt x="514" y="932" on="0"/>
        <pt x="507" y="816" on="1"/>
        <pt x="551" y="814" on="0"/>
        <pt x="644" y="808" on="0"/>
        <pt x="730" y="798" on="0"/>
        <pt x="805" y="784" on="0"/>
        <pt x="832" y="775" on="1"/>
        <pt x="826" y="756" on="1"/>
        <pt x="806" y="758" on="0"/>
        <pt x="761" y="759" on="0"/>
        <pt x="741" y="759" on="1"/>
        <pt x="687" y="759" on="0"/>
        <pt x="566" y="752" on="0"/>
        <pt x="503" y="747" on="1"/>
        <pt x="496" y="606" on="0"/>
        <pt x="490" y="314" on="0"/>
        <pt x="498" y="45" on="0"/>
        <pt x="522" y="-185" on="0"/>
        <pt x="545" y="-264" on="1"/>
        <pt x="547" y="-273" on="0"/>
        <pt x="554" y="-292" on="0"/>
        <pt x="554" y="-301" on="1"/>
        <pt x="554" y="-317" on="0"/>
        <pt x="538" y="-336" on="0"/>
        <pt x="521" y="-336" on="1"/>
        <pt x="499" y="-336" on="0"/>
        <pt x="456" y="-312" on="0"/>
        <pt x="439" y="-301" on="1"/>
        <pt x="409" y="-280" on="0"/>
        <pt x="377" y="-193" on="0"/>
        <pt x="363" y="-91" on="0"/>
        <pt x="361" y="7" on="0"/>
        <pt x="361" y="39" on="1"/>
        <pt x="361" y="107" on="0"/>
        <pt x="366" y="270" on="0"/>
        <pt x="377" y="450" on="0"/>
        <pt x="393" y="640" on="0"/>
        <pt x="404" y="736" on="1"/>
        <pt x="347" y="729" on="0"/>
        <pt x="241" y="713" on="0"/>
        <pt x="195" y="703" on="1"/>
        <pt x="190" y="702" on="0"/>
        <pt x="182" y="702" on="0"/>
        <pt x="178" y="702" on="1"/>
        <pt x="151" y="702" on="0"/>
        <pt x="122" y="733" on="0"/>
        <pt x="122" y="750" on="1"/>
        <pt x="122" y="778" on="0"/>
        <pt x="175" y="807" on="0"/>
        <pt x="249" y="819" on="0"/>
        <pt x="328" y="820" on="0"/>
        <pt x="354" y="820" on="1"/>
        <pt x="367" y="820" on="0"/>
        <pt x="397" y="820" on="0"/>
        <pt x="414" y="819" on="1"/>
        <pt x="428" y="926" on="0"/>
        <pt x="464" y="1129" on="0"/>
        <pt x="486" y="1219" on="1"/>
        <pt x="412" y="1214" on="0"/>
        <pt x="265" y="1197" on="0"/>
        <pt x="126" y="1173" on="0"/>
        <pt x="-1" y="1144" on="0"/>
        <pt x="-55" y="1126" on="1"/>
        <pt x="-67" y="1120" on="0"/>
        <pt x="-81" y="1120" on="1"/>
        <pt x="-110" y="1120" on="0"/>
        <pt x="-110" y="1149" on="1"/>
        <pt x="-110" y="1169" on="0"/>
        <pt x="-88" y="1211" on="0"/>
        <pt x="-77" y="1227" on="1"/>
        <pt x="-60" y="1251" on="0"/>
        <pt x="7" y="1288" on="0"/>
        <pt x="94" y="1317" on="0"/>
        <pt x="191" y="1336" on="0"/>
        <pt x="283" y="1349" on="0"/>
        <pt x="364" y="1354" on="0"/>
        <pt x="390" y="1354" on="1"/>
        <pt x="420" y="1354" on="0"/>
        <pt x="486" y="1351" on="0"/>
        <pt x="521" y="1349" on="1"/>
        <pt x="537" y="1399" on="0"/>
        <pt x="554" y="1438" on="1"/>
      </contour>
    </TTGlyph>
    <TTGlyph name="Tcaron" xMin="-110" yMin="-336" xMax="1129" yMax="1815">
      <component glyphName="T" x="0" y="0" flags="0x204"/>
      <component glyphName="caron" x="314" y="851" flags="0x4"/>
    </TTGlyph>
    <TTGlyph name="Tcommaaccent" xMin="-110" yMin="-510" xMax="1129" yMax="1438">
      <contour>
        <pt x="572" y="1430" on="1"/>
        <pt x="568" y="1415" on="0"/>
        <pt x="561" y="1373" on="0"/>
        <pt x="556" y="1347" on="1"/>
        <pt x="630" y="1341" on="0"/>
        <pt x="786" y="1321" on="0"/>
        <pt x="937" y="1290" on="0"/>
        <pt x="1074" y="1249" on="0"/>
        <pt x="1129" y="1223" on="1"/>
        <pt x="1121" y="1204" on="1"/>
        <pt x="1011" y="1218" on="0"/>
        <pt x="792" y="1229" on="0"/>
        <pt x="683" y="1229" on="1"/>
        <pt x="612" y="1227" on="0"/>
        <pt x="539" y="1223" on="1"/>
        <pt x="528" y="1132" on="0"/>
        <pt x="509" y="903" on="0"/>
        <pt x="495" y="652" on="0"/>
        <pt x="491" y="394" on="0"/>
        <pt x="499" y="153" on="0"/>
        <pt x="523" y="-57" on="0"/>
        <pt x="545" y="-134" on="1"/>
        <pt x="547" y="-143" on="0"/>
        <pt x="554" y="-162" on="0"/>
        <pt x="554" y="-171" on="1"/>
        <pt x="554" y="-187" on="0"/>
        <pt x="538" y="-206" on="0"/>
        <pt x="521" y="-206" on="1"/>
        <pt x="499" y="-206" on="0"/>
        <pt x="456" y="-182" on="0"/>
        <pt x="439" y="-171" on="1"/>
        <pt x="409" y="-150" on="0"/>
        <pt x="377" y="-63" on="0"/>
        <pt x="363" y="39" on="0"/>
        <pt x="361" y="137" on="0"/>
        <pt x="361" y="169" on="1"/>
        <pt x="361" y="281" on="0"/>
        <pt x="375" y="547" on="0"/>
        <pt x="405" y="824" on="0"/>
        <pt x="450" y="1098" on="0"/>
        <pt x="482" y="1219" on="1"/>
        <pt x="409" y="1213" on="0"/>
        <pt x="263" y="1196" on="0"/>
        <pt x="125" y="1173" on="0"/>
        <pt x="-1" y="1144" on="0"/>
        <pt x="-55" y="1126" on="1"/>
        <pt x="-67" y="1120" on="0"/>
        <pt x="-81" y="1120" on="1"/>
        <pt x="-110" y="1120" on="0"/>
        <pt x="-110" y="1149" on="1"/>
        <pt x="-110" y="1169" on="0"/>
        <pt x="-88" y="1211" on="0"/>
        <pt x="-77" y="1227" on="1"/>
        <pt x="-60" y="1251" on="0"/>
        <pt x="7" y="1288" on="0"/>
        <pt x="94" y="1317" on="0"/>
        <pt x="191" y="1336" on="0"/>
        <pt x="283" y="1349" on="0"/>
        <pt x="364" y="1354" on="0"/>
        <pt x="390" y="1354" on="1"/>
        <pt x="420" y="1354" on="0"/>
        <pt x="486" y="1351" on="0"/>
        <pt x="521" y="1349" on="1"/>
        <pt x="537" y="1398" on="0"/>
        <pt x="554" y="1438" on="1"/>
      </contour>
      <contour>
        <pt x="443" y="-504" on="1"/>
        <pt x="448" y="-492" on="0"/>
        <pt x="456" y="-465" on="0"/>
        <pt x="457" y="-441" on="0"/>
        <pt x="448" y="-421" on="0"/>
        <pt x="437" y="-415" on="1"/>
        <pt x="415" y="-404" on="0"/>
        <pt x="383" y="-366" on="0"/>
        <pt x="383" y="-340" on="1"/>
        <pt x="383" y="-307" on="0"/>
        <pt x="429" y="-261" on="0"/>
        <pt x="462" y="-261" on="1"/>
        <pt x="494" y="-261" on="0"/>
        <pt x="538" y="-307" on="0"/>
        <pt x="540" y="-340" on="1"/>
        <pt x="542" y="-374" on="0"/>
        <pt x="520" y="-433" on="0"/>
        <pt x="488" y="-477" on="0"/>
        <pt x="457" y="-506" on="0"/>
        <pt x="451" y="-510" on="1"/>
        <pt x="449" y="-508" on="0"/>
        <pt x="447" y="-507" on="1"/>
        <pt x="443" y="-505" on="0"/>
      </contour>
    </TTGlyph>
    <TTGlyph name="Thorn" xMin="30" yMin="-352" xMax="1150" yMax="1341">
      <contour>
        <pt x="503" y="-324" on="1"/>
        <pt x="503" y="-352" on="0"/>
        <pt x="472" y="-352" on="1"/>
        <pt x="452" y="-352" on="0"/>
        <pt x="416" y="-337" on="0"/>
        <pt x="401" y="-328" on="1"/>
        <pt x="367" y="-309" on="0"/>
        <pt x="316" y="-232" on="0"/>
        <pt x="278" y="-133" on="0"/>
        <pt x="253" y="-19" on="0"/>
        <pt x="246" y="38" on="1"/>
        <pt x="216" y="49" on="0"/>
        <pt x="157" y="78" on="0"/>
        <pt x="109" y="113" on="0"/>
        <pt x="79" y="154" on="0"/>
        <pt x="79" y="177" on="1"/>
        <pt x="79" y="195" on="0"/>
        <pt x="96" y="224" on="0"/>
        <pt x="116" y="224" on="1"/>
        <pt x="148" y="224" on="0"/>
        <pt x="202" y="177" on="0"/>
        <pt x="235" y="145" on="1"/>
        <pt x="232" y="187" on="0"/>
        <pt x="230" y="259" on="0"/>
        <pt x="230" y="286" on="1"/>
        <pt x="230" y="419" on="0"/>
        <pt x="246" y="638" on="0"/>
        <pt x="276" y="825" on="0"/>
        <pt x="318" y="985" on="0"/>
        <pt x="344" y="1059" on="1"/>
        <pt x="301" y="1040" on="0"/>
        <pt x="225" y="984" on="0"/>
        <pt x="168" y="913" on="0"/>
        <pt x="134" y="830" on="0"/>
        <pt x="134" y="783" on="1"/>
        <pt x="134" y="756" on="0"/>
        <pt x="147" y="713" on="0"/>
        <pt x="162" y="677" on="0"/>
        <pt x="175" y="646" on="0"/>
        <pt x="175" y="630" on="1"/>
        <pt x="175" y="601" on="0"/>
        <pt x="136" y="562" on="0"/>
        <pt x="108" y="562" on="1"/>
        <pt x="82" y="562" on="0"/>
        <pt x="52" y="590" on="0"/>
        <pt x="35" y="632" on="0"/>
        <pt x="30" y="679" on="0"/>
        <pt x="30" y="697" on="1"/>
        <pt x="30" y="785" on="0"/>
        <pt x="113" y="928" on="0"/>
        <pt x="180" y="984" on="1"/>
        <pt x="224" y="1021" on="0"/>
        <pt x="310" y="1077" on="0"/>
        <pt x="358" y="1096" on="1"/>
        <pt x="381" y="1158" on="0"/>
        <pt x="432" y="1278" on="0"/>
        <pt x="460" y="1341" on="1"/>
        <pt x="482" y="1333" on="1"/>
        <pt x="462" y="1274" on="0"/>
        <pt x="431" y="1168" on="0"/>
        <pt x="417" y="1115" on="1"/>
        <pt x="449" y="1123" on="0"/>
        <pt x="515" y="1131" on="0"/>
        <pt x="552" y="1131" on="1"/>
        <pt x="682" y="1131" on="0"/>
        <pt x="902" y="1058" on="0"/>
        <pt x="1061" y="918" on="0"/>
        <pt x="1150" y="714" on="0"/>
        <pt x="1150" y="583" on="1"/>
        <pt x="1150" y="448" on="0"/>
        <pt x="1055" y="228" on="0"/>
        <pt x="886" y="73" on="0"/>
        <pt x="654" y="-12" on="0"/>
        <pt x="517" y="-12" on="1"/>
        <pt x="489" y="-12" on="0"/>
        <pt x="433" y="-7" on="0"/>
        <pt x="405" y="-2" on="1"/>
        <pt x="438" y="-148" on="0"/>
        <pt x="495" y="-291" on="1"/>
        <pt x="498" y="-299" on="0"/>
        <pt x="503" y="-316" on="0"/>
      </contour>
      <contour>
        <pt x="511" y="1097" on="1"/>
        <pt x="460" y="1097" on="0"/>
        <pt x="409" y="1082" on="1"/>
        <pt x="394" y="1019" on="0"/>
        <pt x="374" y="887" on="0"/>
        <pt x="360" y="737" on="0"/>
        <pt x="354" y="565" on="0"/>
        <pt x="354" y="461" on="1"/>
        <pt x="354" y="247" on="0"/>
        <pt x="394" y="48" on="1"/>
        <pt x="420" y="40" on="0"/>
        <pt x="481" y="31" on="0"/>
        <pt x="517" y="31" on="1"/>
        <pt x="631" y="31" on="0"/>
        <pt x="812" y="116" on="0"/>
        <pt x="938" y="260" on="0"/>
        <pt x="1005" y="448" on="0"/>
        <pt x="1005" y="551" on="1"/>
        <pt x="1005" y="653" on="0"/>
        <pt x="937" y="849" on="0"/>
        <pt x="810" y="1003" on="0"/>
        <pt x="626" y="1097" on="0"/>
      </contour>
    </TTGlyph>
    <TTGlyph name="U" xMin="90" yMin="-362" xMax="1200" yMax="1346">
      <contour>
        <pt x="1165" y="1217" on="1"/>
        <pt x="1179" y="1217" on="0"/>
        <pt x="1200" y="1205" on="0"/>
        <pt x="1200" y="1190" on="1"/>
        <pt x="1200" y="1172" on="0"/>
        <pt x="1186" y="1133" on="0"/>
        <pt x="1166" y="1093" on="0"/>
        <pt x="1146" y="1055" on="0"/>
        <pt x="1139" y="1038" on="1"/>
        <pt x="1080" y="887" on="0"/>
        <pt x="1024" y="568" on="0"/>
        <pt x="1024" y="403" on="1"/>
        <pt x="1024" y="308" on="0"/>
        <pt x="1042" y="110" on="0"/>
        <pt x="1084" y="-85" on="0"/>
        <pt x="1151" y="-272" on="0"/>
        <pt x="1200" y="-356" on="1"/>
        <pt x="1180" y="-362" on="1"/>
        <pt x="1083" y="-259" on="0"/>
        <pt x="949" y="-10" on="0"/>
        <pt x="914" y="127" on="1"/>
        <pt x="887" y="39" on="0"/>
        <pt x="813" y="-133" on="0"/>
        <pt x="706" y="-270" on="0"/>
        <pt x="563" y="-354" on="0"/>
        <pt x="467" y="-354" on="1"/>
        <pt x="394" y="-354" on="0"/>
        <pt x="282" y="-295" on="0"/>
        <pt x="198" y="-196" on="0"/>
        <pt x="141" y="-69" on="0"/>
        <pt x="105" y="67" on="0"/>
        <pt x="90" y="202" on="0"/>
        <pt x="90" y="258" on="1"/>
        <pt x="90" y="401" on="0"/>
        <pt x="134" y="691" on="0"/>
        <pt x="221" y="970" on="0"/>
        <pt x="351" y="1231" on="0"/>
        <pt x="438" y="1346" on="1"/>
        <pt x="459" y="1335" on="1"/>
        <pt x="422" y="1269" on="0"/>
        <pt x="361" y="1113" on="0"/>
        <pt x="313" y="944" on="0"/>
        <pt x="277" y="767" on="0"/>
        <pt x="254" y="591" on="0"/>
        <pt x="242" y="423" on="0"/>
        <pt x="242" y="348" on="1"/>
        <pt x="242" y="302" on="0"/>
        <pt x="247" y="179" on="0"/>
        <pt x="265" y="47" on="0"/>
        <pt x="301" y="-81" on="0"/>
        <pt x="363" y="-182" on="0"/>
        <pt x="455" y="-244" on="0"/>
        <pt x="520" y="-244" on="1"/>
        <pt x="584" y="-244" on="0"/>
        <pt x="686" y="-199" on="0"/>
        <pt x="764" y="-121" on="0"/>
        <pt x="821" y="-18" on="0"/>
        <pt x="859" y="98" on="0"/>
        <pt x="882" y="220" on="0"/>
        <pt x="887" y="278" on="1"/>
        <pt x="881" y="336" on="0"/>
        <pt x="881" y="395" on="1"/>
        <pt x="881" y="477" on="0"/>
        <pt x="898" y="664" on="0"/>
        <pt x="933" y="852" on="0"/>
        <pt x="987" y="1031" on="0"/>
        <pt x="1024" y="1106" on="1"/>
        <pt x="1036" y="1128" on="0"/>
        <pt x="1063" y="1168" on="0"/>
        <pt x="1096" y="1199" on="0"/>
        <pt x="1138" y="1217" on="0"/>
      </contour>
    </TTGlyph>
    <TTGlyph name="Uacute" xMin="90" yMin="-362" xMax="1200" yMax="1674">
      <component glyphName="U" x="0" y="0" flags="0x204"/>
      <component glyphName="acute" x="601" y="700" flags="0x4"/>
    </TTGlyph>
    <TTGlyph name="Ubreve" xMin="90" yMin="-362" xMax="1200" yMax="1599">
      <component glyphName="U" x="0" y="0" flags="0x204"/>
      <component glyphName="breve" x="563" y="700" flags="0x4"/>
    </TTGlyph>
    <TTGlyph name="Ucircumflex" xMin="90" yMin="-362" xMax="1200" yMax="1664">
      <component glyphName="U" x="0" y="0" flags="0x204"/>
      <component glyphName="circumflex" x="564" y="700" flags="0x4"/>
    </TTGlyph>
    <TTGlyph name="Udieresis" xMin="90" yMin="-362" xMax="1200" yMax="1574">
      <component glyphName="U" x="0" y="0" flags="0x204"/>
      <component glyphName="dieresis" x="564" y="700" flags="0x4"/>
    </TTGlyph>
    <TTGlyph name="Ugrave" xMin="90" yMin="-362" xMax="1200" yMax="1674">
      <component glyphName="U" x="0" y="0" flags="0x204"/>
      <component glyphName="grave" x="517" y="700" flags="0x4"/>
    </TTGlyph>
    <TTGlyph name="Uhungarumlaut" xMin="90" yMin="-362" xMax="1200" yMax="1631">
      <component glyphName="U" x="0" y="0" flags="0x204"/>
      <component glyphName="hungarumlaut" x="658" y="700" flags="0x4"/>
    </TTGlyph>
    <TTGlyph name="Umacron" xMin="90" yMin="-362" xMax="1200" yMax="1531">
      <component glyphName="U" x="0" y="0" flags="0x204"/>
      <component glyphName="macron" x="564" y="700" flags="0x4"/>
    </TTGlyph>
    <TTGlyph name="Uogonek" xMin="90" yMin="-601" xMax="1244" yMax="1346">
      <contour>
        <pt x="1152" y="-295" on="1"/>
        <pt x="1120" y="-307" on="0"/>
        <pt x="1079" y="-346" on="0"/>
        <pt x="1055" y="-389" on="0"/>
        <pt x="1046" y="-432" on="0"/>
        <pt x="1046" y="-447" on="1"/>
        <pt x="1046" y="-463" on="0"/>
        <pt x="1056" y="-493" on="0"/>
        <pt x="1076" y="-517" on="0"/>
        <pt x="1107" y="-532" on="0"/>
        <pt x="1128" y="-532" on="1"/>
        <pt x="1148" y="-532" on="0"/>
        <pt x="1198" y="-512" on="0"/>
        <pt x="1230" y="-483" on="1"/>
        <pt x="1244" y="-494" on="1"/>
        <pt x="1234" y="-514" on="0"/>
        <pt x="1202" y="-552" on="0"/>
        <pt x="1159" y="-582" on="0"/>
        <pt x="1105" y="-601" on="0"/>
        <pt x="1072" y="-601" on="1"/>
        <pt x="1049" y="-601" on="0"/>
        <pt x="1007" y="-587" on="0"/>
        <pt x="974" y="-558" on="0"/>
        <pt x="954" y="-514" on="0"/>
        <pt x="954" y="-484" on="1"/>
        <pt x="954" y="-415" on="0"/>
        <pt x="1043" y="-317" on="0"/>
        <pt x="1118" y="-287" on="1"/>
        <pt x="1048" y="-196" on="0"/>
        <pt x="942" y="16" on="0"/>
        <pt x="914" y="127" on="1"/>
        <pt x="887" y="39" on="0"/>
        <pt x="813" y="-133" on="0"/>
        <pt x="706" y="-270" on="0"/>
        <pt x="563" y="-354" on="0"/>
        <pt x="467" y="-354" on="1"/>
        <pt x="394" y="-354" on="0"/>
        <pt x="282" y="-295" on="0"/>
        <pt x="198" y="-196" on="0"/>
        <pt x="141" y="-69" on="0"/>
        <pt x="105" y="67" on="0"/>
        <pt x="90" y="202" on="0"/>
        <pt x="90" y="258" on="1"/>
        <pt x="90" y="401" on="0"/>
        <pt x="134" y="691" on="0"/>
        <pt x="221" y="970" on="0"/>
        <pt x="351" y="1231" on="0"/>
        <pt x="438" y="1346" on="1"/>
        <pt x="459" y="1335" on="1"/>
        <pt x="422" y="1269" on="0"/>
        <pt x="361" y="1113" on="0"/>
        <pt x="313" y="944" on="0"/>
        <pt x="277" y="767" on="0"/>
        <pt x="254" y="591" on="0"/>
        <pt x="242" y="423" on="0"/>
        <pt x="242" y="348" on="1"/>
        <pt x="242" y="302" on="0"/>
        <pt x="247" y="179" on="0"/>
        <pt x="265" y="47" on="0"/>
        <pt x="301" y="-81" on="0"/>
        <pt x="363" y="-182" on="0"/>
        <pt x="455" y="-244" on="0"/>
        <pt x="520" y="-244" on="1"/>
        <pt x="584" y="-244" on="0"/>
        <pt x="686" y="-199" on="0"/>
        <pt x="764" y="-121" on="0"/>
        <pt x="821" y="-18" on="0"/>
        <pt x="859" y="98" on="0"/>
        <pt x="882" y="220" on="0"/>
        <pt x="887" y="278" on="1"/>
        <pt x="881" y="336" on="0"/>
        <pt x="881" y="395" on="1"/>
        <pt x="881" y="477" on="0"/>
        <pt x="898" y="664" on="0"/>
        <pt x="933" y="852" on="0"/>
        <pt x="987" y="1031" on="0"/>
        <pt x="1024" y="1106" on="1"/>
        <pt x="1036" y="1128" on="0"/>
        <pt x="1063" y="1168" on="0"/>
        <pt x="1096" y="1199" on="0"/>
        <pt x="1138" y="1217" on="0"/>
        <pt x="1165" y="1217" on="1"/>
        <pt x="1179" y="1217" on="0"/>
        <pt x="1200" y="1205" on="0"/>
        <pt x="1200" y="1190" on="1"/>
        <pt x="1200" y="1172" on="0"/>
        <pt x="1186" y="1133" on="0"/>
        <pt x="1166" y="1093" on="0"/>
        <pt x="1146" y="1055" on="0"/>
        <pt x="1139" y="1038" on="1"/>
        <pt x="1080" y="887" on="0"/>
        <pt x="1024" y="568" on="0"/>
        <pt x="1024" y="403" on="1"/>
        <pt x="1024" y="316" on="0"/>
        <pt x="1034" y="136" on="0"/>
        <pt x="1062" y="-42" on="0"/>
        <pt x="1112" y="-215" on="0"/>
      </contour>
    </TTGlyph>
    <TTGlyph name="Uring" xMin="90" yMin="-362" xMax="1200" yMax="1646">
      <component glyphName="U" x="0" y="0" flags="0x204"/>
      <component glyphName="ring" x="542" y="690" flags="0x4"/>
    </TTGlyph>
    <TTGlyph name="Utilde" xMin="90" yMin="-362" xMax="1200" yMax="1577">
      <component glyphName="U" x="0" y="0" flags="0x204"/>
      <component glyphName="tilde" x="564" y="700" flags="0x4"/>
    </TTGlyph>
    <TTGlyph name="V" xMin="30" yMin="-383" xMax="1341" yMax="1378">
      <contour>
        <pt x="194" y="1370" on="1"/>
        <pt x="177" y="1351" on="0"/>
        <pt x="158" y="1291" on="0"/>
        <pt x="148" y="1225" on="0"/>
        <pt x="145" y="1159" on="0"/>
        <pt x="145" y="1135" on="1"/>
        <pt x="145" y="1000" on="0"/>
        <pt x="194" y="740" on="0"/>
        <pt x="282" y="492" on="0"/>
        <pt x="403" y="256" on="0"/>
        <pt x="476" y="145" on="1"/>
        <pt x="497" y="113" on="0"/>
        <pt x="545" y="37" on="0"/>
        <pt x="567" y="-5" on="1"/>
        <pt x="579" y="33" on="0"/>
        <pt x="603" y="104" on="0"/>
        <pt x="614" y="133" on="1"/>
        <pt x="643" y="214" on="0"/>
        <pt x="710" y="404" on="0"/>
        <pt x="787" y="605" on="0"/>
        <pt x="872" y="810" on="0"/>
        <pt x="965" y="1002" on="0"/>
        <pt x="1064" y="1172" on="0"/>
        <pt x="1117" y="1239" on="1"/>
        <pt x="1132" y="1258" on="0"/>
        <pt x="1175" y="1301" on="0"/>
        <pt x="1225" y="1338" on="0"/>
        <pt x="1279" y="1362" on="0"/>
        <pt x="1306" y="1362" on="1"/>
        <pt x="1317" y="1362" on="0"/>
        <pt x="1341" y="1352" on="0"/>
        <pt x="1341" y="1339" on="1"/>
        <pt x="1341" y="1331" on="0"/>
        <pt x="1333" y="1317" on="0"/>
        <pt x="1328" y="1311" on="1"/>
        <pt x="1108" y="982" on="0"/>
        <pt x="752" y="280" on="0"/>
        <pt x="606" y="-87" on="1"/>
        <pt x="625" y="-132" on="0"/>
        <pt x="648" y="-220" on="0"/>
        <pt x="648" y="-262" on="1"/>
        <pt x="648" y="-279" on="0"/>
        <pt x="641" y="-321" on="0"/>
        <pt x="623" y="-358" on="0"/>
        <pt x="593" y="-383" on="0"/>
        <pt x="571" y="-383" on="1"/>
        <pt x="551" y="-383" on="0"/>
        <pt x="527" y="-363" on="0"/>
        <pt x="515" y="-334" on="0"/>
        <pt x="511" y="-300" on="0"/>
        <pt x="511" y="-285" on="1"/>
        <pt x="511" y="-248" on="0"/>
        <pt x="526" y="-159" on="0"/>
        <pt x="537" y="-112" on="1"/>
        <pt x="519" y="-85" on="0"/>
        <pt x="478" y="-28" on="0"/>
        <pt x="437" y="27" on="0"/>
        <pt x="400" y="77" on="0"/>
        <pt x="386" y="98" on="1"/>
        <pt x="319" y="194" on="0"/>
        <pt x="191" y="397" on="0"/>
        <pt x="91" y="612" on="0"/>
        <pt x="30" y="839" on="0"/>
        <pt x="30" y="961" on="1"/>
        <pt x="30" y="1076" on="0"/>
        <pt x="100" y="1289" on="0"/>
        <pt x="175" y="1378" on="1"/>
      </contour>
      <contour>
        <pt x="587" y="-199" on="1"/>
        <pt x="584" y="-192" on="0"/>
        <pt x="577" y="-179" on="0"/>
        <pt x="573" y="-171" on="1"/>
        <pt x="572" y="-173" on="0"/>
        <pt x="572" y="-176" on="0"/>
        <pt x="571" y="-178" on="1"/>
        <pt x="567" y="-193" on="0"/>
        <pt x="557" y="-227" on="0"/>
        <pt x="549" y="-263" on="0"/>
        <pt x="544" y="-298" on="0"/>
        <pt x="544" y="-313" on="1"/>
        <pt x="544" y="-326" on="0"/>
        <pt x="552" y="-354" on="0"/>
        <pt x="569" y="-354" on="1"/>
        <pt x="592" y="-354" on="0"/>
        <pt x="616" y="-323" on="0"/>
        <pt x="616" y="-301" on="1"/>
        <pt x="616" y="-275" on="0"/>
        <pt x="596" y="-223" on="0"/>
      </contour>
    </TTGlyph>
    <TTGlyph name="W" xMin="75" yMin="-373" xMax="1689" yMax="1589">
      <contour>
        <pt x="511" y="1358" on="1"/>
        <pt x="442" y="1274" on="0"/>
        <pt x="331" y="1079" on="0"/>
        <pt x="251" y="856" on="0"/>
        <pt x="209" y="603" on="0"/>
        <pt x="209" y="459" on="1"/>
        <pt x="209" y="391" on="0"/>
        <pt x="219" y="242" on="0"/>
        <pt x="244" y="99" on="0"/>
        <pt x="287" y="-30" on="0"/>
        <pt x="355" y="-128" on="0"/>
        <pt x="451" y="-185" on="0"/>
        <pt x="516" y="-185" on="1"/>
        <pt x="576" y="-185" on="0"/>
        <pt x="669" y="-106" on="0"/>
        <pt x="704" y="-42" on="1"/>
        <pt x="672" y="24" on="0"/>
        <pt x="625" y="168" on="0"/>
        <pt x="594" y="313" on="0"/>
        <pt x="579" y="455" on="0"/>
        <pt x="579" y="518" on="1"/>
        <pt x="579" y="547" on="0"/>
        <pt x="582" y="635" on="0"/>
        <pt x="594" y="732" on="0"/>
        <pt x="617" y="830" on="0"/>
        <pt x="657" y="907" on="0"/>
        <pt x="716" y="956" on="0"/>
        <pt x="759" y="956" on="1"/>
        <pt x="798" y="956" on="0"/>
        <pt x="855" y="908" on="0"/>
        <pt x="895" y="833" on="0"/>
        <pt x="921" y="738" on="0"/>
        <pt x="936" y="645" on="0"/>
        <pt x="941" y="563" on="0"/>
        <pt x="941" y="537" on="1"/>
        <pt x="941" y="480" on="0"/>
        <pt x="926" y="346" on="0"/>
        <pt x="895" y="203" on="0"/>
        <pt x="849" y="58" on="0"/>
        <pt x="818" y="-9" on="1"/>
        <pt x="848" y="-56" on="0"/>
        <pt x="918" y="-135" on="0"/>
        <pt x="1001" y="-192" on="0"/>
        <pt x="1095" y="-223" on="0"/>
        <pt x="1148" y="-223" on="1"/>
        <pt x="1229" y="-223" on="0"/>
        <pt x="1355" y="-162" on="0"/>
        <pt x="1447" y="-58" on="0"/>
        <pt x="1510" y="82" on="0"/>
        <pt x="1548" y="240" on="0"/>
        <pt x="1564" y="408" on="0"/>
        <pt x="1564" y="489" on="1"/>
        <pt x="1564" y="605" on="0"/>
        <pt x="1521" y="836" on="0"/>
        <pt x="1438" y="1053" on="0"/>
        <pt x="1315" y="1249" on="0"/>
        <pt x="1153" y="1411" on="0"/>
        <pt x="954" y="1531" on="0"/>
        <pt x="837" y="1565" on="1"/>
        <pt x="857" y="1589" on="1"/>
        <pt x="995" y="1558" on="0"/>
        <pt x="1225" y="1426" on="0"/>
        <pt x="1410" y="1242" on="0"/>
        <pt x="1549" y="1016" on="0"/>
        <pt x="1642" y="766" on="0"/>
        <pt x="1689" y="500" on="0"/>
        <pt x="1689" y="369" on="1"/>
        <pt x="1689" y="288" on="0"/>
        <pt x="1664" y="115" on="0"/>
        <pt x="1610" y="-50" on="0"/>
        <pt x="1525" y="-197" on="0"/>
        <pt x="1405" y="-308" on="0"/>
        <pt x="1246" y="-373" on="0"/>
        <pt x="1146" y="-373" on="1"/>
        <pt x="1081" y="-373" on="0"/>
        <pt x="967" y="-337" on="0"/>
        <pt x="869" y="-272" on="0"/>
        <pt x="786" y="-182" on="0"/>
        <pt x="752" y="-128" on="1"/>
        <pt x="723" y="-171" on="0"/>
        <pt x="657" y="-243" on="0"/>
        <pt x="581" y="-294" on="0"/>
        <pt x="496" y="-322" on="0"/>
        <pt x="449" y="-322" on="1"/>
        <pt x="371" y="-322" on="0"/>
        <pt x="254" y="-255" on="0"/>
        <pt x="171" y="-146" on="0"/>
        <pt x="118" y="-9" on="0"/>
        <pt x="87" y="131" on="0"/>
        <pt x="75" y="262" on="0"/>
        <pt x="75" y="310" on="1"/>
        <pt x="75" y="623" on="0"/>
        <pt x="286" y="1158" on="0"/>
        <pt x="492" y="1373" on="1"/>
      </contour>
      <contour>
        <pt x="654" y="610" on="1"/>
        <pt x="654" y="553" on="0"/>
        <pt x="667" y="425" on="0"/>
        <pt x="694" y="291" on="0"/>
        <pt x="734" y="158" on="0"/>
        <pt x="762" y="96" on="1"/>
        <pt x="779" y="149" on="0"/>
        <pt x="803" y="261" on="0"/>
        <pt x="819" y="368" on="0"/>
        <pt x="826" y="464" on="0"/>
        <pt x="826" y="502" on="1"/>
        <pt x="826" y="560" on="0"/>
        <pt x="815" y="682" on="0"/>
        <pt x="791" y="782" on="0"/>
        <pt x="752" y="846" on="0"/>
        <pt x="724" y="846" on="1"/>
        <pt x="708" y="846" on="0"/>
        <pt x="685" y="816" on="0"/>
        <pt x="670" y="771" on="0"/>
        <pt x="660" y="715" on="0"/>
        <pt x="655" y="662" on="0"/>
        <pt x="654" y="620" on="0"/>
      </contour>
    </TTGlyph>
    <TTGlyph name="Wacute" xMin="75" yMin="-373" xMax="1689" yMax="1589">
      <component glyphName="W" x="0" y="0" flags="0x204"/>
      <component glyphName="acute" x="595" y="421" flags="0x4"/>
    </TTGlyph>
    <TTGlyph name="Wcircumflex" xMin="75" yMin="-373" xMax="1689" yMax="1589">
      <component glyphName="W" x="0" y="0" flags="0x204"/>
      <component glyphName="circumflex" x="558" y="421" flags="0x4"/>
    </TTGlyph>
    <TTGlyph name="Wdieresis" xMin="75" yMin="-373" xMax="1689" yMax="1589">
      <component glyphName="W" x="0" y="0" flags="0x204"/>
      <component glyphName="dieresis" x="558" y="421" flags="0x4"/>
    </TTGlyph>
    <TTGlyph name="Wgrave" xMin="75" yMin="-373" xMax="1689" yMax="1589">
      <component glyphName="W" x="0" y="0" flags="0x204"/>
      <component glyphName="grave" x="511" y="421" flags="0x4"/>
    </TTGlyph>
    <TTGlyph name="X" xMin="-20" yMin="-383" xMax="1258" yMax="1372">
      <contour>
        <pt x="1240" y="1372" on="1"/>
        <pt x="1246" y="1372" on="0"/>
        <pt x="1258" y="1365" on="0"/>
        <pt x="1258" y="1356" on="1"/>
        <pt x="1258" y="1348" on="0"/>
        <pt x="1249" y="1330" on="0"/>
        <pt x="1235" y="1312" on="0"/>
        <pt x="1221" y="1296" on="0"/>
        <pt x="1217" y="1290" on="1"/>
        <pt x="1163" y="1228" on="0"/>
        <pt x="1055" y="1112" on="0"/>
        <pt x="1002" y="1049" on="1"/>
        <pt x="871" y="894" on="0"/>
        <pt x="635" y="570" on="0"/>
        <pt x="521" y="402" on="1"/>
        <pt x="658" y="185" on="0"/>
        <pt x="986" y="-203" on="0"/>
        <pt x="1174" y="-365" on="1"/>
        <pt x="1162" y="-383" on="1"/>
        <pt x="1061" y="-322" on="0"/>
        <pt x="868" y="-173" on="0"/>
        <pt x="685" y="-4" on="0"/>
        <pt x="515" y="183" on="0"/>
        <pt x="439" y="281" on="1"/>
        <pt x="329" y="117" on="0"/>
        <pt x="115" y="-209" on="0"/>
        <pt x="3" y="-371" on="1"/>
        <pt x="-20" y="-354" on="1"/>
        <pt x="82" y="-179" on="0"/>
        <pt x="287" y="166" on="0"/>
        <pt x="394" y="340" on="1"/>
        <pt x="280" y="494" on="0"/>
        <pt x="191" y="653" on="1"/>
        <pt x="158" y="712" on="0"/>
        <pt x="89" y="851" on="0"/>
        <pt x="34" y="998" on="0"/>
        <pt x="-2" y="1147" on="0"/>
        <pt x="-2" y="1217" on="1"/>
        <pt x="-2" y="1233" on="0"/>
        <pt x="7" y="1285" on="0"/>
        <pt x="26" y="1334" on="0"/>
        <pt x="55" y="1370" on="0"/>
        <pt x="76" y="1370" on="1"/>
        <pt x="88" y="1370" on="0"/>
        <pt x="104" y="1357" on="0"/>
        <pt x="115" y="1337" on="0"/>
        <pt x="121" y="1316" on="0"/>
        <pt x="123" y="1309" on="1"/>
        <pt x="178" y="1094" on="0"/>
        <pt x="358" y="673" on="0"/>
        <pt x="478" y="472" on="1"/>
        <pt x="571" y="618" on="0"/>
        <pt x="764" y="899" on="0"/>
        <pt x="869" y="1036" on="1"/>
        <pt x="885" y="1058" on="0"/>
        <pt x="932" y="1117" on="0"/>
        <pt x="988" y="1182" on="0"/>
        <pt x="1050" y="1248" on="0"/>
        <pt x="1113" y="1305" on="0"/>
        <pt x="1173" y="1349" on="0"/>
        <pt x="1199" y="1360" on="1"/>
        <pt x="1208" y="1365" on="0"/>
        <pt x="1229" y="1372" on="0"/>
      </contour>
    </TTGlyph>
    <TTGlyph name="Y" xMin="0" yMin="-346" xMax="1085" yMax="1380">
      <contour>
        <pt x="1085" y="1262" on="1"/>
        <pt x="1085" y="1223" on="0"/>
        <pt x="1060" y="1140" on="0"/>
        <pt x="1044" y="1106" on="1"/>
        <pt x="1002" y="1009" on="0"/>
        <pt x="895" y="830" on="0"/>
        <pt x="834" y="743" on="1"/>
        <pt x="818" y="721" on="0"/>
        <pt x="765" y="660" on="0"/>
        <pt x="703" y="590" on="0"/>
        <pt x="639" y="514" on="0"/>
        <pt x="583" y="439" on="0"/>
        <pt x="542" y="370" on="0"/>
        <pt x="535" y="342" on="1"/>
        <pt x="528" y="317" on="0"/>
        <pt x="528" y="263" on="0"/>
        <pt x="528" y="240" on="1"/>
        <pt x="528" y="216" on="0"/>
        <pt x="531" y="127" on="0"/>
        <pt x="536" y="18" on="0"/>
        <pt x="546" y="-100" on="0"/>
        <pt x="559" y="-206" on="0"/>
        <pt x="578" y="-289" on="0"/>
        <pt x="590" y="-309" on="1"/>
        <pt x="592" y="-313" on="0"/>
        <pt x="596" y="-321" on="0"/>
        <pt x="596" y="-326" on="1"/>
        <pt x="596" y="-333" on="0"/>
        <pt x="587" y="-341" on="0"/>
        <pt x="575" y="-345" on="0"/>
        <pt x="563" y="-346" on="0"/>
        <pt x="559" y="-346" on="1"/>
        <pt x="537" y="-346" on="0"/>
        <pt x="496" y="-338" on="0"/>
        <pt x="477" y="-332" on="1"/>
        <pt x="447" y="-322" on="0"/>
        <pt x="413" y="-282" on="0"/>
        <pt x="395" y="-231" on="0"/>
        <pt x="391" y="-174" on="0"/>
        <pt x="391" y="-147" on="1"/>
        <pt x="391" y="-96" on="0"/>
        <pt x="399" y="26" on="0"/>
        <pt x="412" y="151" on="0"/>
        <pt x="430" y="273" on="0"/>
        <pt x="440" y="326" on="1"/>
        <pt x="432" y="344" on="0"/>
        <pt x="389" y="401" on="0"/>
        <pt x="336" y="462" on="0"/>
        <pt x="286" y="518" on="0"/>
        <pt x="272" y="535" on="1"/>
        <pt x="224" y="593" on="0"/>
        <pt x="127" y="727" on="0"/>
        <pt x="49" y="874" on="0"/>
        <pt x="0" y="1030" on="0"/>
        <pt x="0" y="1110" on="1"/>
        <pt x="0" y="1169" on="0"/>
        <pt x="39" y="1275" on="0"/>
        <pt x="82" y="1313" on="1"/>
        <pt x="91" y="1321" on="0"/>
        <pt x="119" y="1344" on="0"/>
        <pt x="150" y="1365" on="0"/>
        <pt x="182" y="1380" on="0"/>
        <pt x="195" y="1380" on="1"/>
        <pt x="215" y="1380" on="0"/>
        <pt x="215" y="1358" on="1"/>
        <pt x="215" y="1355" on="0"/>
        <pt x="215" y="1347" on="0"/>
        <pt x="213" y="1343" on="1"/>
        <pt x="202" y="1295" on="0"/>
        <pt x="190" y="1201" on="0"/>
        <pt x="190" y="1151" on="1"/>
        <pt x="190" y="1037" on="0"/>
        <pt x="242" y="841" on="0"/>
        <pt x="328" y="659" on="0"/>
        <pt x="438" y="484" on="0"/>
        <pt x="496" y="393" on="1"/>
        <pt x="533" y="449" on="0"/>
        <pt x="619" y="575" on="0"/>
        <pt x="705" y="709" on="0"/>
        <pt x="786" y="850" on="0"/>
        <pt x="848" y="993" on="0"/>
        <pt x="885" y="1136" on="0"/>
        <pt x="885" y="1206" on="1"/>
        <pt x="885" y="1232" on="0"/>
        <pt x="878" y="1280" on="0"/>
        <pt x="870" y="1303" on="1"/>
        <pt x="870" y="1311" on="1"/>
        <pt x="870" y="1326" on="0"/>
        <pt x="895" y="1344" on="0"/>
        <pt x="928" y="1354" on="0"/>
        <pt x="963" y="1358" on="0"/>
        <pt x="973" y="1358" on="1"/>
        <pt x="998" y="1358" on="0"/>
        <pt x="1039" y="1349" on="0"/>
        <pt x="1069" y="1327" on="0"/>
        <pt x="1085" y="1290" on="0"/>
      </contour>
    </TTGlyph>
    <TTGlyph name="Yacute" xMin="0" yMin="-346" xMax="1085" yMax="1767">
      <component glyphName="Y" x="0" y="0" flags="0x204"/>
      <component glyphName="acute" x="355" y="793" flags="0x4"/>
    </TTGlyph>
    <TTGlyph name="Ycircumflex" xMin="0" yMin="-346" xMax="1085" yMax="1757">
      <component glyphName="Y" x="0" y="0" flags="0x204"/>
      <component glyphName="circumflex" x="318" y="793" flags="0x4"/>
    </TTGlyph>
    <TTGlyph name="Ydieresis" xMin="0" yMin="-346" xMax="1085" yMax="1667">
      <component glyphName="Y" x="0" y="0" flags="0x204"/>
      <component glyphName="dieresis" x="318" y="793" flags="0x4"/>
    </TTGlyph>
    <TTGlyph name="Ygrave" xMin="0" yMin="-346" xMax="1085" yMax="1767">
      <component glyphName="Y" x="0" y="0" flags="0x204"/>
      <component glyphName="grave" x="271" y="793" flags="0x4"/>
    </TTGlyph>
    <TTGlyph name="Z" xMin="10" yMin="-315" xMax="1097" yMax="1356">
      <contour>
        <pt x="1059" y="-127" on="1"/>
        <pt x="1000" y="-168" on="0"/>
        <pt x="837" y="-237" on="0"/>
        <pt x="654" y="-287" on="0"/>
        <pt x="464" y="-315" on="0"/>
        <pt x="379" y="-315" on="1"/>
        <pt x="346" y="-315" on="0"/>
        <pt x="263" y="-309" on="0"/>
        <pt x="178" y="-291" on="0"/>
        <pt x="98" y="-260" on="0"/>
        <pt x="68" y="-236" on="1"/>
        <pt x="57" y="-246" on="0"/>
        <pt x="37" y="-263" on="0"/>
        <pt x="26" y="-272" on="1"/>
        <pt x="14" y="-250" on="1"/>
        <pt x="22" y="-240" on="0"/>
        <pt x="35" y="-221" on="0"/>
        <pt x="43" y="-212" on="1"/>
        <pt x="27" y="-192" on="0"/>
        <pt x="10" y="-146" on="0"/>
        <pt x="10" y="-117" on="1"/>
        <pt x="10" y="-104" on="0"/>
        <pt x="21" y="-86" on="0"/>
        <pt x="35" y="-86" on="1"/>
        <pt x="40" y="-86" on="0"/>
        <pt x="50" y="-88" on="0"/>
        <pt x="55" y="-90" on="1"/>
        <pt x="71" y="-96" on="0"/>
        <pt x="102" y="-109" on="0"/>
        <pt x="118" y="-114" on="1"/>
        <pt x="222" y="24" on="0"/>
        <pt x="411" y="298" on="0"/>
        <pt x="499" y="440" on="1"/>
        <pt x="557" y="535" on="0"/>
        <pt x="669" y="716" on="0"/>
        <pt x="769" y="901" on="0"/>
        <pt x="856" y="1095" on="0"/>
        <pt x="889" y="1202" on="1"/>
        <pt x="889" y="1203" on="1"/>
        <pt x="814" y="1206" on="0"/>
        <pt x="737" y="1206" on="1"/>
        <pt x="662" y="1206" on="0"/>
        <pt x="503" y="1200" on="0"/>
        <pt x="341" y="1181" on="0"/>
        <pt x="181" y="1147" on="0"/>
        <pt x="105" y="1119" on="1"/>
        <pt x="100" y="1117" on="0"/>
        <pt x="90" y="1114" on="0"/>
        <pt x="84" y="1114" on="1"/>
        <pt x="67" y="1114" on="0"/>
        <pt x="57" y="1139" on="0"/>
        <pt x="57" y="1153" on="1"/>
        <pt x="57" y="1176" on="0"/>
        <pt x="73" y="1224" on="0"/>
        <pt x="84" y="1245" on="1"/>
        <pt x="95" y="1268" on="0"/>
        <pt x="143" y="1303" on="0"/>
        <pt x="205" y="1328" on="0"/>
        <pt x="276" y="1344" on="0"/>
        <pt x="346" y="1353" on="0"/>
        <pt x="408" y="1356" on="0"/>
        <pt x="430" y="1356" on="1"/>
        <pt x="480" y="1356" on="0"/>
        <pt x="598" y="1346" on="0"/>
        <pt x="722" y="1327" on="0"/>
        <pt x="849" y="1300" on="0"/>
        <pt x="908" y="1283" on="1"/>
        <pt x="908" y="1284" on="0"/>
        <pt x="909" y="1285" on="0"/>
        <pt x="909" y="1286" on="1"/>
        <pt x="910" y="1292" on="0"/>
        <pt x="915" y="1311" on="0"/>
        <pt x="922" y="1327" on="0"/>
        <pt x="935" y="1339" on="0"/>
        <pt x="944" y="1339" on="1"/>
        <pt x="955" y="1339" on="0"/>
        <pt x="977" y="1323" on="0"/>
        <pt x="996" y="1297" on="0"/>
        <pt x="1012" y="1263" on="0"/>
        <pt x="1018" y="1246" on="1"/>
        <pt x="1060" y="1230" on="0"/>
        <pt x="1097" y="1210" on="1"/>
        <pt x="1091" y="1188" on="1"/>
        <pt x="1076" y="1190" on="0"/>
        <pt x="1046" y="1192" on="0"/>
        <pt x="1031" y="1193" on="1"/>
        <pt x="1031" y="1189" on="0"/>
        <pt x="1032" y="1183" on="0"/>
        <pt x="1032" y="1180" on="1"/>
        <pt x="1032" y="1128" on="0"/>
        <pt x="988" y="1000" on="0"/>
        <pt x="926" y="869" on="0"/>
        <pt x="856" y="750" on="0"/>
        <pt x="831" y="707" on="1"/>
        <pt x="772" y="607" on="0"/>
        <pt x="622" y="387" on="0"/>
        <pt x="453" y="167" on="0"/>
        <pt x="270" y="-43" on="0"/>
        <pt x="179" y="-133" on="1"/>
        <pt x="259" y="-152" on="0"/>
        <pt x="427" y="-162" on="0"/>
        <pt x="518" y="-162" on="1"/>
        <pt x="651" y="-162" on="0"/>
        <pt x="920" y="-135" on="0"/>
        <pt x="1048" y="-106" on="1"/>
      </contour>
    </TTGlyph>
    <TTGlyph name="Zacute" xMin="10" yMin="-315" xMax="1097" yMax="1752">
      <component glyphName="Z" x="0" y="0" flags="0x204"/>
      <component glyphName="acute" x="371" y="778" flags="0x4"/>
    </TTGlyph>
</ttFont>
